G04 #@! TF.FileFunction,Legend,Top*
%FSLAX46Y46*%
G04 Gerber Fmt 4.6, Leading zero omitted, Abs format (unit mm)*
G04 Created by KiCad (PCBNEW 4.0.5-e0-6337~49~ubuntu16.04.1) date Tue Feb 28 16:50:45 2017*
%MOMM*%
%LPD*%
G01*
G04 APERTURE LIST*
%ADD10C,0.100000*%
%ADD11C,0.300000*%
%ADD12C,0.150000*%
%ADD13C,0.200000*%
%ADD14C,0.120000*%
G04 APERTURE END LIST*
D10*
D11*
X81378571Y-155942855D02*
X81435714Y-155999998D01*
X81492857Y-156171427D01*
X81492857Y-156285713D01*
X81435714Y-156457141D01*
X81321429Y-156571427D01*
X81207143Y-156628570D01*
X80978571Y-156685713D01*
X80807143Y-156685713D01*
X80578571Y-156628570D01*
X80464286Y-156571427D01*
X80350000Y-156457141D01*
X80292857Y-156285713D01*
X80292857Y-156171427D01*
X80350000Y-155999998D01*
X80407143Y-155942855D01*
X81492857Y-155257141D02*
X81435714Y-155371427D01*
X81321429Y-155428570D01*
X80292857Y-155428570D01*
X81492857Y-154628570D02*
X81435714Y-154742856D01*
X81378571Y-154799999D01*
X81264286Y-154857142D01*
X80921429Y-154857142D01*
X80807143Y-154799999D01*
X80750000Y-154742856D01*
X80692857Y-154628570D01*
X80692857Y-154457142D01*
X80750000Y-154342856D01*
X80807143Y-154285713D01*
X80921429Y-154228570D01*
X81264286Y-154228570D01*
X81378571Y-154285713D01*
X81435714Y-154342856D01*
X81492857Y-154457142D01*
X81492857Y-154628570D01*
X81435714Y-153199999D02*
X81492857Y-153314285D01*
X81492857Y-153542856D01*
X81435714Y-153657142D01*
X81378571Y-153714285D01*
X81264286Y-153771428D01*
X80921429Y-153771428D01*
X80807143Y-153714285D01*
X80750000Y-153657142D01*
X80692857Y-153542856D01*
X80692857Y-153314285D01*
X80750000Y-153199999D01*
X81492857Y-152685714D02*
X80292857Y-152685714D01*
X81035714Y-152571428D02*
X81492857Y-152228571D01*
X80692857Y-152228571D02*
X81150000Y-152685714D01*
X81492857Y-150285713D02*
X80292857Y-150285713D01*
X81435714Y-150285713D02*
X81492857Y-150399999D01*
X81492857Y-150628570D01*
X81435714Y-150742856D01*
X81378571Y-150799999D01*
X81264286Y-150857142D01*
X80921429Y-150857142D01*
X80807143Y-150799999D01*
X80750000Y-150742856D01*
X80692857Y-150628570D01*
X80692857Y-150399999D01*
X80750000Y-150285713D01*
X81435714Y-149257142D02*
X81492857Y-149371428D01*
X81492857Y-149599999D01*
X81435714Y-149714285D01*
X81321429Y-149771428D01*
X80864286Y-149771428D01*
X80750000Y-149714285D01*
X80692857Y-149599999D01*
X80692857Y-149371428D01*
X80750000Y-149257142D01*
X80864286Y-149199999D01*
X80978571Y-149199999D01*
X81092857Y-149771428D01*
X81435714Y-148742857D02*
X81492857Y-148628571D01*
X81492857Y-148399999D01*
X81435714Y-148285714D01*
X81321429Y-148228571D01*
X81264286Y-148228571D01*
X81150000Y-148285714D01*
X81092857Y-148399999D01*
X81092857Y-148571428D01*
X81035714Y-148685714D01*
X80921429Y-148742857D01*
X80864286Y-148742857D01*
X80750000Y-148685714D01*
X80692857Y-148571428D01*
X80692857Y-148399999D01*
X80750000Y-148285714D01*
X81492857Y-147714285D02*
X80692857Y-147714285D01*
X80292857Y-147714285D02*
X80350000Y-147771428D01*
X80407143Y-147714285D01*
X80350000Y-147657142D01*
X80292857Y-147714285D01*
X80407143Y-147714285D01*
X80692857Y-146628570D02*
X81664286Y-146628570D01*
X81778571Y-146685713D01*
X81835714Y-146742856D01*
X81892857Y-146857141D01*
X81892857Y-147028570D01*
X81835714Y-147142856D01*
X81435714Y-146628570D02*
X81492857Y-146742856D01*
X81492857Y-146971427D01*
X81435714Y-147085713D01*
X81378571Y-147142856D01*
X81264286Y-147199999D01*
X80921429Y-147199999D01*
X80807143Y-147142856D01*
X80750000Y-147085713D01*
X80692857Y-146971427D01*
X80692857Y-146742856D01*
X80750000Y-146628570D01*
X80692857Y-146057142D02*
X81492857Y-146057142D01*
X80807143Y-146057142D02*
X80750000Y-145999999D01*
X80692857Y-145885713D01*
X80692857Y-145714285D01*
X80750000Y-145599999D01*
X80864286Y-145542856D01*
X81492857Y-145542856D01*
X81035714Y-144057142D02*
X81035714Y-143142856D01*
X80864286Y-141257142D02*
X80921429Y-141085713D01*
X80978571Y-141028570D01*
X81092857Y-140971427D01*
X81264286Y-140971427D01*
X81378571Y-141028570D01*
X81435714Y-141085713D01*
X81492857Y-141199999D01*
X81492857Y-141657142D01*
X80292857Y-141657142D01*
X80292857Y-141257142D01*
X80350000Y-141142856D01*
X80407143Y-141085713D01*
X80521429Y-141028570D01*
X80635714Y-141028570D01*
X80750000Y-141085713D01*
X80807143Y-141142856D01*
X80864286Y-141257142D01*
X80864286Y-141657142D01*
X81435714Y-139999999D02*
X81492857Y-140114285D01*
X81492857Y-140342856D01*
X81435714Y-140457142D01*
X81321429Y-140514285D01*
X80864286Y-140514285D01*
X80750000Y-140457142D01*
X80692857Y-140342856D01*
X80692857Y-140114285D01*
X80750000Y-139999999D01*
X80864286Y-139942856D01*
X80978571Y-139942856D01*
X81092857Y-140514285D01*
X80692857Y-139428571D02*
X81492857Y-139428571D01*
X80807143Y-139428571D02*
X80750000Y-139371428D01*
X80692857Y-139257142D01*
X80692857Y-139085714D01*
X80750000Y-138971428D01*
X80864286Y-138914285D01*
X81492857Y-138914285D01*
X80864286Y-137428571D02*
X80864286Y-137028571D01*
X81492857Y-136857142D02*
X81492857Y-137428571D01*
X80292857Y-137428571D01*
X80292857Y-136857142D01*
X81492857Y-135828571D02*
X80864286Y-135828571D01*
X80750000Y-135885714D01*
X80692857Y-136000000D01*
X80692857Y-136228571D01*
X80750000Y-136342857D01*
X81435714Y-135828571D02*
X81492857Y-135942857D01*
X81492857Y-136228571D01*
X81435714Y-136342857D01*
X81321429Y-136400000D01*
X81207143Y-136400000D01*
X81092857Y-136342857D01*
X81035714Y-136228571D01*
X81035714Y-135942857D01*
X80978571Y-135828571D01*
X80692857Y-135428571D02*
X80692857Y-134971428D01*
X80292857Y-135257143D02*
X81321429Y-135257143D01*
X81435714Y-135200000D01*
X81492857Y-135085714D01*
X81492857Y-134971428D01*
X81435714Y-134114286D02*
X81492857Y-134228572D01*
X81492857Y-134457143D01*
X81435714Y-134571429D01*
X81321429Y-134628572D01*
X80864286Y-134628572D01*
X80750000Y-134571429D01*
X80692857Y-134457143D01*
X80692857Y-134228572D01*
X80750000Y-134114286D01*
X80864286Y-134057143D01*
X80978571Y-134057143D01*
X81092857Y-134628572D01*
X81492857Y-133542858D02*
X80692857Y-133542858D01*
X80921429Y-133542858D02*
X80807143Y-133485715D01*
X80750000Y-133428572D01*
X80692857Y-133314286D01*
X80692857Y-133200001D01*
X83592857Y-157399999D02*
X82392857Y-157399999D01*
X82392857Y-156942856D01*
X82450000Y-156828570D01*
X82507143Y-156771427D01*
X82621429Y-156714284D01*
X82792857Y-156714284D01*
X82907143Y-156771427D01*
X82964286Y-156828570D01*
X83021429Y-156942856D01*
X83021429Y-157399999D01*
X83478571Y-155514284D02*
X83535714Y-155571427D01*
X83592857Y-155742856D01*
X83592857Y-155857142D01*
X83535714Y-156028570D01*
X83421429Y-156142856D01*
X83307143Y-156199999D01*
X83078571Y-156257142D01*
X82907143Y-156257142D01*
X82678571Y-156199999D01*
X82564286Y-156142856D01*
X82450000Y-156028570D01*
X82392857Y-155857142D01*
X82392857Y-155742856D01*
X82450000Y-155571427D01*
X82507143Y-155514284D01*
X82964286Y-154599999D02*
X83021429Y-154428570D01*
X83078571Y-154371427D01*
X83192857Y-154314284D01*
X83364286Y-154314284D01*
X83478571Y-154371427D01*
X83535714Y-154428570D01*
X83592857Y-154542856D01*
X83592857Y-154999999D01*
X82392857Y-154999999D01*
X82392857Y-154599999D01*
X82450000Y-154485713D01*
X82507143Y-154428570D01*
X82621429Y-154371427D01*
X82735714Y-154371427D01*
X82850000Y-154428570D01*
X82907143Y-154485713D01*
X82964286Y-154599999D01*
X82964286Y-154999999D01*
X83592857Y-152371427D02*
X82392857Y-152371427D01*
X83535714Y-152371427D02*
X83592857Y-152485713D01*
X83592857Y-152714284D01*
X83535714Y-152828570D01*
X83478571Y-152885713D01*
X83364286Y-152942856D01*
X83021429Y-152942856D01*
X82907143Y-152885713D01*
X82850000Y-152828570D01*
X82792857Y-152714284D01*
X82792857Y-152485713D01*
X82850000Y-152371427D01*
X83535714Y-151342856D02*
X83592857Y-151457142D01*
X83592857Y-151685713D01*
X83535714Y-151799999D01*
X83421429Y-151857142D01*
X82964286Y-151857142D01*
X82850000Y-151799999D01*
X82792857Y-151685713D01*
X82792857Y-151457142D01*
X82850000Y-151342856D01*
X82964286Y-151285713D01*
X83078571Y-151285713D01*
X83192857Y-151857142D01*
X83535714Y-150828571D02*
X83592857Y-150714285D01*
X83592857Y-150485713D01*
X83535714Y-150371428D01*
X83421429Y-150314285D01*
X83364286Y-150314285D01*
X83250000Y-150371428D01*
X83192857Y-150485713D01*
X83192857Y-150657142D01*
X83135714Y-150771428D01*
X83021429Y-150828571D01*
X82964286Y-150828571D01*
X82850000Y-150771428D01*
X82792857Y-150657142D01*
X82792857Y-150485713D01*
X82850000Y-150371428D01*
X83592857Y-149799999D02*
X82792857Y-149799999D01*
X82392857Y-149799999D02*
X82450000Y-149857142D01*
X82507143Y-149799999D01*
X82450000Y-149742856D01*
X82392857Y-149799999D01*
X82507143Y-149799999D01*
X82792857Y-148714284D02*
X83764286Y-148714284D01*
X83878571Y-148771427D01*
X83935714Y-148828570D01*
X83992857Y-148942855D01*
X83992857Y-149114284D01*
X83935714Y-149228570D01*
X83535714Y-148714284D02*
X83592857Y-148828570D01*
X83592857Y-149057141D01*
X83535714Y-149171427D01*
X83478571Y-149228570D01*
X83364286Y-149285713D01*
X83021429Y-149285713D01*
X82907143Y-149228570D01*
X82850000Y-149171427D01*
X82792857Y-149057141D01*
X82792857Y-148828570D01*
X82850000Y-148714284D01*
X82792857Y-148142856D02*
X83592857Y-148142856D01*
X82907143Y-148142856D02*
X82850000Y-148085713D01*
X82792857Y-147971427D01*
X82792857Y-147799999D01*
X82850000Y-147685713D01*
X82964286Y-147628570D01*
X83592857Y-147628570D01*
X83135714Y-146142856D02*
X83135714Y-145228570D01*
X83592857Y-143171427D02*
X83592857Y-143742856D01*
X82392857Y-143742856D01*
X83535714Y-142314284D02*
X83592857Y-142428570D01*
X83592857Y-142657141D01*
X83535714Y-142771427D01*
X83421429Y-142828570D01*
X82964286Y-142828570D01*
X82850000Y-142771427D01*
X82792857Y-142657141D01*
X82792857Y-142428570D01*
X82850000Y-142314284D01*
X82964286Y-142257141D01*
X83078571Y-142257141D01*
X83192857Y-142828570D01*
X83592857Y-141571427D02*
X83535714Y-141685713D01*
X83421429Y-141742856D01*
X82392857Y-141742856D01*
X83592857Y-140599999D02*
X82964286Y-140599999D01*
X82850000Y-140657142D01*
X82792857Y-140771428D01*
X82792857Y-140999999D01*
X82850000Y-141114285D01*
X83535714Y-140599999D02*
X83592857Y-140714285D01*
X83592857Y-140999999D01*
X83535714Y-141114285D01*
X83421429Y-141171428D01*
X83307143Y-141171428D01*
X83192857Y-141114285D01*
X83135714Y-140999999D01*
X83135714Y-140714285D01*
X83078571Y-140599999D01*
X82792857Y-140028571D02*
X83592857Y-140028571D01*
X82907143Y-140028571D02*
X82850000Y-139971428D01*
X82792857Y-139857142D01*
X82792857Y-139685714D01*
X82850000Y-139571428D01*
X82964286Y-139514285D01*
X83592857Y-139514285D01*
X83592857Y-138428571D02*
X82392857Y-138428571D01*
X83535714Y-138428571D02*
X83592857Y-138542857D01*
X83592857Y-138771428D01*
X83535714Y-138885714D01*
X83478571Y-138942857D01*
X83364286Y-139000000D01*
X83021429Y-139000000D01*
X82907143Y-138942857D01*
X82850000Y-138885714D01*
X82792857Y-138771428D01*
X82792857Y-138542857D01*
X82850000Y-138428571D01*
X82964286Y-136542857D02*
X83021429Y-136371428D01*
X83078571Y-136314285D01*
X83192857Y-136257142D01*
X83364286Y-136257142D01*
X83478571Y-136314285D01*
X83535714Y-136371428D01*
X83592857Y-136485714D01*
X83592857Y-136942857D01*
X82392857Y-136942857D01*
X82392857Y-136542857D01*
X82450000Y-136428571D01*
X82507143Y-136371428D01*
X82621429Y-136314285D01*
X82735714Y-136314285D01*
X82850000Y-136371428D01*
X82907143Y-136428571D01*
X82964286Y-136542857D01*
X82964286Y-136942857D01*
X83592857Y-135228571D02*
X82964286Y-135228571D01*
X82850000Y-135285714D01*
X82792857Y-135400000D01*
X82792857Y-135628571D01*
X82850000Y-135742857D01*
X83535714Y-135228571D02*
X83592857Y-135342857D01*
X83592857Y-135628571D01*
X83535714Y-135742857D01*
X83421429Y-135800000D01*
X83307143Y-135800000D01*
X83192857Y-135742857D01*
X83135714Y-135628571D01*
X83135714Y-135342857D01*
X83078571Y-135228571D01*
X82792857Y-134828571D02*
X82792857Y-134371428D01*
X82392857Y-134657143D02*
X83421429Y-134657143D01*
X83535714Y-134600000D01*
X83592857Y-134485714D01*
X83592857Y-134371428D01*
X83535714Y-133514286D02*
X83592857Y-133628572D01*
X83592857Y-133857143D01*
X83535714Y-133971429D01*
X83421429Y-134028572D01*
X82964286Y-134028572D01*
X82850000Y-133971429D01*
X82792857Y-133857143D01*
X82792857Y-133628572D01*
X82850000Y-133514286D01*
X82964286Y-133457143D01*
X83078571Y-133457143D01*
X83192857Y-134028572D01*
X82792857Y-133057143D02*
X83592857Y-132771429D01*
X82792857Y-132485715D02*
X83592857Y-132771429D01*
X83878571Y-132885715D01*
X83935714Y-132942858D01*
X83992857Y-133057143D01*
D12*
X101000000Y-63500000D02*
X97750000Y-63500000D01*
D13*
X126083334Y-147333333D02*
X126035714Y-147285714D01*
X125940476Y-147142857D01*
X125892857Y-147047619D01*
X125845238Y-146904762D01*
X125797619Y-146666667D01*
X125797619Y-146476190D01*
X125845238Y-146238095D01*
X125892857Y-146095238D01*
X125940476Y-146000000D01*
X126035714Y-145857143D01*
X126083334Y-145809524D01*
X126654762Y-145952381D02*
X126845239Y-145952381D01*
X126940477Y-146000000D01*
X127035715Y-146095238D01*
X127083334Y-146285714D01*
X127083334Y-146619048D01*
X127035715Y-146809524D01*
X126940477Y-146904762D01*
X126845239Y-146952381D01*
X126654762Y-146952381D01*
X126559524Y-146904762D01*
X126464286Y-146809524D01*
X126416667Y-146619048D01*
X126416667Y-146285714D01*
X126464286Y-146095238D01*
X126559524Y-146000000D01*
X126654762Y-145952381D01*
X128083334Y-146952381D02*
X127750000Y-146476190D01*
X127511905Y-146952381D02*
X127511905Y-145952381D01*
X127892858Y-145952381D01*
X127988096Y-146000000D01*
X128035715Y-146047619D01*
X128083334Y-146142857D01*
X128083334Y-146285714D01*
X128035715Y-146380952D01*
X127988096Y-146428571D01*
X127892858Y-146476190D01*
X127511905Y-146476190D01*
X128416667Y-147333333D02*
X128464286Y-147285714D01*
X128559524Y-147142857D01*
X128607143Y-147047619D01*
X128654762Y-146904762D01*
X128702381Y-146666667D01*
X128702381Y-146476190D01*
X128654762Y-146238095D01*
X128607143Y-146095238D01*
X128559524Y-146000000D01*
X128464286Y-145857143D01*
X128416667Y-145809524D01*
X106154762Y-147083333D02*
X106107142Y-147035714D01*
X106011904Y-146892857D01*
X105964285Y-146797619D01*
X105916666Y-146654762D01*
X105869047Y-146416667D01*
X105869047Y-146226190D01*
X105916666Y-145988095D01*
X105964285Y-145845238D01*
X106011904Y-145750000D01*
X106107142Y-145607143D01*
X106154762Y-145559524D01*
X106488095Y-146416667D02*
X106964286Y-146416667D01*
X106392857Y-146702381D02*
X106726190Y-145702381D01*
X107059524Y-146702381D01*
X107392857Y-146702381D02*
X107392857Y-145702381D01*
X107964286Y-146702381D01*
X107964286Y-145702381D01*
X108440476Y-146702381D02*
X108440476Y-145702381D01*
X108678571Y-145702381D01*
X108821429Y-145750000D01*
X108916667Y-145845238D01*
X108964286Y-145940476D01*
X109011905Y-146130952D01*
X109011905Y-146273810D01*
X108964286Y-146464286D01*
X108916667Y-146559524D01*
X108821429Y-146654762D01*
X108678571Y-146702381D01*
X108440476Y-146702381D01*
X109345238Y-147083333D02*
X109392857Y-147035714D01*
X109488095Y-146892857D01*
X109535714Y-146797619D01*
X109583333Y-146654762D01*
X109630952Y-146416667D01*
X109630952Y-146226190D01*
X109583333Y-145988095D01*
X109535714Y-145845238D01*
X109488095Y-145750000D01*
X109392857Y-145607143D01*
X109345238Y-145559524D01*
X86928572Y-147083333D02*
X86880952Y-147035714D01*
X86785714Y-146892857D01*
X86738095Y-146797619D01*
X86690476Y-146654762D01*
X86642857Y-146416667D01*
X86642857Y-146226190D01*
X86690476Y-145988095D01*
X86738095Y-145845238D01*
X86785714Y-145750000D01*
X86880952Y-145607143D01*
X86928572Y-145559524D01*
X87309524Y-146702381D02*
X87309524Y-145702381D01*
X87880953Y-146702381D01*
X87880953Y-145702381D01*
X88547619Y-145702381D02*
X88738096Y-145702381D01*
X88833334Y-145750000D01*
X88928572Y-145845238D01*
X88976191Y-146035714D01*
X88976191Y-146369048D01*
X88928572Y-146559524D01*
X88833334Y-146654762D01*
X88738096Y-146702381D01*
X88547619Y-146702381D01*
X88452381Y-146654762D01*
X88357143Y-146559524D01*
X88309524Y-146369048D01*
X88309524Y-146035714D01*
X88357143Y-145845238D01*
X88452381Y-145750000D01*
X88547619Y-145702381D01*
X89261905Y-145702381D02*
X89833334Y-145702381D01*
X89547619Y-146702381D02*
X89547619Y-145702381D01*
X90071429Y-147083333D02*
X90119048Y-147035714D01*
X90214286Y-146892857D01*
X90261905Y-146797619D01*
X90309524Y-146654762D01*
X90357143Y-146416667D01*
X90357143Y-146226190D01*
X90309524Y-145988095D01*
X90261905Y-145845238D01*
X90214286Y-145750000D01*
X90119048Y-145607143D01*
X90071429Y-145559524D01*
X128500000Y-74000000D02*
X80500000Y-74000000D01*
X128500000Y-89500000D02*
X128500000Y-74000000D01*
X80500000Y-89500000D02*
X128500000Y-89500000D01*
X80500000Y-74000000D02*
X80500000Y-89500000D01*
X124500000Y-90000000D02*
X80500000Y-90000000D01*
X124500000Y-105500000D02*
X124500000Y-90000000D01*
X80500000Y-105500000D02*
X124500000Y-105500000D01*
X80500000Y-90000000D02*
X80500000Y-105500000D01*
X80500000Y-122000000D02*
X80500000Y-106500000D01*
X123000000Y-122000000D02*
X80500000Y-122000000D01*
X123000000Y-106500000D02*
X123000000Y-122000000D01*
X80500000Y-106500000D02*
X123000000Y-106500000D01*
D11*
X92357143Y-65750000D02*
X92214286Y-65678571D01*
X92000000Y-65678571D01*
X91785715Y-65750000D01*
X91642857Y-65892857D01*
X91571429Y-66035714D01*
X91500000Y-66321429D01*
X91500000Y-66535714D01*
X91571429Y-66821429D01*
X91642857Y-66964286D01*
X91785715Y-67107143D01*
X92000000Y-67178571D01*
X92142857Y-67178571D01*
X92357143Y-67107143D01*
X92428572Y-67035714D01*
X92428572Y-66535714D01*
X92142857Y-66535714D01*
X93071429Y-67178571D02*
X93071429Y-65678571D01*
X93928572Y-67178571D01*
X93928572Y-65678571D01*
X94642858Y-67178571D02*
X94642858Y-65678571D01*
X95000001Y-65678571D01*
X95214286Y-65750000D01*
X95357144Y-65892857D01*
X95428572Y-66035714D01*
X95500001Y-66321429D01*
X95500001Y-66535714D01*
X95428572Y-66821429D01*
X95357144Y-66964286D01*
X95214286Y-67107143D01*
X95000001Y-67178571D01*
X94642858Y-67178571D01*
X120142858Y-66107143D02*
X121285715Y-66107143D01*
X120714286Y-66678571D02*
X120714286Y-65535714D01*
X122714287Y-65178571D02*
X122000001Y-65178571D01*
X121928572Y-65892857D01*
X122000001Y-65821429D01*
X122142858Y-65750000D01*
X122500001Y-65750000D01*
X122642858Y-65821429D01*
X122714287Y-65892857D01*
X122785715Y-66035714D01*
X122785715Y-66392857D01*
X122714287Y-66535714D01*
X122642858Y-66607143D01*
X122500001Y-66678571D01*
X122142858Y-66678571D01*
X122000001Y-66607143D01*
X121928572Y-66535714D01*
X123285715Y-65678571D02*
X123642858Y-66678571D01*
X124000000Y-65678571D01*
D13*
X110500000Y-151500000D02*
X110500000Y-154000000D01*
X123000000Y-151500000D02*
X123000000Y-154000000D01*
X110500000Y-151500000D02*
X123000000Y-151500000D01*
D11*
X113964285Y-149178571D02*
X114249999Y-149178571D01*
X114392857Y-149250000D01*
X114535714Y-149392857D01*
X114607142Y-149678571D01*
X114607142Y-150178571D01*
X114535714Y-150464286D01*
X114392857Y-150607143D01*
X114249999Y-150678571D01*
X113964285Y-150678571D01*
X113821428Y-150607143D01*
X113678571Y-150464286D01*
X113607142Y-150178571D01*
X113607142Y-149678571D01*
X113678571Y-149392857D01*
X113821428Y-149250000D01*
X113964285Y-149178571D01*
X115892857Y-149678571D02*
X115892857Y-150678571D01*
X115250000Y-149678571D02*
X115250000Y-150464286D01*
X115321428Y-150607143D01*
X115464286Y-150678571D01*
X115678571Y-150678571D01*
X115821428Y-150607143D01*
X115892857Y-150535714D01*
X116392857Y-149678571D02*
X116964286Y-149678571D01*
X116607143Y-149178571D02*
X116607143Y-150464286D01*
X116678571Y-150607143D01*
X116821429Y-150678571D01*
X116964286Y-150678571D01*
X117464286Y-149678571D02*
X117464286Y-151178571D01*
X117464286Y-149750000D02*
X117607143Y-149678571D01*
X117892857Y-149678571D01*
X118035714Y-149750000D01*
X118107143Y-149821429D01*
X118178572Y-149964286D01*
X118178572Y-150392857D01*
X118107143Y-150535714D01*
X118035714Y-150607143D01*
X117892857Y-150678571D01*
X117607143Y-150678571D01*
X117464286Y-150607143D01*
X119464286Y-149678571D02*
X119464286Y-150678571D01*
X118821429Y-149678571D02*
X118821429Y-150464286D01*
X118892857Y-150607143D01*
X119035715Y-150678571D01*
X119250000Y-150678571D01*
X119392857Y-150607143D01*
X119464286Y-150535714D01*
X119964286Y-149678571D02*
X120535715Y-149678571D01*
X120178572Y-149178571D02*
X120178572Y-150464286D01*
X120250000Y-150607143D01*
X120392858Y-150678571D01*
X120535715Y-150678571D01*
D13*
X101000000Y-64000000D02*
X102000000Y-63500000D01*
X101000000Y-63000000D02*
X101000000Y-64000000D01*
X102000000Y-63500000D02*
X101000000Y-63000000D01*
X101214285Y-66752381D02*
X101214285Y-65752381D01*
X101214285Y-66228571D02*
X101785714Y-66228571D01*
X101785714Y-66752381D02*
X101785714Y-65752381D01*
X102690476Y-66752381D02*
X102690476Y-66228571D01*
X102642857Y-66133333D01*
X102547619Y-66085714D01*
X102357142Y-66085714D01*
X102261904Y-66133333D01*
X102690476Y-66704762D02*
X102595238Y-66752381D01*
X102357142Y-66752381D01*
X102261904Y-66704762D01*
X102214285Y-66609524D01*
X102214285Y-66514286D01*
X102261904Y-66419048D01*
X102357142Y-66371429D01*
X102595238Y-66371429D01*
X102690476Y-66323810D01*
X103309523Y-66752381D02*
X103214285Y-66704762D01*
X103166666Y-66609524D01*
X103166666Y-65752381D01*
X103547619Y-66085714D02*
X103928571Y-66085714D01*
X103690476Y-65752381D02*
X103690476Y-66609524D01*
X103738095Y-66704762D01*
X103833333Y-66752381D01*
X103928571Y-66752381D01*
X104261905Y-66371429D02*
X105023810Y-66371429D01*
X105642857Y-66752381D02*
X105547619Y-66704762D01*
X105500000Y-66609524D01*
X105500000Y-65752381D01*
X106023810Y-66752381D02*
X106023810Y-66085714D01*
X106023810Y-65752381D02*
X105976191Y-65800000D01*
X106023810Y-65847619D01*
X106071429Y-65800000D01*
X106023810Y-65752381D01*
X106023810Y-65847619D01*
X106500000Y-66085714D02*
X106500000Y-66752381D01*
X106500000Y-66180952D02*
X106547619Y-66133333D01*
X106642857Y-66085714D01*
X106785715Y-66085714D01*
X106880953Y-66133333D01*
X106928572Y-66228571D01*
X106928572Y-66752381D01*
X107785715Y-66704762D02*
X107690477Y-66752381D01*
X107500000Y-66752381D01*
X107404762Y-66704762D01*
X107357143Y-66609524D01*
X107357143Y-66228571D01*
X107404762Y-66133333D01*
X107500000Y-66085714D01*
X107690477Y-66085714D01*
X107785715Y-66133333D01*
X107833334Y-66228571D01*
X107833334Y-66323810D01*
X107357143Y-66419048D01*
X99809524Y-68833333D02*
X99761904Y-68785714D01*
X99666666Y-68642857D01*
X99619047Y-68547619D01*
X99571428Y-68404762D01*
X99523809Y-68166667D01*
X99523809Y-67976190D01*
X99571428Y-67738095D01*
X99619047Y-67595238D01*
X99666666Y-67500000D01*
X99761904Y-67357143D01*
X99809524Y-67309524D01*
X100047619Y-67785714D02*
X100428571Y-67785714D01*
X100190476Y-67452381D02*
X100190476Y-68309524D01*
X100238095Y-68404762D01*
X100333333Y-68452381D01*
X100428571Y-68452381D01*
X100761905Y-68452381D02*
X100761905Y-67785714D01*
X100761905Y-67452381D02*
X100714286Y-67500000D01*
X100761905Y-67547619D01*
X100809524Y-67500000D01*
X100761905Y-67452381D01*
X100761905Y-67547619D01*
X101619048Y-68404762D02*
X101523810Y-68452381D01*
X101333333Y-68452381D01*
X101238095Y-68404762D01*
X101190476Y-68309524D01*
X101190476Y-67928571D01*
X101238095Y-67833333D01*
X101333333Y-67785714D01*
X101523810Y-67785714D01*
X101619048Y-67833333D01*
X101666667Y-67928571D01*
X101666667Y-68023810D01*
X101190476Y-68119048D01*
X102714286Y-67785714D02*
X103095238Y-67785714D01*
X102857143Y-67452381D02*
X102857143Y-68309524D01*
X102904762Y-68404762D01*
X103000000Y-68452381D01*
X103095238Y-68452381D01*
X103571429Y-68452381D02*
X103476191Y-68404762D01*
X103428572Y-68357143D01*
X103380953Y-68261905D01*
X103380953Y-67976190D01*
X103428572Y-67880952D01*
X103476191Y-67833333D01*
X103571429Y-67785714D01*
X103714287Y-67785714D01*
X103809525Y-67833333D01*
X103857144Y-67880952D01*
X103904763Y-67976190D01*
X103904763Y-68261905D01*
X103857144Y-68357143D01*
X103809525Y-68404762D01*
X103714287Y-68452381D01*
X103571429Y-68452381D01*
X105619049Y-67500000D02*
X105523811Y-67452381D01*
X105380954Y-67452381D01*
X105238096Y-67500000D01*
X105142858Y-67595238D01*
X105095239Y-67690476D01*
X105047620Y-67880952D01*
X105047620Y-68023810D01*
X105095239Y-68214286D01*
X105142858Y-68309524D01*
X105238096Y-68404762D01*
X105380954Y-68452381D01*
X105476192Y-68452381D01*
X105619049Y-68404762D01*
X105666668Y-68357143D01*
X105666668Y-68023810D01*
X105476192Y-68023810D01*
X106095239Y-68452381D02*
X106095239Y-67452381D01*
X106666668Y-68452381D01*
X106666668Y-67452381D01*
X107142858Y-68452381D02*
X107142858Y-67452381D01*
X107380953Y-67452381D01*
X107523811Y-67500000D01*
X107619049Y-67595238D01*
X107666668Y-67690476D01*
X107714287Y-67880952D01*
X107714287Y-68023810D01*
X107666668Y-68214286D01*
X107619049Y-68309524D01*
X107523811Y-68404762D01*
X107380953Y-68452381D01*
X107142858Y-68452381D01*
X108904763Y-68452381D02*
X108904763Y-67785714D01*
X108904763Y-67452381D02*
X108857144Y-67500000D01*
X108904763Y-67547619D01*
X108952382Y-67500000D01*
X108904763Y-67452381D01*
X108904763Y-67547619D01*
X109238096Y-67785714D02*
X109619048Y-67785714D01*
X109380953Y-68452381D02*
X109380953Y-67595238D01*
X109428572Y-67500000D01*
X109523810Y-67452381D01*
X109619048Y-67452381D01*
X100476190Y-69485714D02*
X100476190Y-70152381D01*
X100476190Y-69580952D02*
X100523809Y-69533333D01*
X100619047Y-69485714D01*
X100761905Y-69485714D01*
X100857143Y-69533333D01*
X100904762Y-69628571D01*
X100904762Y-70152381D01*
X101523809Y-70152381D02*
X101428571Y-70104762D01*
X101380952Y-70057143D01*
X101333333Y-69961905D01*
X101333333Y-69676190D01*
X101380952Y-69580952D01*
X101428571Y-69533333D01*
X101523809Y-69485714D01*
X101666667Y-69485714D01*
X101761905Y-69533333D01*
X101809524Y-69580952D01*
X101857143Y-69676190D01*
X101857143Y-69961905D01*
X101809524Y-70057143D01*
X101761905Y-70104762D01*
X101666667Y-70152381D01*
X101523809Y-70152381D01*
X102142857Y-69485714D02*
X102523809Y-69485714D01*
X102285714Y-69152381D02*
X102285714Y-70009524D01*
X102333333Y-70104762D01*
X102428571Y-70152381D01*
X102523809Y-70152381D01*
X103619048Y-70152381D02*
X103619048Y-69485714D01*
X103619048Y-69152381D02*
X103571429Y-69200000D01*
X103619048Y-69247619D01*
X103666667Y-69200000D01*
X103619048Y-69152381D01*
X103619048Y-69247619D01*
X104095238Y-69485714D02*
X104095238Y-70152381D01*
X104095238Y-69580952D02*
X104142857Y-69533333D01*
X104238095Y-69485714D01*
X104380953Y-69485714D01*
X104476191Y-69533333D01*
X104523810Y-69628571D01*
X104523810Y-70152381D01*
X106190477Y-69485714D02*
X106190477Y-70152381D01*
X105761905Y-69485714D02*
X105761905Y-70009524D01*
X105809524Y-70104762D01*
X105904762Y-70152381D01*
X106047620Y-70152381D01*
X106142858Y-70104762D01*
X106190477Y-70057143D01*
X106619048Y-70104762D02*
X106714286Y-70152381D01*
X106904762Y-70152381D01*
X107000001Y-70104762D01*
X107047620Y-70009524D01*
X107047620Y-69961905D01*
X107000001Y-69866667D01*
X106904762Y-69819048D01*
X106761905Y-69819048D01*
X106666667Y-69771429D01*
X106619048Y-69676190D01*
X106619048Y-69628571D01*
X106666667Y-69533333D01*
X106761905Y-69485714D01*
X106904762Y-69485714D01*
X107000001Y-69533333D01*
X107857144Y-70104762D02*
X107761906Y-70152381D01*
X107571429Y-70152381D01*
X107476191Y-70104762D01*
X107428572Y-70009524D01*
X107428572Y-69628571D01*
X107476191Y-69533333D01*
X107571429Y-69485714D01*
X107761906Y-69485714D01*
X107857144Y-69533333D01*
X107904763Y-69628571D01*
X107904763Y-69723810D01*
X107428572Y-69819048D01*
X108238096Y-70533333D02*
X108285715Y-70485714D01*
X108380953Y-70342857D01*
X108428572Y-70247619D01*
X108476191Y-70104762D01*
X108523810Y-69866667D01*
X108523810Y-69676190D01*
X108476191Y-69438095D01*
X108428572Y-69295238D01*
X108380953Y-69200000D01*
X108285715Y-69057143D01*
X108238096Y-69009524D01*
D14*
X127146863Y-79518600D02*
G75*
G03X122352564Y-79520000I-2396863J-981400D01*
G01*
X127146863Y-81481400D02*
G75*
G02X122352564Y-81480000I-2396863J981400D01*
G01*
X127146863Y-81481400D02*
G75*
G03X127147436Y-79520000I-2396863J981400D01*
G01*
X124750000Y-77950000D02*
X124750000Y-83050000D01*
X124790000Y-77950000D02*
X124790000Y-83050000D01*
X124830000Y-77951000D02*
X124830000Y-83049000D01*
X124870000Y-77952000D02*
X124870000Y-83048000D01*
X124910000Y-77954000D02*
X124910000Y-83046000D01*
X124950000Y-77957000D02*
X124950000Y-83043000D01*
X124990000Y-77961000D02*
X124990000Y-83039000D01*
X125030000Y-77965000D02*
X125030000Y-79520000D01*
X125030000Y-81480000D02*
X125030000Y-83035000D01*
X125070000Y-77969000D02*
X125070000Y-79520000D01*
X125070000Y-81480000D02*
X125070000Y-83031000D01*
X125110000Y-77975000D02*
X125110000Y-79520000D01*
X125110000Y-81480000D02*
X125110000Y-83025000D01*
X125150000Y-77981000D02*
X125150000Y-79520000D01*
X125150000Y-81480000D02*
X125150000Y-83019000D01*
X125190000Y-77987000D02*
X125190000Y-79520000D01*
X125190000Y-81480000D02*
X125190000Y-83013000D01*
X125230000Y-77994000D02*
X125230000Y-79520000D01*
X125230000Y-81480000D02*
X125230000Y-83006000D01*
X125270000Y-78002000D02*
X125270000Y-79520000D01*
X125270000Y-81480000D02*
X125270000Y-82998000D01*
X125310000Y-78011000D02*
X125310000Y-79520000D01*
X125310000Y-81480000D02*
X125310000Y-82989000D01*
X125350000Y-78020000D02*
X125350000Y-79520000D01*
X125350000Y-81480000D02*
X125350000Y-82980000D01*
X125390000Y-78030000D02*
X125390000Y-79520000D01*
X125390000Y-81480000D02*
X125390000Y-82970000D01*
X125430000Y-78040000D02*
X125430000Y-79520000D01*
X125430000Y-81480000D02*
X125430000Y-82960000D01*
X125471000Y-78052000D02*
X125471000Y-79520000D01*
X125471000Y-81480000D02*
X125471000Y-82948000D01*
X125511000Y-78064000D02*
X125511000Y-79520000D01*
X125511000Y-81480000D02*
X125511000Y-82936000D01*
X125551000Y-78076000D02*
X125551000Y-79520000D01*
X125551000Y-81480000D02*
X125551000Y-82924000D01*
X125591000Y-78090000D02*
X125591000Y-79520000D01*
X125591000Y-81480000D02*
X125591000Y-82910000D01*
X125631000Y-78104000D02*
X125631000Y-79520000D01*
X125631000Y-81480000D02*
X125631000Y-82896000D01*
X125671000Y-78118000D02*
X125671000Y-79520000D01*
X125671000Y-81480000D02*
X125671000Y-82882000D01*
X125711000Y-78134000D02*
X125711000Y-79520000D01*
X125711000Y-81480000D02*
X125711000Y-82866000D01*
X125751000Y-78150000D02*
X125751000Y-79520000D01*
X125751000Y-81480000D02*
X125751000Y-82850000D01*
X125791000Y-78167000D02*
X125791000Y-79520000D01*
X125791000Y-81480000D02*
X125791000Y-82833000D01*
X125831000Y-78185000D02*
X125831000Y-79520000D01*
X125831000Y-81480000D02*
X125831000Y-82815000D01*
X125871000Y-78204000D02*
X125871000Y-79520000D01*
X125871000Y-81480000D02*
X125871000Y-82796000D01*
X125911000Y-78224000D02*
X125911000Y-79520000D01*
X125911000Y-81480000D02*
X125911000Y-82776000D01*
X125951000Y-78244000D02*
X125951000Y-79520000D01*
X125951000Y-81480000D02*
X125951000Y-82756000D01*
X125991000Y-78266000D02*
X125991000Y-79520000D01*
X125991000Y-81480000D02*
X125991000Y-82734000D01*
X126031000Y-78288000D02*
X126031000Y-79520000D01*
X126031000Y-81480000D02*
X126031000Y-82712000D01*
X126071000Y-78311000D02*
X126071000Y-79520000D01*
X126071000Y-81480000D02*
X126071000Y-82689000D01*
X126111000Y-78335000D02*
X126111000Y-79520000D01*
X126111000Y-81480000D02*
X126111000Y-82665000D01*
X126151000Y-78360000D02*
X126151000Y-79520000D01*
X126151000Y-81480000D02*
X126151000Y-82640000D01*
X126191000Y-78387000D02*
X126191000Y-79520000D01*
X126191000Y-81480000D02*
X126191000Y-82613000D01*
X126231000Y-78414000D02*
X126231000Y-79520000D01*
X126231000Y-81480000D02*
X126231000Y-82586000D01*
X126271000Y-78442000D02*
X126271000Y-79520000D01*
X126271000Y-81480000D02*
X126271000Y-82558000D01*
X126311000Y-78472000D02*
X126311000Y-79520000D01*
X126311000Y-81480000D02*
X126311000Y-82528000D01*
X126351000Y-78503000D02*
X126351000Y-79520000D01*
X126351000Y-81480000D02*
X126351000Y-82497000D01*
X126391000Y-78535000D02*
X126391000Y-79520000D01*
X126391000Y-81480000D02*
X126391000Y-82465000D01*
X126431000Y-78568000D02*
X126431000Y-79520000D01*
X126431000Y-81480000D02*
X126431000Y-82432000D01*
X126471000Y-78603000D02*
X126471000Y-79520000D01*
X126471000Y-81480000D02*
X126471000Y-82397000D01*
X126511000Y-78639000D02*
X126511000Y-79520000D01*
X126511000Y-81480000D02*
X126511000Y-82361000D01*
X126551000Y-78677000D02*
X126551000Y-79520000D01*
X126551000Y-81480000D02*
X126551000Y-82323000D01*
X126591000Y-78717000D02*
X126591000Y-79520000D01*
X126591000Y-81480000D02*
X126591000Y-82283000D01*
X126631000Y-78758000D02*
X126631000Y-79520000D01*
X126631000Y-81480000D02*
X126631000Y-82242000D01*
X126671000Y-78801000D02*
X126671000Y-79520000D01*
X126671000Y-81480000D02*
X126671000Y-82199000D01*
X126711000Y-78846000D02*
X126711000Y-79520000D01*
X126711000Y-81480000D02*
X126711000Y-82154000D01*
X126751000Y-78894000D02*
X126751000Y-79520000D01*
X126751000Y-81480000D02*
X126751000Y-82106000D01*
X126791000Y-78944000D02*
X126791000Y-79520000D01*
X126791000Y-81480000D02*
X126791000Y-82056000D01*
X126831000Y-78996000D02*
X126831000Y-79520000D01*
X126831000Y-81480000D02*
X126831000Y-82004000D01*
X126871000Y-79052000D02*
X126871000Y-79520000D01*
X126871000Y-81480000D02*
X126871000Y-81948000D01*
X126911000Y-79110000D02*
X126911000Y-79520000D01*
X126911000Y-81480000D02*
X126911000Y-81890000D01*
X126951000Y-79173000D02*
X126951000Y-79520000D01*
X126951000Y-81480000D02*
X126951000Y-81827000D01*
X126991000Y-79239000D02*
X126991000Y-81761000D01*
X127031000Y-79311000D02*
X127031000Y-81689000D01*
X127071000Y-79388000D02*
X127071000Y-81612000D01*
X127111000Y-79472000D02*
X127111000Y-81528000D01*
X127151000Y-79566000D02*
X127151000Y-81434000D01*
X127191000Y-79671000D02*
X127191000Y-81329000D01*
X127231000Y-79793000D02*
X127231000Y-81207000D01*
X127271000Y-79941000D02*
X127271000Y-81059000D01*
X127311000Y-80146000D02*
X127311000Y-80854000D01*
X121300000Y-80500000D02*
X122500000Y-80500000D01*
X121900000Y-79850000D02*
X121900000Y-81150000D01*
X113560000Y-86810000D02*
X107440000Y-86810000D01*
X113560000Y-84190000D02*
X107440000Y-84190000D01*
X113560000Y-86810000D02*
X113560000Y-86496000D01*
X113560000Y-84504000D02*
X113560000Y-84190000D01*
X107440000Y-86810000D02*
X107440000Y-86496000D01*
X107440000Y-84504000D02*
X107440000Y-84190000D01*
X107440000Y-100690000D02*
X113560000Y-100690000D01*
X107440000Y-103310000D02*
X113560000Y-103310000D01*
X107440000Y-100690000D02*
X107440000Y-101004000D01*
X107440000Y-102996000D02*
X107440000Y-103310000D01*
X113560000Y-100690000D02*
X113560000Y-101004000D01*
X113560000Y-102996000D02*
X113560000Y-103310000D01*
X114560000Y-119810000D02*
X108440000Y-119810000D01*
X114560000Y-117190000D02*
X108440000Y-117190000D01*
X114560000Y-119810000D02*
X114560000Y-119496000D01*
X114560000Y-117504000D02*
X114560000Y-117190000D01*
X108440000Y-119810000D02*
X108440000Y-119496000D01*
X108440000Y-117504000D02*
X108440000Y-117190000D01*
X86720000Y-84000462D02*
G75*
G03X81170000Y-82455170I-2990000J462D01*
G01*
X86720000Y-83999538D02*
G75*
G02X81170000Y-85544830I-2990000J-462D01*
G01*
X86230000Y-84000000D02*
G75*
G03X86230000Y-84000000I-2500000J0D01*
G01*
X81170000Y-82455000D02*
X81170000Y-85545000D01*
X86720000Y-101000462D02*
G75*
G03X81170000Y-99455170I-2990000J462D01*
G01*
X86720000Y-100999538D02*
G75*
G02X81170000Y-102544830I-2990000J-462D01*
G01*
X86230000Y-101000000D02*
G75*
G03X86230000Y-101000000I-2500000J0D01*
G01*
X81170000Y-99455000D02*
X81170000Y-102545000D01*
X86720000Y-116500462D02*
G75*
G03X81170000Y-114955170I-2990000J462D01*
G01*
X86720000Y-116499538D02*
G75*
G02X81170000Y-118044830I-2990000J-462D01*
G01*
X86230000Y-116500000D02*
G75*
G03X86230000Y-116500000I-2500000J0D01*
G01*
X81170000Y-114955000D02*
X81170000Y-118045000D01*
X98220000Y-155000462D02*
G75*
G03X92670000Y-153455170I-2990000J462D01*
G01*
X98220000Y-154999538D02*
G75*
G02X92670000Y-156544830I-2990000J-462D01*
G01*
X97730000Y-155000000D02*
G75*
G03X97730000Y-155000000I-2500000J0D01*
G01*
X92670000Y-153455000D02*
X92670000Y-156545000D01*
X115786000Y-156000000D02*
G75*
G03X115786000Y-156000000I-2286000J0D01*
G01*
X122303219Y-156000000D02*
G75*
G03X122303219Y-156000000I-803219J0D01*
G01*
X90810000Y-77870000D02*
X88190000Y-77870000D01*
X88190000Y-77870000D02*
X88190000Y-84290000D01*
X88190000Y-84290000D02*
X90810000Y-84290000D01*
X90810000Y-84290000D02*
X90810000Y-77870000D01*
X89500000Y-76980000D02*
X89500000Y-77870000D01*
X89500000Y-85180000D02*
X89500000Y-84290000D01*
X111710000Y-76190000D02*
X111710000Y-78810000D01*
X111710000Y-78810000D02*
X118130000Y-78810000D01*
X118130000Y-78810000D02*
X118130000Y-76190000D01*
X118130000Y-76190000D02*
X111710000Y-76190000D01*
X110820000Y-77500000D02*
X111710000Y-77500000D01*
X119020000Y-77500000D02*
X118130000Y-77500000D01*
X118130000Y-82310000D02*
X118130000Y-79690000D01*
X118130000Y-79690000D02*
X111710000Y-79690000D01*
X111710000Y-79690000D02*
X111710000Y-82310000D01*
X111710000Y-82310000D02*
X118130000Y-82310000D01*
X119020000Y-81000000D02*
X118130000Y-81000000D01*
X110820000Y-81000000D02*
X111710000Y-81000000D01*
X112370000Y-92690000D02*
X112370000Y-95310000D01*
X112370000Y-95310000D02*
X118790000Y-95310000D01*
X118790000Y-95310000D02*
X118790000Y-92690000D01*
X118790000Y-92690000D02*
X112370000Y-92690000D01*
X111480000Y-94000000D02*
X112370000Y-94000000D01*
X119680000Y-94000000D02*
X118790000Y-94000000D01*
X90810000Y-94710000D02*
X88190000Y-94710000D01*
X88190000Y-94710000D02*
X88190000Y-101130000D01*
X88190000Y-101130000D02*
X90810000Y-101130000D01*
X90810000Y-101130000D02*
X90810000Y-94710000D01*
X89500000Y-93820000D02*
X89500000Y-94710000D01*
X89500000Y-102020000D02*
X89500000Y-101130000D01*
X118790000Y-99310000D02*
X118790000Y-96690000D01*
X118790000Y-96690000D02*
X112370000Y-96690000D01*
X112370000Y-96690000D02*
X112370000Y-99310000D01*
X112370000Y-99310000D02*
X118790000Y-99310000D01*
X119680000Y-98000000D02*
X118790000Y-98000000D01*
X111480000Y-98000000D02*
X112370000Y-98000000D01*
X119040000Y-111310000D02*
X119040000Y-108690000D01*
X119040000Y-108690000D02*
X112620000Y-108690000D01*
X112620000Y-108690000D02*
X112620000Y-111310000D01*
X112620000Y-111310000D02*
X119040000Y-111310000D01*
X119930000Y-110000000D02*
X119040000Y-110000000D01*
X111730000Y-110000000D02*
X112620000Y-110000000D01*
X112620000Y-112440000D02*
X112620000Y-115060000D01*
X112620000Y-115060000D02*
X119040000Y-115060000D01*
X119040000Y-115060000D02*
X119040000Y-112440000D01*
X119040000Y-112440000D02*
X112620000Y-112440000D01*
X111730000Y-113750000D02*
X112620000Y-113750000D01*
X119930000Y-113750000D02*
X119040000Y-113750000D01*
X90810000Y-110210000D02*
X88190000Y-110210000D01*
X88190000Y-110210000D02*
X88190000Y-116630000D01*
X88190000Y-116630000D02*
X90810000Y-116630000D01*
X90810000Y-116630000D02*
X90810000Y-110210000D01*
X89500000Y-109320000D02*
X89500000Y-110210000D01*
X89500000Y-117520000D02*
X89500000Y-116630000D01*
X91870000Y-147690000D02*
X91870000Y-150310000D01*
X91870000Y-150310000D02*
X98290000Y-150310000D01*
X98290000Y-150310000D02*
X98290000Y-147690000D01*
X98290000Y-147690000D02*
X91870000Y-147690000D01*
X90980000Y-149000000D02*
X91870000Y-149000000D01*
X99180000Y-149000000D02*
X98290000Y-149000000D01*
X132000000Y-92500000D02*
X127500000Y-92500000D01*
X133250000Y-96500000D02*
X133250000Y-95000000D01*
X127500000Y-99000000D02*
X132000000Y-99000000D01*
X126250000Y-95000000D02*
X126250000Y-96500000D01*
X99190000Y-76070000D02*
G75*
G02X97190000Y-76070000I-1000000J0D01*
G01*
X97190000Y-76070000D02*
X95420000Y-76070000D01*
X95420000Y-76070000D02*
X95420000Y-86470000D01*
X95420000Y-86470000D02*
X100960000Y-86470000D01*
X100960000Y-86470000D02*
X100960000Y-76070000D01*
X100960000Y-76070000D02*
X99190000Y-76070000D01*
X92990000Y-76070000D02*
X92990000Y-86470000D01*
X92990000Y-86470000D02*
X103390000Y-86470000D01*
X103390000Y-86470000D02*
X103390000Y-76070000D01*
X103390000Y-76070000D02*
X92990000Y-76070000D01*
X99190000Y-92610000D02*
G75*
G02X97190000Y-92610000I-1000000J0D01*
G01*
X97190000Y-92610000D02*
X95420000Y-92610000D01*
X95420000Y-92610000D02*
X95420000Y-103010000D01*
X95420000Y-103010000D02*
X100960000Y-103010000D01*
X100960000Y-103010000D02*
X100960000Y-92610000D01*
X100960000Y-92610000D02*
X99190000Y-92610000D01*
X92990000Y-92610000D02*
X92990000Y-103010000D01*
X92990000Y-103010000D02*
X103390000Y-103010000D01*
X103390000Y-103010000D02*
X103390000Y-92610000D01*
X103390000Y-92610000D02*
X92990000Y-92610000D01*
X99190000Y-108530000D02*
G75*
G02X97190000Y-108530000I-1000000J0D01*
G01*
X97190000Y-108530000D02*
X95420000Y-108530000D01*
X95420000Y-108530000D02*
X95420000Y-118930000D01*
X95420000Y-118930000D02*
X100960000Y-118930000D01*
X100960000Y-118930000D02*
X100960000Y-108530000D01*
X100960000Y-108530000D02*
X99190000Y-108530000D01*
X92990000Y-108530000D02*
X92990000Y-118930000D01*
X92990000Y-118930000D02*
X103390000Y-118930000D01*
X103390000Y-118930000D02*
X103390000Y-108530000D01*
X103390000Y-108530000D02*
X92990000Y-108530000D01*
X89560000Y-125740000D02*
G75*
G02X87560000Y-125740000I-1000000J0D01*
G01*
X87560000Y-125740000D02*
X85790000Y-125740000D01*
X85790000Y-125740000D02*
X85790000Y-143760000D01*
X85790000Y-143760000D02*
X91330000Y-143760000D01*
X91330000Y-143760000D02*
X91330000Y-125740000D01*
X91330000Y-125740000D02*
X89560000Y-125740000D01*
X83360000Y-125740000D02*
X83360000Y-143760000D01*
X83360000Y-143760000D02*
X93760000Y-143760000D01*
X93760000Y-143760000D02*
X93760000Y-125740000D01*
X93760000Y-125740000D02*
X83360000Y-125740000D01*
X108940000Y-125740000D02*
G75*
G02X106940000Y-125740000I-1000000J0D01*
G01*
X106940000Y-125740000D02*
X105170000Y-125740000D01*
X105170000Y-125740000D02*
X105170000Y-143760000D01*
X105170000Y-143760000D02*
X110710000Y-143760000D01*
X110710000Y-143760000D02*
X110710000Y-125740000D01*
X110710000Y-125740000D02*
X108940000Y-125740000D01*
X102740000Y-125740000D02*
X102740000Y-143760000D01*
X102740000Y-143760000D02*
X113140000Y-143760000D01*
X113140000Y-143760000D02*
X113140000Y-125740000D01*
X113140000Y-125740000D02*
X102740000Y-125740000D01*
X128310000Y-125950000D02*
G75*
G02X126310000Y-125950000I-1000000J0D01*
G01*
X126310000Y-125950000D02*
X124540000Y-125950000D01*
X124540000Y-125950000D02*
X124540000Y-143970000D01*
X124540000Y-143970000D02*
X130080000Y-143970000D01*
X130080000Y-143970000D02*
X130080000Y-125950000D01*
X130080000Y-125950000D02*
X128310000Y-125950000D01*
X122110000Y-125950000D02*
X122110000Y-143970000D01*
X122110000Y-143970000D02*
X132510000Y-143970000D01*
X132510000Y-143970000D02*
X132510000Y-125950000D01*
X132510000Y-125950000D02*
X122110000Y-125950000D01*
X123560000Y-103310000D02*
X117440000Y-103310000D01*
X123560000Y-100690000D02*
X117440000Y-100690000D01*
X123560000Y-103310000D02*
X123560000Y-102996000D01*
X123560000Y-101004000D02*
X123560000Y-100690000D01*
X117440000Y-103310000D02*
X117440000Y-102996000D01*
X117440000Y-101004000D02*
X117440000Y-100690000D01*
D12*
X124583334Y-77297143D02*
X124535715Y-77344762D01*
X124392858Y-77392381D01*
X124297620Y-77392381D01*
X124154762Y-77344762D01*
X124059524Y-77249524D01*
X124011905Y-77154286D01*
X123964286Y-76963810D01*
X123964286Y-76820952D01*
X124011905Y-76630476D01*
X124059524Y-76535238D01*
X124154762Y-76440000D01*
X124297620Y-76392381D01*
X124392858Y-76392381D01*
X124535715Y-76440000D01*
X124583334Y-76487619D01*
X125535715Y-77392381D02*
X124964286Y-77392381D01*
X125250000Y-77392381D02*
X125250000Y-76392381D01*
X125154762Y-76535238D01*
X125059524Y-76630476D01*
X124964286Y-76678095D01*
X124297619Y-84512381D02*
X123726190Y-84512381D01*
X124011904Y-84512381D02*
X124011904Y-83512381D01*
X123916666Y-83655238D01*
X123821428Y-83750476D01*
X123726190Y-83798095D01*
X125154762Y-83845714D02*
X125154762Y-84512381D01*
X124726190Y-83845714D02*
X124726190Y-84369524D01*
X124773809Y-84464762D01*
X124869047Y-84512381D01*
X125011905Y-84512381D01*
X125107143Y-84464762D01*
X125154762Y-84417143D01*
X125488095Y-83845714D02*
X125869047Y-83845714D01*
X125630952Y-84512381D02*
X125630952Y-83655238D01*
X125678571Y-83560000D01*
X125773809Y-83512381D01*
X125869047Y-83512381D01*
X110333334Y-88167143D02*
X110285715Y-88214762D01*
X110142858Y-88262381D01*
X110047620Y-88262381D01*
X109904762Y-88214762D01*
X109809524Y-88119524D01*
X109761905Y-88024286D01*
X109714286Y-87833810D01*
X109714286Y-87690952D01*
X109761905Y-87500476D01*
X109809524Y-87405238D01*
X109904762Y-87310000D01*
X110047620Y-87262381D01*
X110142858Y-87262381D01*
X110285715Y-87310000D01*
X110333334Y-87357619D01*
X110714286Y-87357619D02*
X110761905Y-87310000D01*
X110857143Y-87262381D01*
X111095239Y-87262381D01*
X111190477Y-87310000D01*
X111238096Y-87357619D01*
X111285715Y-87452857D01*
X111285715Y-87548095D01*
X111238096Y-87690952D01*
X110666667Y-88262381D01*
X111285715Y-88262381D01*
X108523809Y-82642381D02*
X108619048Y-82642381D01*
X108714286Y-82690000D01*
X108761905Y-82737619D01*
X108809524Y-82832857D01*
X108857143Y-83023333D01*
X108857143Y-83261429D01*
X108809524Y-83451905D01*
X108761905Y-83547143D01*
X108714286Y-83594762D01*
X108619048Y-83642381D01*
X108523809Y-83642381D01*
X108428571Y-83594762D01*
X108380952Y-83547143D01*
X108333333Y-83451905D01*
X108285714Y-83261429D01*
X108285714Y-83023333D01*
X108333333Y-82832857D01*
X108380952Y-82737619D01*
X108428571Y-82690000D01*
X108523809Y-82642381D01*
X109285714Y-83547143D02*
X109333333Y-83594762D01*
X109285714Y-83642381D01*
X109238095Y-83594762D01*
X109285714Y-83547143D01*
X109285714Y-83642381D01*
X109952380Y-82642381D02*
X110047619Y-82642381D01*
X110142857Y-82690000D01*
X110190476Y-82737619D01*
X110238095Y-82832857D01*
X110285714Y-83023333D01*
X110285714Y-83261429D01*
X110238095Y-83451905D01*
X110190476Y-83547143D01*
X110142857Y-83594762D01*
X110047619Y-83642381D01*
X109952380Y-83642381D01*
X109857142Y-83594762D01*
X109809523Y-83547143D01*
X109761904Y-83451905D01*
X109714285Y-83261429D01*
X109714285Y-83023333D01*
X109761904Y-82832857D01*
X109809523Y-82737619D01*
X109857142Y-82690000D01*
X109952380Y-82642381D01*
X111238095Y-83642381D02*
X110666666Y-83642381D01*
X110952380Y-83642381D02*
X110952380Y-82642381D01*
X110857142Y-82785238D01*
X110761904Y-82880476D01*
X110666666Y-82928095D01*
X112095238Y-82975714D02*
X112095238Y-83642381D01*
X111666666Y-82975714D02*
X111666666Y-83499524D01*
X111714285Y-83594762D01*
X111809523Y-83642381D01*
X111952381Y-83642381D01*
X112047619Y-83594762D01*
X112095238Y-83547143D01*
X112428571Y-82975714D02*
X112809523Y-82975714D01*
X112571428Y-83642381D02*
X112571428Y-82785238D01*
X112619047Y-82690000D01*
X112714285Y-82642381D01*
X112809523Y-82642381D01*
X110333334Y-104357143D02*
X110285715Y-104404762D01*
X110142858Y-104452381D01*
X110047620Y-104452381D01*
X109904762Y-104404762D01*
X109809524Y-104309524D01*
X109761905Y-104214286D01*
X109714286Y-104023810D01*
X109714286Y-103880952D01*
X109761905Y-103690476D01*
X109809524Y-103595238D01*
X109904762Y-103500000D01*
X110047620Y-103452381D01*
X110142858Y-103452381D01*
X110285715Y-103500000D01*
X110333334Y-103547619D01*
X110666667Y-103452381D02*
X111285715Y-103452381D01*
X110952381Y-103833333D01*
X111095239Y-103833333D01*
X111190477Y-103880952D01*
X111238096Y-103928571D01*
X111285715Y-104023810D01*
X111285715Y-104261905D01*
X111238096Y-104357143D01*
X111190477Y-104404762D01*
X111095239Y-104452381D01*
X110809524Y-104452381D01*
X110714286Y-104404762D01*
X110666667Y-104357143D01*
X108523809Y-99452381D02*
X108619048Y-99452381D01*
X108714286Y-99500000D01*
X108761905Y-99547619D01*
X108809524Y-99642857D01*
X108857143Y-99833333D01*
X108857143Y-100071429D01*
X108809524Y-100261905D01*
X108761905Y-100357143D01*
X108714286Y-100404762D01*
X108619048Y-100452381D01*
X108523809Y-100452381D01*
X108428571Y-100404762D01*
X108380952Y-100357143D01*
X108333333Y-100261905D01*
X108285714Y-100071429D01*
X108285714Y-99833333D01*
X108333333Y-99642857D01*
X108380952Y-99547619D01*
X108428571Y-99500000D01*
X108523809Y-99452381D01*
X109285714Y-100357143D02*
X109333333Y-100404762D01*
X109285714Y-100452381D01*
X109238095Y-100404762D01*
X109285714Y-100357143D01*
X109285714Y-100452381D01*
X109952380Y-99452381D02*
X110047619Y-99452381D01*
X110142857Y-99500000D01*
X110190476Y-99547619D01*
X110238095Y-99642857D01*
X110285714Y-99833333D01*
X110285714Y-100071429D01*
X110238095Y-100261905D01*
X110190476Y-100357143D01*
X110142857Y-100404762D01*
X110047619Y-100452381D01*
X109952380Y-100452381D01*
X109857142Y-100404762D01*
X109809523Y-100357143D01*
X109761904Y-100261905D01*
X109714285Y-100071429D01*
X109714285Y-99833333D01*
X109761904Y-99642857D01*
X109809523Y-99547619D01*
X109857142Y-99500000D01*
X109952380Y-99452381D01*
X111238095Y-100452381D02*
X110666666Y-100452381D01*
X110952380Y-100452381D02*
X110952380Y-99452381D01*
X110857142Y-99595238D01*
X110761904Y-99690476D01*
X110666666Y-99738095D01*
X112095238Y-99785714D02*
X112095238Y-100452381D01*
X111666666Y-99785714D02*
X111666666Y-100309524D01*
X111714285Y-100404762D01*
X111809523Y-100452381D01*
X111952381Y-100452381D01*
X112047619Y-100404762D01*
X112095238Y-100357143D01*
X112428571Y-99785714D02*
X112809523Y-99785714D01*
X112571428Y-100452381D02*
X112571428Y-99595238D01*
X112619047Y-99500000D01*
X112714285Y-99452381D01*
X112809523Y-99452381D01*
X111333334Y-121167143D02*
X111285715Y-121214762D01*
X111142858Y-121262381D01*
X111047620Y-121262381D01*
X110904762Y-121214762D01*
X110809524Y-121119524D01*
X110761905Y-121024286D01*
X110714286Y-120833810D01*
X110714286Y-120690952D01*
X110761905Y-120500476D01*
X110809524Y-120405238D01*
X110904762Y-120310000D01*
X111047620Y-120262381D01*
X111142858Y-120262381D01*
X111285715Y-120310000D01*
X111333334Y-120357619D01*
X112190477Y-120595714D02*
X112190477Y-121262381D01*
X111952381Y-120214762D02*
X111714286Y-120929048D01*
X112333334Y-120929048D01*
X109523809Y-115642381D02*
X109619048Y-115642381D01*
X109714286Y-115690000D01*
X109761905Y-115737619D01*
X109809524Y-115832857D01*
X109857143Y-116023333D01*
X109857143Y-116261429D01*
X109809524Y-116451905D01*
X109761905Y-116547143D01*
X109714286Y-116594762D01*
X109619048Y-116642381D01*
X109523809Y-116642381D01*
X109428571Y-116594762D01*
X109380952Y-116547143D01*
X109333333Y-116451905D01*
X109285714Y-116261429D01*
X109285714Y-116023333D01*
X109333333Y-115832857D01*
X109380952Y-115737619D01*
X109428571Y-115690000D01*
X109523809Y-115642381D01*
X110285714Y-116547143D02*
X110333333Y-116594762D01*
X110285714Y-116642381D01*
X110238095Y-116594762D01*
X110285714Y-116547143D01*
X110285714Y-116642381D01*
X110952380Y-115642381D02*
X111047619Y-115642381D01*
X111142857Y-115690000D01*
X111190476Y-115737619D01*
X111238095Y-115832857D01*
X111285714Y-116023333D01*
X111285714Y-116261429D01*
X111238095Y-116451905D01*
X111190476Y-116547143D01*
X111142857Y-116594762D01*
X111047619Y-116642381D01*
X110952380Y-116642381D01*
X110857142Y-116594762D01*
X110809523Y-116547143D01*
X110761904Y-116451905D01*
X110714285Y-116261429D01*
X110714285Y-116023333D01*
X110761904Y-115832857D01*
X110809523Y-115737619D01*
X110857142Y-115690000D01*
X110952380Y-115642381D01*
X112238095Y-116642381D02*
X111666666Y-116642381D01*
X111952380Y-116642381D02*
X111952380Y-115642381D01*
X111857142Y-115785238D01*
X111761904Y-115880476D01*
X111666666Y-115928095D01*
X113095238Y-115975714D02*
X113095238Y-116642381D01*
X112666666Y-115975714D02*
X112666666Y-116499524D01*
X112714285Y-116594762D01*
X112809523Y-116642381D01*
X112952381Y-116642381D01*
X113047619Y-116594762D01*
X113095238Y-116547143D01*
X113428571Y-115975714D02*
X113809523Y-115975714D01*
X113571428Y-116642381D02*
X113571428Y-115785238D01*
X113619047Y-115690000D01*
X113714285Y-115642381D01*
X113809523Y-115642381D01*
X82991905Y-80492381D02*
X82991905Y-79492381D01*
X83230000Y-79492381D01*
X83372858Y-79540000D01*
X83468096Y-79635238D01*
X83515715Y-79730476D01*
X83563334Y-79920952D01*
X83563334Y-80063810D01*
X83515715Y-80254286D01*
X83468096Y-80349524D01*
X83372858Y-80444762D01*
X83230000Y-80492381D01*
X82991905Y-80492381D01*
X84515715Y-80492381D02*
X83944286Y-80492381D01*
X84230000Y-80492381D02*
X84230000Y-79492381D01*
X84134762Y-79635238D01*
X84039524Y-79730476D01*
X83944286Y-79778095D01*
X83357143Y-88952381D02*
X82880952Y-88952381D01*
X82880952Y-87952381D01*
X83690476Y-88428571D02*
X84023810Y-88428571D01*
X84166667Y-88952381D02*
X83690476Y-88952381D01*
X83690476Y-87952381D01*
X84166667Y-87952381D01*
X84595238Y-88952381D02*
X84595238Y-87952381D01*
X84833333Y-87952381D01*
X84976191Y-88000000D01*
X85071429Y-88095238D01*
X85119048Y-88190476D01*
X85166667Y-88380952D01*
X85166667Y-88523810D01*
X85119048Y-88714286D01*
X85071429Y-88809524D01*
X84976191Y-88904762D01*
X84833333Y-88952381D01*
X84595238Y-88952381D01*
X82991905Y-97492381D02*
X82991905Y-96492381D01*
X83230000Y-96492381D01*
X83372858Y-96540000D01*
X83468096Y-96635238D01*
X83515715Y-96730476D01*
X83563334Y-96920952D01*
X83563334Y-97063810D01*
X83515715Y-97254286D01*
X83468096Y-97349524D01*
X83372858Y-97444762D01*
X83230000Y-97492381D01*
X82991905Y-97492381D01*
X83944286Y-96587619D02*
X83991905Y-96540000D01*
X84087143Y-96492381D01*
X84325239Y-96492381D01*
X84420477Y-96540000D01*
X84468096Y-96587619D01*
X84515715Y-96682857D01*
X84515715Y-96778095D01*
X84468096Y-96920952D01*
X83896667Y-97492381D01*
X84515715Y-97492381D01*
X83087143Y-105412381D02*
X82610952Y-105412381D01*
X82610952Y-104412381D01*
X83420476Y-104888571D02*
X83753810Y-104888571D01*
X83896667Y-105412381D02*
X83420476Y-105412381D01*
X83420476Y-104412381D01*
X83896667Y-104412381D01*
X84325238Y-105412381D02*
X84325238Y-104412381D01*
X84563333Y-104412381D01*
X84706191Y-104460000D01*
X84801429Y-104555238D01*
X84849048Y-104650476D01*
X84896667Y-104840952D01*
X84896667Y-104983810D01*
X84849048Y-105174286D01*
X84801429Y-105269524D01*
X84706191Y-105364762D01*
X84563333Y-105412381D01*
X84325238Y-105412381D01*
X82991905Y-112992381D02*
X82991905Y-111992381D01*
X83230000Y-111992381D01*
X83372858Y-112040000D01*
X83468096Y-112135238D01*
X83515715Y-112230476D01*
X83563334Y-112420952D01*
X83563334Y-112563810D01*
X83515715Y-112754286D01*
X83468096Y-112849524D01*
X83372858Y-112944762D01*
X83230000Y-112992381D01*
X82991905Y-112992381D01*
X83896667Y-111992381D02*
X84515715Y-111992381D01*
X84182381Y-112373333D01*
X84325239Y-112373333D01*
X84420477Y-112420952D01*
X84468096Y-112468571D01*
X84515715Y-112563810D01*
X84515715Y-112801905D01*
X84468096Y-112897143D01*
X84420477Y-112944762D01*
X84325239Y-112992381D01*
X84039524Y-112992381D01*
X83944286Y-112944762D01*
X83896667Y-112897143D01*
X83087143Y-120912381D02*
X82610952Y-120912381D01*
X82610952Y-119912381D01*
X83420476Y-120388571D02*
X83753810Y-120388571D01*
X83896667Y-120912381D02*
X83420476Y-120912381D01*
X83420476Y-119912381D01*
X83896667Y-119912381D01*
X84325238Y-120912381D02*
X84325238Y-119912381D01*
X84563333Y-119912381D01*
X84706191Y-119960000D01*
X84801429Y-120055238D01*
X84849048Y-120150476D01*
X84896667Y-120340952D01*
X84896667Y-120483810D01*
X84849048Y-120674286D01*
X84801429Y-120769524D01*
X84706191Y-120864762D01*
X84563333Y-120912381D01*
X84325238Y-120912381D01*
X94491905Y-153452381D02*
X94491905Y-152452381D01*
X94730000Y-152452381D01*
X94872858Y-152500000D01*
X94968096Y-152595238D01*
X95015715Y-152690476D01*
X95063334Y-152880952D01*
X95063334Y-153023810D01*
X95015715Y-153214286D01*
X94968096Y-153309524D01*
X94872858Y-153404762D01*
X94730000Y-153452381D01*
X94491905Y-153452381D01*
X95920477Y-152785714D02*
X95920477Y-153452381D01*
X95682381Y-152404762D02*
X95444286Y-153119048D01*
X96063334Y-153119048D01*
X94357143Y-159452381D02*
X93880952Y-159452381D01*
X93880952Y-158452381D01*
X94690476Y-158928571D02*
X95023810Y-158928571D01*
X95166667Y-159452381D02*
X94690476Y-159452381D01*
X94690476Y-158452381D01*
X95166667Y-158452381D01*
X95595238Y-159452381D02*
X95595238Y-158452381D01*
X95833333Y-158452381D01*
X95976191Y-158500000D01*
X96071429Y-158595238D01*
X96119048Y-158690476D01*
X96166667Y-158880952D01*
X96166667Y-159023810D01*
X96119048Y-159214286D01*
X96071429Y-159309524D01*
X95976191Y-159404762D01*
X95833333Y-159452381D01*
X95595238Y-159452381D01*
X112761905Y-153404381D02*
X112761905Y-152404381D01*
X113142858Y-152404381D01*
X113238096Y-152452000D01*
X113285715Y-152499619D01*
X113333334Y-152594857D01*
X113333334Y-152737714D01*
X113285715Y-152832952D01*
X113238096Y-152880571D01*
X113142858Y-152928190D01*
X112761905Y-152928190D01*
X114285715Y-153404381D02*
X113714286Y-153404381D01*
X114000000Y-153404381D02*
X114000000Y-152404381D01*
X113904762Y-152547238D01*
X113809524Y-152642476D01*
X113714286Y-152690095D01*
X120761905Y-154852381D02*
X120761905Y-153852381D01*
X121142858Y-153852381D01*
X121238096Y-153900000D01*
X121285715Y-153947619D01*
X121333334Y-154042857D01*
X121333334Y-154185714D01*
X121285715Y-154280952D01*
X121238096Y-154328571D01*
X121142858Y-154376190D01*
X120761905Y-154376190D01*
X121714286Y-153947619D02*
X121761905Y-153900000D01*
X121857143Y-153852381D01*
X122095239Y-153852381D01*
X122190477Y-153900000D01*
X122238096Y-153947619D01*
X122285715Y-154042857D01*
X122285715Y-154138095D01*
X122238096Y-154280952D01*
X121666667Y-154852381D01*
X122285715Y-154852381D01*
X117761905Y-154852381D02*
X117761905Y-153852381D01*
X118142858Y-153852381D01*
X118238096Y-153900000D01*
X118285715Y-153947619D01*
X118333334Y-154042857D01*
X118333334Y-154185714D01*
X118285715Y-154280952D01*
X118238096Y-154328571D01*
X118142858Y-154376190D01*
X117761905Y-154376190D01*
X118666667Y-153852381D02*
X119285715Y-153852381D01*
X118952381Y-154233333D01*
X119095239Y-154233333D01*
X119190477Y-154280952D01*
X119238096Y-154328571D01*
X119285715Y-154423810D01*
X119285715Y-154661905D01*
X119238096Y-154757143D01*
X119190477Y-154804762D01*
X119095239Y-154852381D01*
X118809524Y-154852381D01*
X118714286Y-154804762D01*
X118666667Y-154757143D01*
X125761905Y-62352381D02*
X125761905Y-61352381D01*
X126142858Y-61352381D01*
X126238096Y-61400000D01*
X126285715Y-61447619D01*
X126333334Y-61542857D01*
X126333334Y-61685714D01*
X126285715Y-61780952D01*
X126238096Y-61828571D01*
X126142858Y-61876190D01*
X125761905Y-61876190D01*
X127190477Y-61685714D02*
X127190477Y-62352381D01*
X126952381Y-61304762D02*
X126714286Y-62019048D01*
X127333334Y-62019048D01*
X88761905Y-62352381D02*
X88761905Y-61352381D01*
X89142858Y-61352381D01*
X89238096Y-61400000D01*
X89285715Y-61447619D01*
X89333334Y-61542857D01*
X89333334Y-61685714D01*
X89285715Y-61780952D01*
X89238096Y-61828571D01*
X89142858Y-61876190D01*
X88761905Y-61876190D01*
X90238096Y-61352381D02*
X89761905Y-61352381D01*
X89714286Y-61828571D01*
X89761905Y-61780952D01*
X89857143Y-61733333D01*
X90095239Y-61733333D01*
X90190477Y-61780952D01*
X90238096Y-61828571D01*
X90285715Y-61923810D01*
X90285715Y-62161905D01*
X90238096Y-62257143D01*
X90190477Y-62304762D01*
X90095239Y-62352381D01*
X89857143Y-62352381D01*
X89761905Y-62304762D01*
X89714286Y-62257143D01*
X103261905Y-62352381D02*
X103261905Y-61352381D01*
X103642858Y-61352381D01*
X103738096Y-61400000D01*
X103785715Y-61447619D01*
X103833334Y-61542857D01*
X103833334Y-61685714D01*
X103785715Y-61780952D01*
X103738096Y-61828571D01*
X103642858Y-61876190D01*
X103261905Y-61876190D01*
X104690477Y-61352381D02*
X104500000Y-61352381D01*
X104404762Y-61400000D01*
X104357143Y-61447619D01*
X104261905Y-61590476D01*
X104214286Y-61780952D01*
X104214286Y-62161905D01*
X104261905Y-62257143D01*
X104309524Y-62304762D01*
X104404762Y-62352381D01*
X104595239Y-62352381D01*
X104690477Y-62304762D01*
X104738096Y-62257143D01*
X104785715Y-62161905D01*
X104785715Y-61923810D01*
X104738096Y-61828571D01*
X104690477Y-61780952D01*
X104595239Y-61733333D01*
X104404762Y-61733333D01*
X104309524Y-61780952D01*
X104261905Y-61828571D01*
X104214286Y-61923810D01*
X131761905Y-62642381D02*
X131761905Y-61642381D01*
X132142858Y-61642381D01*
X132238096Y-61690000D01*
X132285715Y-61737619D01*
X132333334Y-61832857D01*
X132333334Y-61975714D01*
X132285715Y-62070952D01*
X132238096Y-62118571D01*
X132142858Y-62166190D01*
X131761905Y-62166190D01*
X132666667Y-61642381D02*
X133333334Y-61642381D01*
X132904762Y-62642381D01*
X82761905Y-62642381D02*
X82761905Y-61642381D01*
X83142858Y-61642381D01*
X83238096Y-61690000D01*
X83285715Y-61737619D01*
X83333334Y-61832857D01*
X83333334Y-61975714D01*
X83285715Y-62070952D01*
X83238096Y-62118571D01*
X83142858Y-62166190D01*
X82761905Y-62166190D01*
X83904762Y-62070952D02*
X83809524Y-62023333D01*
X83761905Y-61975714D01*
X83714286Y-61880476D01*
X83714286Y-61832857D01*
X83761905Y-61737619D01*
X83809524Y-61690000D01*
X83904762Y-61642381D01*
X84095239Y-61642381D01*
X84190477Y-61690000D01*
X84238096Y-61737619D01*
X84285715Y-61832857D01*
X84285715Y-61880476D01*
X84238096Y-61975714D01*
X84190477Y-62023333D01*
X84095239Y-62070952D01*
X83904762Y-62070952D01*
X83809524Y-62118571D01*
X83761905Y-62166190D01*
X83714286Y-62261429D01*
X83714286Y-62451905D01*
X83761905Y-62547143D01*
X83809524Y-62594762D01*
X83904762Y-62642381D01*
X84095239Y-62642381D01*
X84190477Y-62594762D01*
X84238096Y-62547143D01*
X84285715Y-62451905D01*
X84285715Y-62261429D01*
X84238096Y-62166190D01*
X84190477Y-62118571D01*
X84095239Y-62070952D01*
X92262381Y-81246666D02*
X91786190Y-81580000D01*
X92262381Y-81818095D02*
X91262381Y-81818095D01*
X91262381Y-81437142D01*
X91310000Y-81341904D01*
X91357619Y-81294285D01*
X91452857Y-81246666D01*
X91595714Y-81246666D01*
X91690952Y-81294285D01*
X91738571Y-81341904D01*
X91786190Y-81437142D01*
X91786190Y-81818095D01*
X92262381Y-80294285D02*
X92262381Y-80865714D01*
X92262381Y-80580000D02*
X91262381Y-80580000D01*
X91405238Y-80675238D01*
X91500476Y-80770476D01*
X91548095Y-80865714D01*
X89025020Y-82318095D02*
X88977401Y-82270476D01*
X88929782Y-82175238D01*
X88929782Y-81937142D01*
X88977401Y-81841904D01*
X89025020Y-81794285D01*
X89120258Y-81746666D01*
X89215496Y-81746666D01*
X89358353Y-81794285D01*
X89929782Y-82365714D01*
X89929782Y-81746666D01*
X89025020Y-81365714D02*
X88977401Y-81318095D01*
X88929782Y-81222857D01*
X88929782Y-80984761D01*
X88977401Y-80889523D01*
X89025020Y-80841904D01*
X89120258Y-80794285D01*
X89215496Y-80794285D01*
X89358353Y-80841904D01*
X89929782Y-81413333D01*
X89929782Y-80794285D01*
X88929782Y-80175238D02*
X88929782Y-80079999D01*
X88977401Y-79984761D01*
X89025020Y-79937142D01*
X89120258Y-79889523D01*
X89310734Y-79841904D01*
X89548830Y-79841904D01*
X89739306Y-79889523D01*
X89834544Y-79937142D01*
X89882163Y-79984761D01*
X89929782Y-80079999D01*
X89929782Y-80175238D01*
X89882163Y-80270476D01*
X89834544Y-80318095D01*
X89739306Y-80365714D01*
X89548830Y-80413333D01*
X89310734Y-80413333D01*
X89120258Y-80365714D01*
X89025020Y-80318095D01*
X88977401Y-80270476D01*
X88929782Y-80175238D01*
X114753334Y-75642381D02*
X114420000Y-75166190D01*
X114181905Y-75642381D02*
X114181905Y-74642381D01*
X114562858Y-74642381D01*
X114658096Y-74690000D01*
X114705715Y-74737619D01*
X114753334Y-74832857D01*
X114753334Y-74975714D01*
X114705715Y-75070952D01*
X114658096Y-75118571D01*
X114562858Y-75166190D01*
X114181905Y-75166190D01*
X115134286Y-74737619D02*
X115181905Y-74690000D01*
X115277143Y-74642381D01*
X115515239Y-74642381D01*
X115610477Y-74690000D01*
X115658096Y-74737619D01*
X115705715Y-74832857D01*
X115705715Y-74928095D01*
X115658096Y-75070952D01*
X115086667Y-75642381D01*
X115705715Y-75642381D01*
X114800953Y-77952381D02*
X114229524Y-77952381D01*
X114515238Y-77952381D02*
X114515238Y-76952381D01*
X114420000Y-77095238D01*
X114324762Y-77190476D01*
X114229524Y-77238095D01*
X115229524Y-77952381D02*
X115229524Y-76952381D01*
X115324762Y-77571429D02*
X115610477Y-77952381D01*
X115610477Y-77285714D02*
X115229524Y-77666667D01*
X114753334Y-83762381D02*
X114420000Y-83286190D01*
X114181905Y-83762381D02*
X114181905Y-82762381D01*
X114562858Y-82762381D01*
X114658096Y-82810000D01*
X114705715Y-82857619D01*
X114753334Y-82952857D01*
X114753334Y-83095714D01*
X114705715Y-83190952D01*
X114658096Y-83238571D01*
X114562858Y-83286190D01*
X114181905Y-83286190D01*
X115086667Y-82762381D02*
X115705715Y-82762381D01*
X115372381Y-83143333D01*
X115515239Y-83143333D01*
X115610477Y-83190952D01*
X115658096Y-83238571D01*
X115705715Y-83333810D01*
X115705715Y-83571905D01*
X115658096Y-83667143D01*
X115610477Y-83714762D01*
X115515239Y-83762381D01*
X115229524Y-83762381D01*
X115134286Y-83714762D01*
X115086667Y-83667143D01*
X113771172Y-81379782D02*
X113199743Y-81379782D01*
X113485457Y-81379782D02*
X113485457Y-80379782D01*
X113390219Y-80522639D01*
X113294981Y-80617877D01*
X113199743Y-80665496D01*
X114390219Y-80379782D02*
X114485458Y-80379782D01*
X114580696Y-80427401D01*
X114628315Y-80475020D01*
X114675934Y-80570258D01*
X114723553Y-80760734D01*
X114723553Y-80998830D01*
X114675934Y-81189306D01*
X114628315Y-81284544D01*
X114580696Y-81332163D01*
X114485458Y-81379782D01*
X114390219Y-81379782D01*
X114294981Y-81332163D01*
X114247362Y-81284544D01*
X114199743Y-81189306D01*
X114152124Y-80998830D01*
X114152124Y-80760734D01*
X114199743Y-80570258D01*
X114247362Y-80475020D01*
X114294981Y-80427401D01*
X114390219Y-80379782D01*
X115342600Y-80379782D02*
X115437839Y-80379782D01*
X115533077Y-80427401D01*
X115580696Y-80475020D01*
X115628315Y-80570258D01*
X115675934Y-80760734D01*
X115675934Y-80998830D01*
X115628315Y-81189306D01*
X115580696Y-81284544D01*
X115533077Y-81332163D01*
X115437839Y-81379782D01*
X115342600Y-81379782D01*
X115247362Y-81332163D01*
X115199743Y-81284544D01*
X115152124Y-81189306D01*
X115104505Y-80998830D01*
X115104505Y-80760734D01*
X115152124Y-80570258D01*
X115199743Y-80475020D01*
X115247362Y-80427401D01*
X115342600Y-80379782D01*
X116104505Y-81379782D02*
X116104505Y-80379782D01*
X116199743Y-80998830D02*
X116485458Y-81379782D01*
X116485458Y-80713115D02*
X116104505Y-81094068D01*
X115413334Y-92142381D02*
X115080000Y-91666190D01*
X114841905Y-92142381D02*
X114841905Y-91142381D01*
X115222858Y-91142381D01*
X115318096Y-91190000D01*
X115365715Y-91237619D01*
X115413334Y-91332857D01*
X115413334Y-91475714D01*
X115365715Y-91570952D01*
X115318096Y-91618571D01*
X115222858Y-91666190D01*
X114841905Y-91666190D01*
X116270477Y-91475714D02*
X116270477Y-92142381D01*
X116032381Y-91094762D02*
X115794286Y-91809048D01*
X116413334Y-91809048D01*
X115380953Y-94452381D02*
X114809524Y-94452381D01*
X115095238Y-94452381D02*
X115095238Y-93452381D01*
X115000000Y-93595238D01*
X114904762Y-93690476D01*
X114809524Y-93738095D01*
X115809524Y-94452381D02*
X115809524Y-93452381D01*
X115904762Y-94071429D02*
X116190477Y-94452381D01*
X116190477Y-93785714D02*
X115809524Y-94166667D01*
X92262381Y-98086666D02*
X91786190Y-98420000D01*
X92262381Y-98658095D02*
X91262381Y-98658095D01*
X91262381Y-98277142D01*
X91310000Y-98181904D01*
X91357619Y-98134285D01*
X91452857Y-98086666D01*
X91595714Y-98086666D01*
X91690952Y-98134285D01*
X91738571Y-98181904D01*
X91786190Y-98277142D01*
X91786190Y-98658095D01*
X91262381Y-97181904D02*
X91262381Y-97658095D01*
X91738571Y-97705714D01*
X91690952Y-97658095D01*
X91643333Y-97562857D01*
X91643333Y-97324761D01*
X91690952Y-97229523D01*
X91738571Y-97181904D01*
X91833810Y-97134285D01*
X92071905Y-97134285D01*
X92167143Y-97181904D01*
X92214762Y-97229523D01*
X92262381Y-97324761D01*
X92262381Y-97562857D01*
X92214762Y-97658095D01*
X92167143Y-97705714D01*
X89047619Y-99238095D02*
X89000000Y-99190476D01*
X88952381Y-99095238D01*
X88952381Y-98857142D01*
X89000000Y-98761904D01*
X89047619Y-98714285D01*
X89142857Y-98666666D01*
X89238095Y-98666666D01*
X89380952Y-98714285D01*
X89952381Y-99285714D01*
X89952381Y-98666666D01*
X89047619Y-98285714D02*
X89000000Y-98238095D01*
X88952381Y-98142857D01*
X88952381Y-97904761D01*
X89000000Y-97809523D01*
X89047619Y-97761904D01*
X89142857Y-97714285D01*
X89238095Y-97714285D01*
X89380952Y-97761904D01*
X89952381Y-98333333D01*
X89952381Y-97714285D01*
X88952381Y-97095238D02*
X88952381Y-96999999D01*
X89000000Y-96904761D01*
X89047619Y-96857142D01*
X89142857Y-96809523D01*
X89333333Y-96761904D01*
X89571429Y-96761904D01*
X89761905Y-96809523D01*
X89857143Y-96857142D01*
X89904762Y-96904761D01*
X89952381Y-96999999D01*
X89952381Y-97095238D01*
X89904762Y-97190476D01*
X89857143Y-97238095D01*
X89761905Y-97285714D01*
X89571429Y-97333333D01*
X89333333Y-97333333D01*
X89142857Y-97285714D01*
X89047619Y-97238095D01*
X89000000Y-97190476D01*
X88952381Y-97095238D01*
X115413334Y-100762381D02*
X115080000Y-100286190D01*
X114841905Y-100762381D02*
X114841905Y-99762381D01*
X115222858Y-99762381D01*
X115318096Y-99810000D01*
X115365715Y-99857619D01*
X115413334Y-99952857D01*
X115413334Y-100095714D01*
X115365715Y-100190952D01*
X115318096Y-100238571D01*
X115222858Y-100286190D01*
X114841905Y-100286190D01*
X116270477Y-99762381D02*
X116080000Y-99762381D01*
X115984762Y-99810000D01*
X115937143Y-99857619D01*
X115841905Y-100000476D01*
X115794286Y-100190952D01*
X115794286Y-100571905D01*
X115841905Y-100667143D01*
X115889524Y-100714762D01*
X115984762Y-100762381D01*
X116175239Y-100762381D01*
X116270477Y-100714762D01*
X116318096Y-100667143D01*
X116365715Y-100571905D01*
X116365715Y-100333810D01*
X116318096Y-100238571D01*
X116270477Y-100190952D01*
X116175239Y-100143333D01*
X115984762Y-100143333D01*
X115889524Y-100190952D01*
X115841905Y-100238571D01*
X115794286Y-100333810D01*
X115374286Y-98429782D02*
X114802857Y-98429782D01*
X115088571Y-98429782D02*
X115088571Y-97429782D01*
X114993333Y-97572639D01*
X114898095Y-97667877D01*
X114802857Y-97715496D01*
X115802857Y-98429782D02*
X115802857Y-97429782D01*
X116136191Y-98144068D01*
X116469524Y-97429782D01*
X116469524Y-98429782D01*
X115583334Y-108452381D02*
X115250000Y-107976190D01*
X115011905Y-108452381D02*
X115011905Y-107452381D01*
X115392858Y-107452381D01*
X115488096Y-107500000D01*
X115535715Y-107547619D01*
X115583334Y-107642857D01*
X115583334Y-107785714D01*
X115535715Y-107880952D01*
X115488096Y-107928571D01*
X115392858Y-107976190D01*
X115011905Y-107976190D01*
X115916667Y-107452381D02*
X116583334Y-107452381D01*
X116154762Y-108452381D01*
X115738354Y-110379781D02*
X115166925Y-110379781D01*
X115452639Y-110379781D02*
X115452639Y-109379781D01*
X115357401Y-109522638D01*
X115262163Y-109617876D01*
X115166925Y-109665495D01*
X116166925Y-110379781D02*
X116166925Y-109379781D01*
X116262163Y-109998829D02*
X116547878Y-110379781D01*
X116547878Y-109713114D02*
X116166925Y-110094067D01*
X115583334Y-116452381D02*
X115250000Y-115976190D01*
X115011905Y-116452381D02*
X115011905Y-115452381D01*
X115392858Y-115452381D01*
X115488096Y-115500000D01*
X115535715Y-115547619D01*
X115583334Y-115642857D01*
X115583334Y-115785714D01*
X115535715Y-115880952D01*
X115488096Y-115928571D01*
X115392858Y-115976190D01*
X115011905Y-115976190D01*
X116154762Y-115880952D02*
X116059524Y-115833333D01*
X116011905Y-115785714D01*
X115964286Y-115690476D01*
X115964286Y-115642857D01*
X116011905Y-115547619D01*
X116059524Y-115500000D01*
X116154762Y-115452381D01*
X116345239Y-115452381D01*
X116440477Y-115500000D01*
X116488096Y-115547619D01*
X116535715Y-115642857D01*
X116535715Y-115690476D01*
X116488096Y-115785714D01*
X116440477Y-115833333D01*
X116345239Y-115880952D01*
X116154762Y-115880952D01*
X116059524Y-115928571D01*
X116011905Y-115976190D01*
X115964286Y-116071429D01*
X115964286Y-116261905D01*
X116011905Y-116357143D01*
X116059524Y-116404762D01*
X116154762Y-116452381D01*
X116345239Y-116452381D01*
X116440477Y-116404762D01*
X116488096Y-116357143D01*
X116535715Y-116261905D01*
X116535715Y-116071429D01*
X116488096Y-115976190D01*
X116440477Y-115928571D01*
X116345239Y-115880952D01*
X116090953Y-114202381D02*
X115519524Y-114202381D01*
X115805238Y-114202381D02*
X115805238Y-113202381D01*
X115710000Y-113345238D01*
X115614762Y-113440476D01*
X115519524Y-113488095D01*
X116519524Y-114202381D02*
X116519524Y-113202381D01*
X116614762Y-113821429D02*
X116900477Y-114202381D01*
X116900477Y-113535714D02*
X116519524Y-113916667D01*
X92262381Y-113586666D02*
X91786190Y-113920000D01*
X92262381Y-114158095D02*
X91262381Y-114158095D01*
X91262381Y-113777142D01*
X91310000Y-113681904D01*
X91357619Y-113634285D01*
X91452857Y-113586666D01*
X91595714Y-113586666D01*
X91690952Y-113634285D01*
X91738571Y-113681904D01*
X91786190Y-113777142D01*
X91786190Y-114158095D01*
X92262381Y-113110476D02*
X92262381Y-112920000D01*
X92214762Y-112824761D01*
X92167143Y-112777142D01*
X92024286Y-112681904D01*
X91833810Y-112634285D01*
X91452857Y-112634285D01*
X91357619Y-112681904D01*
X91310000Y-112729523D01*
X91262381Y-112824761D01*
X91262381Y-113015238D01*
X91310000Y-113110476D01*
X91357619Y-113158095D01*
X91452857Y-113205714D01*
X91690952Y-113205714D01*
X91786190Y-113158095D01*
X91833810Y-113110476D01*
X91881429Y-113015238D01*
X91881429Y-112824761D01*
X91833810Y-112729523D01*
X91786190Y-112681904D01*
X91690952Y-112634285D01*
X89047619Y-114738095D02*
X89000000Y-114690476D01*
X88952381Y-114595238D01*
X88952381Y-114357142D01*
X89000000Y-114261904D01*
X89047619Y-114214285D01*
X89142857Y-114166666D01*
X89238095Y-114166666D01*
X89380952Y-114214285D01*
X89952381Y-114785714D01*
X89952381Y-114166666D01*
X89047619Y-113785714D02*
X89000000Y-113738095D01*
X88952381Y-113642857D01*
X88952381Y-113404761D01*
X89000000Y-113309523D01*
X89047619Y-113261904D01*
X89142857Y-113214285D01*
X89238095Y-113214285D01*
X89380952Y-113261904D01*
X89952381Y-113833333D01*
X89952381Y-113214285D01*
X88952381Y-112595238D02*
X88952381Y-112499999D01*
X89000000Y-112404761D01*
X89047619Y-112357142D01*
X89142857Y-112309523D01*
X89333333Y-112261904D01*
X89571429Y-112261904D01*
X89761905Y-112309523D01*
X89857143Y-112357142D01*
X89904762Y-112404761D01*
X89952381Y-112499999D01*
X89952381Y-112595238D01*
X89904762Y-112690476D01*
X89857143Y-112738095D01*
X89761905Y-112785714D01*
X89571429Y-112833333D01*
X89333333Y-112833333D01*
X89142857Y-112785714D01*
X89047619Y-112738095D01*
X89000000Y-112690476D01*
X88952381Y-112595238D01*
X94437143Y-147142381D02*
X94103809Y-146666190D01*
X93865714Y-147142381D02*
X93865714Y-146142381D01*
X94246667Y-146142381D01*
X94341905Y-146190000D01*
X94389524Y-146237619D01*
X94437143Y-146332857D01*
X94437143Y-146475714D01*
X94389524Y-146570952D01*
X94341905Y-146618571D01*
X94246667Y-146666190D01*
X93865714Y-146666190D01*
X95389524Y-147142381D02*
X94818095Y-147142381D01*
X95103809Y-147142381D02*
X95103809Y-146142381D01*
X95008571Y-146285238D01*
X94913333Y-146380476D01*
X94818095Y-146428095D01*
X96008571Y-146142381D02*
X96103810Y-146142381D01*
X96199048Y-146190000D01*
X96246667Y-146237619D01*
X96294286Y-146332857D01*
X96341905Y-146523333D01*
X96341905Y-146761429D01*
X96294286Y-146951905D01*
X96246667Y-147047143D01*
X96199048Y-147094762D01*
X96103810Y-147142381D01*
X96008571Y-147142381D01*
X95913333Y-147094762D01*
X95865714Y-147047143D01*
X95818095Y-146951905D01*
X95770476Y-146761429D01*
X95770476Y-146523333D01*
X95818095Y-146332857D01*
X95865714Y-146237619D01*
X95913333Y-146190000D01*
X96008571Y-146142381D01*
X93949305Y-148547619D02*
X93996924Y-148500000D01*
X94092162Y-148452381D01*
X94330258Y-148452381D01*
X94425496Y-148500000D01*
X94473115Y-148547619D01*
X94520734Y-148642857D01*
X94520734Y-148738095D01*
X94473115Y-148880952D01*
X93901686Y-149452381D01*
X94520734Y-149452381D01*
X94901686Y-148547619D02*
X94949305Y-148500000D01*
X95044543Y-148452381D01*
X95282639Y-148452381D01*
X95377877Y-148500000D01*
X95425496Y-148547619D01*
X95473115Y-148642857D01*
X95473115Y-148738095D01*
X95425496Y-148880952D01*
X94854067Y-149452381D01*
X95473115Y-149452381D01*
X96092162Y-148452381D02*
X96187401Y-148452381D01*
X96282639Y-148500000D01*
X96330258Y-148547619D01*
X96377877Y-148642857D01*
X96425496Y-148833333D01*
X96425496Y-149071429D01*
X96377877Y-149261905D01*
X96330258Y-149357143D01*
X96282639Y-149404762D01*
X96187401Y-149452381D01*
X96092162Y-149452381D01*
X95996924Y-149404762D01*
X95949305Y-149357143D01*
X95901686Y-149261905D01*
X95854067Y-149071429D01*
X95854067Y-148833333D01*
X95901686Y-148642857D01*
X95949305Y-148547619D01*
X95996924Y-148500000D01*
X96092162Y-148452381D01*
X134504762Y-115793333D02*
X134552381Y-115650476D01*
X134552381Y-115412380D01*
X134504762Y-115317142D01*
X134457143Y-115269523D01*
X134361905Y-115221904D01*
X134266667Y-115221904D01*
X134171429Y-115269523D01*
X134123810Y-115317142D01*
X134076190Y-115412380D01*
X134028571Y-115602857D01*
X133980952Y-115698095D01*
X133933333Y-115745714D01*
X133838095Y-115793333D01*
X133742857Y-115793333D01*
X133647619Y-115745714D01*
X133600000Y-115698095D01*
X133552381Y-115602857D01*
X133552381Y-115364761D01*
X133600000Y-115221904D01*
X133552381Y-114888571D02*
X134552381Y-114650476D01*
X133838095Y-114459999D01*
X134552381Y-114269523D01*
X133552381Y-114031428D01*
X134552381Y-113126666D02*
X134552381Y-113698095D01*
X134552381Y-113412381D02*
X133552381Y-113412381D01*
X133695238Y-113507619D01*
X133790476Y-113602857D01*
X133838095Y-113698095D01*
X128416667Y-100404762D02*
X128559524Y-100452381D01*
X128797620Y-100452381D01*
X128892858Y-100404762D01*
X128940477Y-100357143D01*
X128988096Y-100261905D01*
X128988096Y-100166667D01*
X128940477Y-100071429D01*
X128892858Y-100023810D01*
X128797620Y-99976190D01*
X128607143Y-99928571D01*
X128511905Y-99880952D01*
X128464286Y-99833333D01*
X128416667Y-99738095D01*
X128416667Y-99642857D01*
X128464286Y-99547619D01*
X128511905Y-99500000D01*
X128607143Y-99452381D01*
X128845239Y-99452381D01*
X128988096Y-99500000D01*
X129321429Y-99452381D02*
X129559524Y-100452381D01*
X129750001Y-99738095D01*
X129940477Y-100452381D01*
X130178572Y-99452381D01*
X130511905Y-99547619D02*
X130559524Y-99500000D01*
X130654762Y-99452381D01*
X130892858Y-99452381D01*
X130988096Y-99500000D01*
X131035715Y-99547619D01*
X131083334Y-99642857D01*
X131083334Y-99738095D01*
X131035715Y-99880952D01*
X130464286Y-100452381D01*
X131083334Y-100452381D01*
X126178571Y-91704762D02*
X126321428Y-91752381D01*
X126559524Y-91752381D01*
X126654762Y-91704762D01*
X126702381Y-91657143D01*
X126750000Y-91561905D01*
X126750000Y-91466667D01*
X126702381Y-91371429D01*
X126654762Y-91323810D01*
X126559524Y-91276190D01*
X126369047Y-91228571D01*
X126273809Y-91180952D01*
X126226190Y-91133333D01*
X126178571Y-91038095D01*
X126178571Y-90942857D01*
X126226190Y-90847619D01*
X126273809Y-90800000D01*
X126369047Y-90752381D01*
X126607143Y-90752381D01*
X126750000Y-90800000D01*
X127083333Y-90752381D02*
X127321428Y-91752381D01*
X127511905Y-91038095D01*
X127702381Y-91752381D01*
X127940476Y-90752381D01*
X128083333Y-91847619D02*
X128845238Y-91847619D01*
X129035714Y-91704762D02*
X129178571Y-91752381D01*
X129416667Y-91752381D01*
X129511905Y-91704762D01*
X129559524Y-91657143D01*
X129607143Y-91561905D01*
X129607143Y-91466667D01*
X129559524Y-91371429D01*
X129511905Y-91323810D01*
X129416667Y-91276190D01*
X129226190Y-91228571D01*
X129130952Y-91180952D01*
X129083333Y-91133333D01*
X129035714Y-91038095D01*
X129035714Y-90942857D01*
X129083333Y-90847619D01*
X129130952Y-90800000D01*
X129226190Y-90752381D01*
X129464286Y-90752381D01*
X129607143Y-90800000D01*
X130035714Y-91752381D02*
X130035714Y-90752381D01*
X130416667Y-90752381D01*
X130511905Y-90800000D01*
X130559524Y-90847619D01*
X130607143Y-90942857D01*
X130607143Y-91085714D01*
X130559524Y-91180952D01*
X130511905Y-91228571D01*
X130416667Y-91276190D01*
X130035714Y-91276190D01*
X130988095Y-91704762D02*
X131130952Y-91752381D01*
X131369048Y-91752381D01*
X131464286Y-91704762D01*
X131511905Y-91657143D01*
X131559524Y-91561905D01*
X131559524Y-91466667D01*
X131511905Y-91371429D01*
X131464286Y-91323810D01*
X131369048Y-91276190D01*
X131178571Y-91228571D01*
X131083333Y-91180952D01*
X131035714Y-91133333D01*
X130988095Y-91038095D01*
X130988095Y-90942857D01*
X131035714Y-90847619D01*
X131083333Y-90800000D01*
X131178571Y-90752381D01*
X131416667Y-90752381D01*
X131559524Y-90800000D01*
X131845238Y-90752381D02*
X132416667Y-90752381D01*
X132130952Y-91752381D02*
X132130952Y-90752381D01*
X97418095Y-77652381D02*
X97418095Y-78461905D01*
X97465714Y-78557143D01*
X97513333Y-78604762D01*
X97608571Y-78652381D01*
X97799048Y-78652381D01*
X97894286Y-78604762D01*
X97941905Y-78557143D01*
X97989524Y-78461905D01*
X97989524Y-77652381D01*
X98989524Y-78652381D02*
X98418095Y-78652381D01*
X98703809Y-78652381D02*
X98703809Y-77652381D01*
X98608571Y-77795238D01*
X98513333Y-77890476D01*
X98418095Y-77938095D01*
X95975715Y-87922381D02*
X95499524Y-87922381D01*
X95499524Y-86922381D01*
X96309048Y-87922381D02*
X96309048Y-86922381D01*
X96642382Y-87636667D01*
X96975715Y-86922381D01*
X96975715Y-87922381D01*
X97928096Y-86922381D02*
X97451905Y-86922381D01*
X97404286Y-87398571D01*
X97451905Y-87350952D01*
X97547143Y-87303333D01*
X97785239Y-87303333D01*
X97880477Y-87350952D01*
X97928096Y-87398571D01*
X97975715Y-87493810D01*
X97975715Y-87731905D01*
X97928096Y-87827143D01*
X97880477Y-87874762D01*
X97785239Y-87922381D01*
X97547143Y-87922381D01*
X97451905Y-87874762D01*
X97404286Y-87827143D01*
X98880477Y-86922381D02*
X98404286Y-86922381D01*
X98356667Y-87398571D01*
X98404286Y-87350952D01*
X98499524Y-87303333D01*
X98737620Y-87303333D01*
X98832858Y-87350952D01*
X98880477Y-87398571D01*
X98928096Y-87493810D01*
X98928096Y-87731905D01*
X98880477Y-87827143D01*
X98832858Y-87874762D01*
X98737620Y-87922381D01*
X98499524Y-87922381D01*
X98404286Y-87874762D01*
X98356667Y-87827143D01*
X99832858Y-86922381D02*
X99356667Y-86922381D01*
X99309048Y-87398571D01*
X99356667Y-87350952D01*
X99451905Y-87303333D01*
X99690001Y-87303333D01*
X99785239Y-87350952D01*
X99832858Y-87398571D01*
X99880477Y-87493810D01*
X99880477Y-87731905D01*
X99832858Y-87827143D01*
X99785239Y-87874762D01*
X99690001Y-87922381D01*
X99451905Y-87922381D01*
X99356667Y-87874762D01*
X99309048Y-87827143D01*
X100309048Y-87922381D02*
X100309048Y-86922381D01*
X100880477Y-87922381D01*
X100880477Y-86922381D01*
X97438095Y-94192381D02*
X97438095Y-95001905D01*
X97485714Y-95097143D01*
X97533333Y-95144762D01*
X97628571Y-95192381D01*
X97819048Y-95192381D01*
X97914286Y-95144762D01*
X97961905Y-95097143D01*
X98009524Y-95001905D01*
X98009524Y-94192381D01*
X98438095Y-94287619D02*
X98485714Y-94240000D01*
X98580952Y-94192381D01*
X98819048Y-94192381D01*
X98914286Y-94240000D01*
X98961905Y-94287619D01*
X99009524Y-94382857D01*
X99009524Y-94478095D01*
X98961905Y-94620952D01*
X98390476Y-95192381D01*
X99009524Y-95192381D01*
X95975715Y-104462381D02*
X95499524Y-104462381D01*
X95499524Y-103462381D01*
X96309048Y-104462381D02*
X96309048Y-103462381D01*
X96642382Y-104176667D01*
X96975715Y-103462381D01*
X96975715Y-104462381D01*
X97928096Y-103462381D02*
X97451905Y-103462381D01*
X97404286Y-103938571D01*
X97451905Y-103890952D01*
X97547143Y-103843333D01*
X97785239Y-103843333D01*
X97880477Y-103890952D01*
X97928096Y-103938571D01*
X97975715Y-104033810D01*
X97975715Y-104271905D01*
X97928096Y-104367143D01*
X97880477Y-104414762D01*
X97785239Y-104462381D01*
X97547143Y-104462381D01*
X97451905Y-104414762D01*
X97404286Y-104367143D01*
X98880477Y-103462381D02*
X98404286Y-103462381D01*
X98356667Y-103938571D01*
X98404286Y-103890952D01*
X98499524Y-103843333D01*
X98737620Y-103843333D01*
X98832858Y-103890952D01*
X98880477Y-103938571D01*
X98928096Y-104033810D01*
X98928096Y-104271905D01*
X98880477Y-104367143D01*
X98832858Y-104414762D01*
X98737620Y-104462381D01*
X98499524Y-104462381D01*
X98404286Y-104414762D01*
X98356667Y-104367143D01*
X99832858Y-103462381D02*
X99356667Y-103462381D01*
X99309048Y-103938571D01*
X99356667Y-103890952D01*
X99451905Y-103843333D01*
X99690001Y-103843333D01*
X99785239Y-103890952D01*
X99832858Y-103938571D01*
X99880477Y-104033810D01*
X99880477Y-104271905D01*
X99832858Y-104367143D01*
X99785239Y-104414762D01*
X99690001Y-104462381D01*
X99451905Y-104462381D01*
X99356667Y-104414762D01*
X99309048Y-104367143D01*
X100309048Y-104462381D02*
X100309048Y-103462381D01*
X100880477Y-104462381D01*
X100880477Y-103462381D01*
X97418095Y-110192381D02*
X97418095Y-111001905D01*
X97465714Y-111097143D01*
X97513333Y-111144762D01*
X97608571Y-111192381D01*
X97799048Y-111192381D01*
X97894286Y-111144762D01*
X97941905Y-111097143D01*
X97989524Y-111001905D01*
X97989524Y-110192381D01*
X98370476Y-110192381D02*
X98989524Y-110192381D01*
X98656190Y-110573333D01*
X98799048Y-110573333D01*
X98894286Y-110620952D01*
X98941905Y-110668571D01*
X98989524Y-110763810D01*
X98989524Y-111001905D01*
X98941905Y-111097143D01*
X98894286Y-111144762D01*
X98799048Y-111192381D01*
X98513333Y-111192381D01*
X98418095Y-111144762D01*
X98370476Y-111097143D01*
X95975715Y-120382381D02*
X95499524Y-120382381D01*
X95499524Y-119382381D01*
X96309048Y-120382381D02*
X96309048Y-119382381D01*
X96642382Y-120096667D01*
X96975715Y-119382381D01*
X96975715Y-120382381D01*
X97928096Y-119382381D02*
X97451905Y-119382381D01*
X97404286Y-119858571D01*
X97451905Y-119810952D01*
X97547143Y-119763333D01*
X97785239Y-119763333D01*
X97880477Y-119810952D01*
X97928096Y-119858571D01*
X97975715Y-119953810D01*
X97975715Y-120191905D01*
X97928096Y-120287143D01*
X97880477Y-120334762D01*
X97785239Y-120382381D01*
X97547143Y-120382381D01*
X97451905Y-120334762D01*
X97404286Y-120287143D01*
X98880477Y-119382381D02*
X98404286Y-119382381D01*
X98356667Y-119858571D01*
X98404286Y-119810952D01*
X98499524Y-119763333D01*
X98737620Y-119763333D01*
X98832858Y-119810952D01*
X98880477Y-119858571D01*
X98928096Y-119953810D01*
X98928096Y-120191905D01*
X98880477Y-120287143D01*
X98832858Y-120334762D01*
X98737620Y-120382381D01*
X98499524Y-120382381D01*
X98404286Y-120334762D01*
X98356667Y-120287143D01*
X99832858Y-119382381D02*
X99356667Y-119382381D01*
X99309048Y-119858571D01*
X99356667Y-119810952D01*
X99451905Y-119763333D01*
X99690001Y-119763333D01*
X99785239Y-119810952D01*
X99832858Y-119858571D01*
X99880477Y-119953810D01*
X99880477Y-120191905D01*
X99832858Y-120287143D01*
X99785239Y-120334762D01*
X99690001Y-120382381D01*
X99451905Y-120382381D01*
X99356667Y-120334762D01*
X99309048Y-120287143D01*
X100309048Y-120382381D02*
X100309048Y-119382381D01*
X100880477Y-120382381D01*
X100880477Y-119382381D01*
X87788095Y-127222381D02*
X87788095Y-128031905D01*
X87835714Y-128127143D01*
X87883333Y-128174762D01*
X87978571Y-128222381D01*
X88169048Y-128222381D01*
X88264286Y-128174762D01*
X88311905Y-128127143D01*
X88359524Y-128031905D01*
X88359524Y-127222381D01*
X89264286Y-127555714D02*
X89264286Y-128222381D01*
X89026190Y-127174762D02*
X88788095Y-127889048D01*
X89407143Y-127889048D01*
D13*
X85917143Y-144212381D02*
X86583810Y-144212381D01*
X86155238Y-145212381D01*
X87393334Y-144545714D02*
X87393334Y-145212381D01*
X87155238Y-144164762D02*
X86917143Y-144879048D01*
X87536191Y-144879048D01*
X88393334Y-145212381D02*
X87917143Y-145212381D01*
X87917143Y-144212381D01*
X88679048Y-145164762D02*
X88821905Y-145212381D01*
X89060001Y-145212381D01*
X89155239Y-145164762D01*
X89202858Y-145117143D01*
X89250477Y-145021905D01*
X89250477Y-144926667D01*
X89202858Y-144831429D01*
X89155239Y-144783810D01*
X89060001Y-144736190D01*
X88869524Y-144688571D01*
X88774286Y-144640952D01*
X88726667Y-144593333D01*
X88679048Y-144498095D01*
X88679048Y-144402857D01*
X88726667Y-144307619D01*
X88774286Y-144260000D01*
X88869524Y-144212381D01*
X89107620Y-144212381D01*
X89250477Y-144260000D01*
X89869524Y-144212381D02*
X89964763Y-144212381D01*
X90060001Y-144260000D01*
X90107620Y-144307619D01*
X90155239Y-144402857D01*
X90202858Y-144593333D01*
X90202858Y-144831429D01*
X90155239Y-145021905D01*
X90107620Y-145117143D01*
X90060001Y-145164762D01*
X89964763Y-145212381D01*
X89869524Y-145212381D01*
X89774286Y-145164762D01*
X89726667Y-145117143D01*
X89679048Y-145021905D01*
X89631429Y-144831429D01*
X89631429Y-144593333D01*
X89679048Y-144402857D01*
X89726667Y-144307619D01*
X89774286Y-144260000D01*
X89869524Y-144212381D01*
X91060001Y-144545714D02*
X91060001Y-145212381D01*
X90821905Y-144164762D02*
X90583810Y-144879048D01*
X91202858Y-144879048D01*
D12*
X107188095Y-127202381D02*
X107188095Y-128011905D01*
X107235714Y-128107143D01*
X107283333Y-128154762D01*
X107378571Y-128202381D01*
X107569048Y-128202381D01*
X107664286Y-128154762D01*
X107711905Y-128107143D01*
X107759524Y-128011905D01*
X107759524Y-127202381D01*
X108711905Y-127202381D02*
X108235714Y-127202381D01*
X108188095Y-127678571D01*
X108235714Y-127630952D01*
X108330952Y-127583333D01*
X108569048Y-127583333D01*
X108664286Y-127630952D01*
X108711905Y-127678571D01*
X108759524Y-127773810D01*
X108759524Y-128011905D01*
X108711905Y-128107143D01*
X108664286Y-128154762D01*
X108569048Y-128202381D01*
X108330952Y-128202381D01*
X108235714Y-128154762D01*
X108188095Y-128107143D01*
D13*
X105297143Y-144212381D02*
X105963810Y-144212381D01*
X105535238Y-145212381D01*
X106773334Y-144545714D02*
X106773334Y-145212381D01*
X106535238Y-144164762D02*
X106297143Y-144879048D01*
X106916191Y-144879048D01*
X107773334Y-145212381D02*
X107297143Y-145212381D01*
X107297143Y-144212381D01*
X108059048Y-145164762D02*
X108201905Y-145212381D01*
X108440001Y-145212381D01*
X108535239Y-145164762D01*
X108582858Y-145117143D01*
X108630477Y-145021905D01*
X108630477Y-144926667D01*
X108582858Y-144831429D01*
X108535239Y-144783810D01*
X108440001Y-144736190D01*
X108249524Y-144688571D01*
X108154286Y-144640952D01*
X108106667Y-144593333D01*
X108059048Y-144498095D01*
X108059048Y-144402857D01*
X108106667Y-144307619D01*
X108154286Y-144260000D01*
X108249524Y-144212381D01*
X108487620Y-144212381D01*
X108630477Y-144260000D01*
X109249524Y-144212381D02*
X109344763Y-144212381D01*
X109440001Y-144260000D01*
X109487620Y-144307619D01*
X109535239Y-144402857D01*
X109582858Y-144593333D01*
X109582858Y-144831429D01*
X109535239Y-145021905D01*
X109487620Y-145117143D01*
X109440001Y-145164762D01*
X109344763Y-145212381D01*
X109249524Y-145212381D01*
X109154286Y-145164762D01*
X109106667Y-145117143D01*
X109059048Y-145021905D01*
X109011429Y-144831429D01*
X109011429Y-144593333D01*
X109059048Y-144402857D01*
X109106667Y-144307619D01*
X109154286Y-144260000D01*
X109249524Y-144212381D01*
X110154286Y-144640952D02*
X110059048Y-144593333D01*
X110011429Y-144545714D01*
X109963810Y-144450476D01*
X109963810Y-144402857D01*
X110011429Y-144307619D01*
X110059048Y-144260000D01*
X110154286Y-144212381D01*
X110344763Y-144212381D01*
X110440001Y-144260000D01*
X110487620Y-144307619D01*
X110535239Y-144402857D01*
X110535239Y-144450476D01*
X110487620Y-144545714D01*
X110440001Y-144593333D01*
X110344763Y-144640952D01*
X110154286Y-144640952D01*
X110059048Y-144688571D01*
X110011429Y-144736190D01*
X109963810Y-144831429D01*
X109963810Y-145021905D01*
X110011429Y-145117143D01*
X110059048Y-145164762D01*
X110154286Y-145212381D01*
X110344763Y-145212381D01*
X110440001Y-145164762D01*
X110487620Y-145117143D01*
X110535239Y-145021905D01*
X110535239Y-144831429D01*
X110487620Y-144736190D01*
X110440001Y-144688571D01*
X110344763Y-144640952D01*
D12*
X126538095Y-127692381D02*
X126538095Y-128501905D01*
X126585714Y-128597143D01*
X126633333Y-128644762D01*
X126728571Y-128692381D01*
X126919048Y-128692381D01*
X127014286Y-128644762D01*
X127061905Y-128597143D01*
X127109524Y-128501905D01*
X127109524Y-127692381D01*
X128014286Y-127692381D02*
X127823809Y-127692381D01*
X127728571Y-127740000D01*
X127680952Y-127787619D01*
X127585714Y-127930476D01*
X127538095Y-128120952D01*
X127538095Y-128501905D01*
X127585714Y-128597143D01*
X127633333Y-128644762D01*
X127728571Y-128692381D01*
X127919048Y-128692381D01*
X128014286Y-128644762D01*
X128061905Y-128597143D01*
X128109524Y-128501905D01*
X128109524Y-128263810D01*
X128061905Y-128168571D01*
X128014286Y-128120952D01*
X127919048Y-128073333D01*
X127728571Y-128073333D01*
X127633333Y-128120952D01*
X127585714Y-128168571D01*
X127538095Y-128263810D01*
D13*
X124667143Y-144422381D02*
X125333810Y-144422381D01*
X124905238Y-145422381D01*
X126143334Y-144755714D02*
X126143334Y-145422381D01*
X125905238Y-144374762D02*
X125667143Y-145089048D01*
X126286191Y-145089048D01*
X127143334Y-145422381D02*
X126667143Y-145422381D01*
X126667143Y-144422381D01*
X127429048Y-145374762D02*
X127571905Y-145422381D01*
X127810001Y-145422381D01*
X127905239Y-145374762D01*
X127952858Y-145327143D01*
X128000477Y-145231905D01*
X128000477Y-145136667D01*
X127952858Y-145041429D01*
X127905239Y-144993810D01*
X127810001Y-144946190D01*
X127619524Y-144898571D01*
X127524286Y-144850952D01*
X127476667Y-144803333D01*
X127429048Y-144708095D01*
X127429048Y-144612857D01*
X127476667Y-144517619D01*
X127524286Y-144470000D01*
X127619524Y-144422381D01*
X127857620Y-144422381D01*
X128000477Y-144470000D01*
X128333810Y-144422381D02*
X128952858Y-144422381D01*
X128619524Y-144803333D01*
X128762382Y-144803333D01*
X128857620Y-144850952D01*
X128905239Y-144898571D01*
X128952858Y-144993810D01*
X128952858Y-145231905D01*
X128905239Y-145327143D01*
X128857620Y-145374762D01*
X128762382Y-145422381D01*
X128476667Y-145422381D01*
X128381429Y-145374762D01*
X128333810Y-145327143D01*
X129333810Y-144517619D02*
X129381429Y-144470000D01*
X129476667Y-144422381D01*
X129714763Y-144422381D01*
X129810001Y-144470000D01*
X129857620Y-144517619D01*
X129905239Y-144612857D01*
X129905239Y-144708095D01*
X129857620Y-144850952D01*
X129286191Y-145422381D01*
X129905239Y-145422381D01*
D12*
X120333334Y-104357143D02*
X120285715Y-104404762D01*
X120142858Y-104452381D01*
X120047620Y-104452381D01*
X119904762Y-104404762D01*
X119809524Y-104309524D01*
X119761905Y-104214286D01*
X119714286Y-104023810D01*
X119714286Y-103880952D01*
X119761905Y-103690476D01*
X119809524Y-103595238D01*
X119904762Y-103500000D01*
X120047620Y-103452381D01*
X120142858Y-103452381D01*
X120285715Y-103500000D01*
X120333334Y-103547619D01*
X121238096Y-103452381D02*
X120761905Y-103452381D01*
X120714286Y-103928571D01*
X120761905Y-103880952D01*
X120857143Y-103833333D01*
X121095239Y-103833333D01*
X121190477Y-103880952D01*
X121238096Y-103928571D01*
X121285715Y-104023810D01*
X121285715Y-104261905D01*
X121238096Y-104357143D01*
X121190477Y-104404762D01*
X121095239Y-104452381D01*
X120857143Y-104452381D01*
X120761905Y-104404762D01*
X120714286Y-104357143D01*
X119000000Y-99452381D02*
X119095239Y-99452381D01*
X119190477Y-99500000D01*
X119238096Y-99547619D01*
X119285715Y-99642857D01*
X119333334Y-99833333D01*
X119333334Y-100071429D01*
X119285715Y-100261905D01*
X119238096Y-100357143D01*
X119190477Y-100404762D01*
X119095239Y-100452381D01*
X119000000Y-100452381D01*
X118904762Y-100404762D01*
X118857143Y-100357143D01*
X118809524Y-100261905D01*
X118761905Y-100071429D01*
X118761905Y-99833333D01*
X118809524Y-99642857D01*
X118857143Y-99547619D01*
X118904762Y-99500000D01*
X119000000Y-99452381D01*
X119761905Y-100357143D02*
X119809524Y-100404762D01*
X119761905Y-100452381D01*
X119714286Y-100404762D01*
X119761905Y-100357143D01*
X119761905Y-100452381D01*
X120761905Y-100452381D02*
X120190476Y-100452381D01*
X120476190Y-100452381D02*
X120476190Y-99452381D01*
X120380952Y-99595238D01*
X120285714Y-99690476D01*
X120190476Y-99738095D01*
X121619048Y-99785714D02*
X121619048Y-100452381D01*
X121190476Y-99785714D02*
X121190476Y-100309524D01*
X121238095Y-100404762D01*
X121333333Y-100452381D01*
X121476191Y-100452381D01*
X121571429Y-100404762D01*
X121619048Y-100357143D01*
X121952381Y-99785714D02*
X122333333Y-99785714D01*
X122095238Y-100452381D02*
X122095238Y-99595238D01*
X122142857Y-99500000D01*
X122238095Y-99452381D01*
X122333333Y-99452381D01*
M02*
