G04 This is an RS-274x file exported by *
G04 gerbv version 2.6.0 *
G04 More information is available about gerbv at *
G04 http://gerbv.gpleda.org/ *
G04 --End of header info--*
%MOIN*%
%FSLAX34Y34*%
%IPPOS*%
G04 --Define apertures--*
%ADD10C,0.0039*%
%ADD11R,0.0630X0.0630*%
%ADD12C,0.0630*%
%ADD13R,0.0709X0.0709*%
%ADD14C,0.0709*%
%ADD15C,0.1600*%
%ADD16C,0.0450*%
%ADD17C,0.0787*%
%ADD18R,0.1969X0.3937*%
%ADD19O,0.0630X0.0630*%
%ADD20C,0.0270*%
%ADD21C,0.0060*%
G04 --Start main section--*
G54D11*
G01X0048622Y-031693D03*
G54D12*
G01X0049606Y-031693D03*
G01X0044488Y-033661D03*
G01X0042520Y-033661D03*
G01X0042520Y-040157D03*
G01X0044488Y-040157D03*
G01X0044882Y-046654D03*
G01X0042913Y-046654D03*
G54D13*
G01X0032465Y-033071D03*
G54D14*
G01X0033465Y-033071D03*
G54D13*
G01X0032465Y-039764D03*
G54D14*
G01X0033465Y-039764D03*
G54D13*
G01X0032465Y-045866D03*
G54D14*
G01X0033465Y-045866D03*
G54D13*
G01X0036992Y-061024D03*
G54D14*
G01X0037992Y-061024D03*
G54D15*
G01X0044685Y-061417D03*
G54D16*
G01X0047835Y-061417D03*
G54D17*
G01X0046654Y-061417D03*
G01X0049803Y-025000D03*
G01X0035236Y-025000D03*
G01X0040945Y-025000D03*
G54D18*
G01X0052165Y-025984D03*
G01X0032874Y-025984D03*
G54D12*
G01X0035236Y-029921D03*
G54D19*
G01X0035236Y-033921D03*
G54D12*
G01X0043244Y-030512D03*
G54D19*
G01X0047244Y-030512D03*
G54D12*
G01X0047244Y-031890D03*
G54D19*
G01X0043244Y-031890D03*
G54D12*
G01X0043504Y-037008D03*
G54D19*
G01X0047504Y-037008D03*
G54D12*
G01X0035236Y-036551D03*
G54D19*
G01X0035236Y-040551D03*
G54D12*
G01X0047504Y-038583D03*
G54D19*
G01X0043504Y-038583D03*
G54D12*
G01X0047602Y-043307D03*
G54D19*
G01X0043602Y-043307D03*
G54D12*
G01X0043602Y-044783D03*
G54D19*
G01X0047602Y-044783D03*
G54D12*
G01X0035236Y-042654D03*
G54D19*
G01X0035236Y-046654D03*
G54D12*
G01X0035433Y-058661D03*
G54D19*
G01X0039433Y-058661D03*
G54D13*
G01X0051378Y-044063D03*
G54D14*
G01X0051378Y-045063D03*
G01X0051378Y-046063D03*
G54D17*
G01X0052362Y-036811D03*
G01X0052362Y-038583D03*
G01X0049803Y-036811D03*
G01X0049803Y-038583D03*
G54D11*
G01X0037157Y-030496D03*
G54D19*
G01X0040157Y-033496D03*
G01X0037157Y-031496D03*
G01X0040157Y-032496D03*
G01X0037157Y-032496D03*
G01X0040157Y-031496D03*
G01X0037157Y-033496D03*
G01X0040157Y-030496D03*
G54D11*
G01X0037157Y-037008D03*
G54D19*
G01X0040157Y-040008D03*
G01X0037157Y-038008D03*
G01X0040157Y-039008D03*
G01X0037157Y-039008D03*
G01X0040157Y-038008D03*
G01X0037157Y-040008D03*
G01X0040157Y-037008D03*
G54D11*
G01X0037157Y-043276D03*
G54D19*
G01X0040157Y-046276D03*
G01X0037157Y-044276D03*
G01X0040157Y-045276D03*
G01X0037157Y-045276D03*
G01X0040157Y-044276D03*
G01X0037157Y-046276D03*
G01X0040157Y-043276D03*
G54D11*
G01X0033366Y-050051D03*
G54D19*
G01X0036366Y-056051D03*
G01X0033366Y-051051D03*
G01X0036366Y-055051D03*
G01X0033366Y-052051D03*
G01X0036366Y-054051D03*
G01X0033366Y-053051D03*
G01X0036366Y-053051D03*
G01X0033366Y-054051D03*
G01X0036366Y-052051D03*
G01X0033366Y-055051D03*
G01X0036366Y-051051D03*
G01X0033366Y-056051D03*
G01X0036366Y-050051D03*
G54D11*
G01X0040996Y-050051D03*
G54D19*
G01X0043996Y-056051D03*
G01X0040996Y-051051D03*
G01X0043996Y-055051D03*
G01X0040996Y-052051D03*
G01X0043996Y-054051D03*
G01X0040996Y-053051D03*
G01X0043996Y-053051D03*
G01X0040996Y-054051D03*
G01X0043996Y-052051D03*
G01X0040996Y-055051D03*
G01X0043996Y-051051D03*
G01X0040996Y-056051D03*
G01X0043996Y-050051D03*
G54D11*
G01X0048622Y-050134D03*
G54D19*
G01X0051622Y-056134D03*
G01X0048622Y-051134D03*
G01X0051622Y-055134D03*
G01X0048622Y-052134D03*
G01X0051622Y-054134D03*
G01X0048622Y-053134D03*
G01X0051622Y-053134D03*
G01X0048622Y-054134D03*
G01X0051622Y-052134D03*
G01X0048622Y-055134D03*
G01X0051622Y-051134D03*
G01X0048622Y-056134D03*
G01X0051622Y-050134D03*
G54D12*
G01X0048425Y-040157D03*
G01X0046457Y-040157D03*
G54D20*
G01X0052983Y-039567D03*
G01X0052983Y-049016D03*
G01X0052983Y-041732D03*
G01X0041339Y-034252D03*
G01X0041929Y-028937D03*
G01X0050591Y-028937D03*
G01X0040945Y-047638D03*
G01X0039862Y-048130D03*
G01X0033823Y-048194D03*
G01X0042717Y-057480D03*
G01X0034646Y-057480D03*
G01X0048622Y-048622D03*
G01X0045472Y-048622D03*
G01X0043012Y-052067D03*
G01X0040945Y-028346D03*
G01X0034547Y-028740D03*
G01X0034154Y-048524D03*
G01X0041535Y-048524D03*
G01X0045177Y-049409D03*
G54D21*
G01X0048622Y-031693D02*
G01X0048622Y-032068D01*
G01X0048622Y-032068D02*
G01X0048258Y-032432D01*
G01X0048258Y-032432D02*
G01X0043786Y-032432D01*
G01X0043786Y-032432D02*
G01X0043559Y-032205D01*
G01X0043559Y-032205D02*
G01X0043244Y-031890D01*
G01X0040157Y-032496D02*
G01X0038157Y-032496D01*
G01X0038157Y-032496D02*
G01X0037157Y-031496D01*
G01X0043244Y-031890D02*
G01X0040764Y-031890D01*
G01X0040764Y-031890D02*
G01X0040157Y-032496D01*
G01X0052165Y-025984D02*
G01X0050787Y-025984D01*
G01X0050787Y-025984D02*
G01X0049803Y-025000D01*
G01X0048124Y-039203D02*
G01X0052619Y-039203D01*
G01X0047504Y-038583D02*
G01X0048124Y-039203D01*
G01X0052619Y-039203D02*
G01X0052983Y-039567D01*
G01X0045276Y-049016D02*
G01X0037402Y-049016D01*
G01X0037402Y-049016D02*
G01X0036366Y-050051D01*
G01X0052067Y-049016D02*
G01X0045276Y-049016D01*
G01X0045276Y-049016D02*
G01X0045031Y-049016D01*
G01X0045031Y-049016D02*
G01X0043996Y-050051D01*
G01X0052264Y-049016D02*
G01X0052067Y-049016D01*
G01X0052983Y-049016D02*
G01X0052264Y-049016D01*
G01X0052264Y-049016D02*
G01X0052264Y-049492D01*
G01X0052264Y-049492D02*
G01X0051622Y-050134D01*
G01X0052362Y-041732D02*
G01X0052983Y-041732D01*
G01X0052362Y-041732D02*
G01X0042126Y-041732D01*
G01X0041339Y-034252D02*
G01X0037913Y-034252D01*
G01X0037913Y-034252D02*
G01X0037157Y-033496D01*
G01X0041929Y-028937D02*
G01X0041717Y-028937D01*
G01X0045079Y-028937D02*
G01X0041929Y-028937D01*
G01X0045079Y-028937D02*
G01X0044819Y-028937D01*
G01X0050591Y-028937D02*
G01X0045079Y-028937D01*
G01X0041717Y-028937D02*
G01X0040157Y-030496D01*
G01X0044819Y-028937D02*
G01X0043244Y-030512D01*
G01X0043504Y-037008D02*
G01X0043189Y-036693D01*
G01X0043189Y-036693D02*
G01X0040472Y-036693D01*
G01X0040472Y-036693D02*
G01X0040157Y-037008D01*
G01X0047504Y-038583D02*
G01X0045929Y-037008D01*
G01X0045929Y-037008D02*
G01X0043504Y-037008D01*
G01X0042126Y-041732D02*
G01X0041701Y-041732D01*
G01X0042126Y-041732D02*
G01X0038882Y-041732D01*
G01X0038882Y-041732D02*
G01X0037157Y-040008D01*
G01X0041701Y-041732D02*
G01X0040157Y-043276D01*
G01X0044488Y-033661D02*
G01X0043946Y-033120D01*
G01X0043946Y-033120D02*
G01X0040534Y-033120D01*
G01X0040534Y-033120D02*
G01X0040472Y-033181D01*
G01X0040472Y-033181D02*
G01X0040157Y-033496D01*
G01X0042520Y-040157D02*
G01X0040307Y-040157D01*
G01X0040307Y-040157D02*
G01X0040157Y-040008D01*
G01X0040945Y-047638D02*
G01X0043898Y-047638D01*
G01X0043898Y-047638D02*
G01X0044882Y-046654D01*
G01X0046457Y-040157D02*
G01X0044882Y-038583D01*
G01X0044882Y-038583D02*
G01X0043504Y-038583D01*
G01X0043504Y-038583D02*
G01X0040583Y-038583D01*
G01X0040583Y-038583D02*
G01X0040157Y-039008D01*
G01X0043504Y-038583D02*
G01X0042929Y-038008D01*
G01X0042929Y-038008D02*
G01X0040157Y-038008D01*
G01X0035236Y-033921D02*
G01X0032901Y-033921D01*
G01X0032901Y-033921D02*
G01X0032465Y-033485D01*
G01X0032465Y-033485D02*
G01X0032465Y-033071D01*
G01X0037157Y-032496D02*
G01X0034039Y-032496D01*
G01X0034039Y-032496D02*
G01X0033465Y-033071D01*
G01X0035236Y-040551D02*
G01X0032838Y-040551D01*
G01X0032465Y-040178D02*
G01X0032465Y-039764D01*
G01X0032838Y-040551D02*
G01X0032465Y-040178D01*
G01X0037157Y-039008D02*
G01X0034220Y-039008D01*
G01X0034220Y-039008D02*
G01X0033465Y-039764D01*
G01X0035236Y-046654D02*
G01X0032838Y-046654D01*
G01X0032838Y-046654D02*
G01X0032465Y-046280D01*
G01X0032465Y-046280D02*
G01X0032465Y-045866D01*
G01X0034012Y-048130D02*
G01X0039862Y-048130D01*
G01X0033823Y-048194D02*
G01X0033887Y-048130D01*
G01X0033887Y-048130D02*
G01X0034012Y-048130D01*
G01X0037157Y-045276D02*
G01X0034055Y-045276D01*
G01X0034055Y-045276D02*
G01X0033465Y-045866D01*
G01X0036992Y-061024D02*
G01X0036992Y-060609D01*
G01X0036992Y-060609D02*
G01X0038940Y-058661D01*
G01X0038940Y-058661D02*
G01X0038988Y-058661D01*
G01X0038988Y-058661D02*
G01X0039433Y-058661D01*
G01X0043996Y-056051D02*
G01X0043681Y-056366D01*
G01X0043681Y-056366D02*
G01X0043681Y-057051D01*
G01X0043681Y-057051D02*
G01X0039709Y-061024D01*
G01X0039709Y-061024D02*
G01X0038493Y-061024D01*
G01X0038493Y-061024D02*
G01X0037992Y-061024D01*
G01X0044685Y-061417D02*
G01X0044685Y-056740D01*
G01X0044685Y-056740D02*
G01X0043996Y-056051D01*
G01X0046654Y-061417D02*
G01X0047210Y-061417D01*
G01X0047210Y-061417D02*
G01X0047835Y-061417D01*
G01X0044685Y-061417D02*
G01X0045816Y-061417D01*
G01X0045816Y-061417D02*
G01X0046654Y-061417D01*
G01X0034646Y-057480D02*
G01X0042717Y-057480D01*
G01X0045472Y-048622D02*
G01X0048622Y-048622D01*
G01X0040996Y-052051D02*
G01X0042996Y-052051D01*
G01X0042996Y-052051D02*
G01X0043012Y-052067D01*
G01X0032874Y-025984D02*
G01X0034252Y-025984D01*
G01X0034252Y-025984D02*
G01X0035236Y-025000D01*
G01X0052362Y-038583D02*
G01X0049803Y-038583D01*
G01X0034547Y-028740D02*
G01X0034941Y-028346D01*
G01X0034941Y-028346D02*
G01X0040945Y-028346D01*
G01X0041535Y-048524D02*
G01X0034154Y-048524D01*
G01X0043996Y-055051D02*
G01X0045705Y-055051D01*
G01X0045705Y-055051D02*
G01X0048622Y-052134D01*
G01X0045177Y-049409D02*
G01X0046902Y-051134D01*
G01X0046902Y-051134D02*
G01X0048622Y-051134D01*
G01X0047244Y-030512D02*
G01X0046702Y-031054D01*
G01X0046702Y-031054D02*
G01X0040600Y-031054D01*
G01X0040600Y-031054D02*
G01X0040472Y-031181D01*
G01X0040472Y-031181D02*
G01X0040157Y-031496D01*
G01X0049803Y-036811D02*
G01X0050360Y-036811D01*
G01X0050360Y-036811D02*
G01X0052362Y-036811D01*
G01X0047504Y-037008D02*
G01X0049606Y-037008D01*
G01X0049606Y-037008D02*
G01X0049803Y-036811D01*
G01X0037157Y-038008D02*
G01X0038729Y-036436D01*
G01X0038729Y-036436D02*
G01X0046932Y-036436D01*
G01X0046932Y-036436D02*
G01X0047189Y-036693D01*
G01X0047189Y-036693D02*
G01X0047504Y-037008D01*
G01X0051378Y-044063D02*
G01X0044358Y-044063D01*
G01X0044358Y-044063D02*
G01X0043602Y-043307D01*
G01X0043602Y-043307D02*
G01X0043061Y-043849D01*
G01X0043061Y-043849D02*
G01X0043061Y-044174D01*
G01X0043061Y-044174D02*
G01X0040418Y-046817D01*
G01X0040418Y-046817D02*
G01X0039699Y-046817D01*
G01X0039699Y-046817D02*
G01X0037472Y-044591D01*
G01X0037472Y-044591D02*
G01X0037157Y-044276D01*
G01X0051378Y-046063D02*
G01X0044882Y-046063D01*
G01X0044882Y-046063D02*
G01X0043602Y-044783D01*
G01X0043602Y-044783D02*
G01X0043157Y-044783D01*
G01X0043157Y-044783D02*
G01X0040866Y-047074D01*
G01X0037956Y-047074D02*
G01X0037472Y-046591D01*
G01X0040866Y-047074D02*
G01X0037956Y-047074D01*
G01X0037472Y-046591D02*
G01X0037157Y-046276D01*
M02*
