G04 #@! TF.FileFunction,Copper,L1,Top,Signal*
%FSLAX46Y46*%
G04 Gerber Fmt 4.6, Leading zero omitted, Abs format (unit mm)*
G04 Created by KiCad (PCBNEW 4.0.5-e0-6337~49~ubuntu16.04.1) date Sun Mar 26 15:46:02 2017*
%MOMM*%
%LPD*%
G01*
G04 APERTURE LIST*
%ADD10C,0.100000*%
%ADD11R,1.600000X1.600000*%
%ADD12C,1.600000*%
%ADD13R,1.800000X1.800000*%
%ADD14C,1.800000*%
%ADD15C,4.064000*%
%ADD16C,1.143000*%
%ADD17C,2.000000*%
%ADD18R,5.000000X10.000000*%
%ADD19O,1.600000X1.600000*%
%ADD20C,0.685800*%
%ADD21C,0.152400*%
%ADD22C,0.300000*%
G04 APERTURE END LIST*
D10*
D11*
X123500000Y-80500000D03*
D12*
X126000000Y-80500000D03*
X113000000Y-85500000D03*
X108000000Y-85500000D03*
X108000000Y-102000000D03*
X113000000Y-102000000D03*
X114000000Y-118500000D03*
X109000000Y-118500000D03*
D13*
X82460000Y-84000000D03*
D14*
X85000000Y-84000000D03*
D13*
X82460000Y-101000000D03*
D14*
X85000000Y-101000000D03*
D13*
X82460000Y-116500000D03*
D14*
X85000000Y-116500000D03*
D13*
X93960000Y-155000000D03*
D14*
X96500000Y-155000000D03*
D15*
X113500000Y-156000000D03*
D16*
X121500000Y-156000000D03*
D17*
X118500000Y-156000000D03*
X126500000Y-63500000D03*
X89500000Y-63500000D03*
X104000000Y-63500000D03*
D18*
X132500000Y-66000000D03*
X83500000Y-66000000D03*
D12*
X89500000Y-76000000D03*
D19*
X89500000Y-86160000D03*
D12*
X109840000Y-77500000D03*
D19*
X120000000Y-77500000D03*
D12*
X120000000Y-81000000D03*
D19*
X109840000Y-81000000D03*
D12*
X110500000Y-94000000D03*
D19*
X120660000Y-94000000D03*
D12*
X89500000Y-92840000D03*
D19*
X89500000Y-103000000D03*
D12*
X120660000Y-98000000D03*
D19*
X110500000Y-98000000D03*
D12*
X120910000Y-110000000D03*
D19*
X110750000Y-110000000D03*
D12*
X110750000Y-113750000D03*
D19*
X120910000Y-113750000D03*
D12*
X89500000Y-108340000D03*
D19*
X89500000Y-118500000D03*
D12*
X90000000Y-149000000D03*
D19*
X100160000Y-149000000D03*
D13*
X130500000Y-111920000D03*
D14*
X130500000Y-114460000D03*
X130500000Y-117000000D03*
D17*
X133000000Y-93500000D03*
X133000000Y-98000000D03*
X126500000Y-93500000D03*
X126500000Y-98000000D03*
D11*
X94380000Y-77460000D03*
D19*
X102000000Y-85080000D03*
X94380000Y-80000000D03*
X102000000Y-82540000D03*
X94380000Y-82540000D03*
X102000000Y-80000000D03*
X94380000Y-85080000D03*
X102000000Y-77460000D03*
D11*
X94380000Y-94000000D03*
D19*
X102000000Y-101620000D03*
X94380000Y-96540000D03*
X102000000Y-99080000D03*
X94380000Y-99080000D03*
X102000000Y-96540000D03*
X94380000Y-101620000D03*
X102000000Y-94000000D03*
D11*
X94380000Y-109920000D03*
D19*
X102000000Y-117540000D03*
X94380000Y-112460000D03*
X102000000Y-115000000D03*
X94380000Y-115000000D03*
X102000000Y-112460000D03*
X94380000Y-117540000D03*
X102000000Y-109920000D03*
D11*
X84750000Y-127130000D03*
D19*
X92370000Y-142370000D03*
X84750000Y-129670000D03*
X92370000Y-139830000D03*
X84750000Y-132210000D03*
X92370000Y-137290000D03*
X84750000Y-134750000D03*
X92370000Y-134750000D03*
X84750000Y-137290000D03*
X92370000Y-132210000D03*
X84750000Y-139830000D03*
X92370000Y-129670000D03*
X84750000Y-142370000D03*
X92370000Y-127130000D03*
D11*
X104130000Y-127130000D03*
D19*
X111750000Y-142370000D03*
X104130000Y-129670000D03*
X111750000Y-139830000D03*
X104130000Y-132210000D03*
X111750000Y-137290000D03*
X104130000Y-134750000D03*
X111750000Y-134750000D03*
X104130000Y-137290000D03*
X111750000Y-132210000D03*
X104130000Y-139830000D03*
X111750000Y-129670000D03*
X104130000Y-142370000D03*
X111750000Y-127130000D03*
D11*
X123500000Y-127340000D03*
D19*
X131120000Y-142580000D03*
X123500000Y-129880000D03*
X131120000Y-140040000D03*
X123500000Y-132420000D03*
X131120000Y-137500000D03*
X123500000Y-134960000D03*
X131120000Y-134960000D03*
X123500000Y-137500000D03*
X131120000Y-132420000D03*
X123500000Y-140040000D03*
X131120000Y-129880000D03*
X123500000Y-142580000D03*
X131120000Y-127340000D03*
D12*
X123000000Y-102000000D03*
X118000000Y-102000000D03*
D20*
X124000000Y-114000000D03*
X124000000Y-108000000D03*
X134576201Y-100500000D03*
X134576201Y-124500000D03*
X134576201Y-106000000D03*
X105000000Y-87000000D03*
X106500000Y-73500000D03*
X128500000Y-73500000D03*
X104000000Y-121000000D03*
X101250000Y-122250000D03*
X85911512Y-122411512D03*
X108500000Y-146000000D03*
X88000000Y-146000000D03*
X123500000Y-123500000D03*
X115500000Y-123500000D03*
X109250000Y-132250000D03*
X104000000Y-72000000D03*
X87750000Y-73000000D03*
X86750000Y-123250000D03*
X105500000Y-123250000D03*
X117000000Y-128500000D03*
D21*
X123500000Y-80500000D02*
X123500000Y-81452400D01*
X123500000Y-81452400D02*
X122576199Y-82376201D01*
X122576199Y-82376201D02*
X111216201Y-82376201D01*
X111216201Y-82376201D02*
X110639999Y-81799999D01*
X110639999Y-81799999D02*
X109840000Y-81000000D01*
X102000000Y-82540000D02*
X96920000Y-82540000D01*
X96920000Y-82540000D02*
X94380000Y-80000000D01*
X109840000Y-81000000D02*
X103540000Y-81000000D01*
X103540000Y-81000000D02*
X102000000Y-82540000D01*
X120910000Y-113750000D02*
X123750000Y-113750000D01*
X123750000Y-113750000D02*
X124000000Y-114000000D01*
D22*
X124000000Y-106000000D02*
X107000000Y-106000000D01*
X133000000Y-106000000D02*
X124000000Y-106000000D01*
D21*
X124000000Y-106000000D02*
X124000000Y-108000000D01*
D22*
X120660000Y-98000000D02*
X123160000Y-100500000D01*
X123160000Y-100500000D02*
X134576201Y-100500000D01*
X132500000Y-66000000D02*
X129000000Y-66000000D01*
X129000000Y-66000000D02*
X126500000Y-63500000D01*
X115000000Y-124500000D02*
X95000000Y-124500000D01*
X95000000Y-124500000D02*
X92370000Y-127130000D01*
X132250000Y-124500000D02*
X115000000Y-124500000D01*
D21*
X115000000Y-124500000D02*
X114380000Y-124500000D01*
D22*
X114380000Y-124500000D02*
X111750000Y-127130000D01*
X132750000Y-124500000D02*
X132250000Y-124500000D01*
X134576201Y-124500000D02*
X132750000Y-124500000D01*
X132750000Y-124500000D02*
X132750000Y-125710000D01*
X132750000Y-125710000D02*
X131120000Y-127340000D01*
X133000000Y-106000000D02*
X134576201Y-106000000D01*
X105000000Y-87000000D02*
X96300000Y-87000000D01*
X96300000Y-87000000D02*
X94380000Y-85080000D01*
X106500000Y-73500000D02*
X105960000Y-73500000D01*
X114500000Y-73500000D02*
X106500000Y-73500000D01*
D21*
X114500000Y-73500000D02*
X113840000Y-73500000D01*
D22*
X128500000Y-73500000D02*
X114500000Y-73500000D01*
X105960000Y-73500000D02*
X102000000Y-77460000D01*
X113840000Y-73500000D02*
X109840000Y-77500000D01*
X110500000Y-94000000D02*
X109700001Y-93200001D01*
X109700001Y-93200001D02*
X102799999Y-93200001D01*
X102799999Y-93200001D02*
X102000000Y-94000000D01*
X120660000Y-98000000D02*
X116660000Y-94000000D01*
X116660000Y-94000000D02*
X110500000Y-94000000D01*
D21*
X107000000Y-106000000D02*
X105920000Y-106000000D01*
D22*
X107000000Y-106000000D02*
X98760000Y-106000000D01*
X98760000Y-106000000D02*
X94380000Y-101620000D01*
X105920000Y-106000000D02*
X102000000Y-109920000D01*
D21*
X113000000Y-85500000D02*
X111623799Y-84123799D01*
X111623799Y-84123799D02*
X102956201Y-84123799D01*
X102956201Y-84123799D02*
X102799999Y-84280001D01*
X102799999Y-84280001D02*
X102000000Y-85080000D01*
X108000000Y-102000000D02*
X102380000Y-102000000D01*
X102380000Y-102000000D02*
X102000000Y-101620000D01*
X104000000Y-121000000D02*
X111500000Y-121000000D01*
X111500000Y-121000000D02*
X114000000Y-118500000D01*
X118000000Y-102000000D02*
X114000000Y-98000000D01*
X114000000Y-98000000D02*
X110500000Y-98000000D01*
X110500000Y-98000000D02*
X103080000Y-98000000D01*
X103080000Y-98000000D02*
X102000000Y-99080000D01*
X110500000Y-98000000D02*
X109040000Y-96540000D01*
X109040000Y-96540000D02*
X102000000Y-96540000D01*
X89500000Y-86160000D02*
X83567600Y-86160000D01*
X83567600Y-86160000D02*
X82460000Y-85052400D01*
X82460000Y-85052400D02*
X82460000Y-84000000D01*
X94380000Y-82540000D02*
X86460000Y-82540000D01*
X86460000Y-82540000D02*
X85000000Y-84000000D01*
X89500000Y-103000000D02*
X83407600Y-103000000D01*
X82460000Y-102052400D02*
X82460000Y-101000000D01*
X83407600Y-103000000D02*
X82460000Y-102052400D01*
X94380000Y-99080000D02*
X86920000Y-99080000D01*
X86920000Y-99080000D02*
X85000000Y-101000000D01*
X89500000Y-118500000D02*
X83407600Y-118500000D01*
X83407600Y-118500000D02*
X82460000Y-117552400D01*
X82460000Y-117552400D02*
X82460000Y-116500000D01*
X86389730Y-122250000D02*
X101250000Y-122250000D01*
X85911512Y-122411512D02*
X86073024Y-122250000D01*
X86073024Y-122250000D02*
X86389730Y-122250000D01*
X94380000Y-115000000D02*
X86500000Y-115000000D01*
X86500000Y-115000000D02*
X85000000Y-116500000D01*
X93960000Y-155000000D02*
X93960000Y-153947600D01*
X93960000Y-153947600D02*
X98907600Y-149000000D01*
X98907600Y-149000000D02*
X99028630Y-149000000D01*
X99028630Y-149000000D02*
X100160000Y-149000000D01*
X111750000Y-142370000D02*
X110950001Y-143169999D01*
X110950001Y-143169999D02*
X110950001Y-144910269D01*
X110950001Y-144910269D02*
X100860270Y-155000000D01*
X100860270Y-155000000D02*
X97772792Y-155000000D01*
X97772792Y-155000000D02*
X96500000Y-155000000D01*
X113500000Y-156000000D02*
X113500000Y-144120000D01*
X113500000Y-144120000D02*
X111750000Y-142370000D01*
X118500000Y-156000000D02*
X119914213Y-156000000D01*
X119914213Y-156000000D02*
X121500000Y-156000000D01*
X113500000Y-156000000D02*
X116373681Y-156000000D01*
X116373681Y-156000000D02*
X118500000Y-156000000D01*
X88000000Y-146000000D02*
X108500000Y-146000000D01*
X115500000Y-123500000D02*
X123500000Y-123500000D01*
X104130000Y-132210000D02*
X109210000Y-132210000D01*
X109210000Y-132210000D02*
X109250000Y-132250000D01*
D22*
X83500000Y-66000000D02*
X87000000Y-66000000D01*
X87000000Y-66000000D02*
X89500000Y-63500000D01*
D21*
X133000000Y-98000000D02*
X126500000Y-98000000D01*
X87750000Y-73000000D02*
X88750000Y-72000000D01*
X88750000Y-72000000D02*
X104000000Y-72000000D01*
X105500000Y-123250000D02*
X86750000Y-123250000D01*
X111750000Y-139830000D02*
X116090000Y-139830000D01*
X116090000Y-139830000D02*
X123500000Y-132420000D01*
X117000000Y-128500000D02*
X118380000Y-129880000D01*
X118380000Y-129880000D02*
X123500000Y-129880000D01*
X120000000Y-77500000D02*
X118623799Y-78876201D01*
X118623799Y-78876201D02*
X103123799Y-78876201D01*
X103123799Y-78876201D02*
X102799999Y-79200001D01*
X102799999Y-79200001D02*
X102000000Y-80000000D01*
X100500000Y-90500000D02*
X117160000Y-90500000D01*
X117160000Y-90500000D02*
X120660000Y-94000000D01*
X95259999Y-95740001D02*
X100500000Y-90500000D01*
X94380000Y-96540000D02*
X95179999Y-95740001D01*
X95179999Y-95740001D02*
X95259999Y-95740001D01*
X126500000Y-93500000D02*
X127914213Y-93500000D01*
X127914213Y-93500000D02*
X133000000Y-93500000D01*
X120660000Y-94000000D02*
X126000000Y-94000000D01*
X126000000Y-94000000D02*
X126500000Y-93500000D01*
X130500000Y-111920000D02*
X112670000Y-111920000D01*
X112670000Y-111920000D02*
X110750000Y-110000000D01*
X110750000Y-110000000D02*
X109373799Y-111376201D01*
X109373799Y-111376201D02*
X109373799Y-112202979D01*
X109373799Y-112202979D02*
X102660577Y-118916201D01*
X102660577Y-118916201D02*
X100836201Y-118916201D01*
X100836201Y-118916201D02*
X95179999Y-113259999D01*
X95179999Y-113259999D02*
X94380000Y-112460000D01*
X130500000Y-117000000D02*
X114000000Y-117000000D01*
X114000000Y-117000000D02*
X110750000Y-113750000D01*
X110750000Y-113750000D02*
X109618630Y-113750000D01*
X109618630Y-113750000D02*
X103800019Y-119568611D01*
X96408611Y-119568611D02*
X95179999Y-118339999D01*
X103800019Y-119568611D02*
X96408611Y-119568611D01*
X95179999Y-118339999D02*
X94380000Y-117540000D01*
M02*
