G04 #@! TF.FileFunction,Copper,L2,Bot,Signal*
%FSLAX46Y46*%
G04 Gerber Fmt 4.6, Leading zero omitted, Abs format (unit mm)*
G04 Created by KiCad (PCBNEW 4.0.5-e0-6337~49~ubuntu16.04.1) date Tue Feb 28 14:29:49 2017*
%MOMM*%
%LPD*%
G01*
G04 APERTURE LIST*
%ADD10C,0.100000*%
%ADD11R,1.600000X1.600000*%
%ADD12C,1.600000*%
%ADD13R,1.800000X1.800000*%
%ADD14C,1.800000*%
%ADD15C,4.064000*%
%ADD16C,1.143000*%
%ADD17C,2.000000*%
%ADD18O,1.600000X1.600000*%
%ADD19C,0.685800*%
%ADD20C,0.152400*%
%ADD21C,0.254000*%
G04 APERTURE END LIST*
D10*
D11*
X123500000Y-80500000D03*
D12*
X126000000Y-80500000D03*
X113000000Y-85500000D03*
X108000000Y-85500000D03*
X108000000Y-102000000D03*
X113000000Y-102000000D03*
X114000000Y-118500000D03*
X109000000Y-118500000D03*
D13*
X82460000Y-84000000D03*
D14*
X85000000Y-84000000D03*
D13*
X82460000Y-101000000D03*
D14*
X85000000Y-101000000D03*
D13*
X82460000Y-116500000D03*
D14*
X85000000Y-116500000D03*
D13*
X93960000Y-155000000D03*
D14*
X96500000Y-155000000D03*
D15*
X113500000Y-156000000D03*
D16*
X121500000Y-156000000D03*
D17*
X118500000Y-156000000D03*
X126500000Y-63500000D03*
X89500000Y-63500000D03*
X104000000Y-63500000D03*
D12*
X89500000Y-76000000D03*
D18*
X89500000Y-86160000D03*
D12*
X109840000Y-77500000D03*
D18*
X120000000Y-77500000D03*
D12*
X120000000Y-81000000D03*
D18*
X109840000Y-81000000D03*
D12*
X110500000Y-94000000D03*
D18*
X120660000Y-94000000D03*
D12*
X89500000Y-92840000D03*
D18*
X89500000Y-103000000D03*
D12*
X120660000Y-98000000D03*
D18*
X110500000Y-98000000D03*
D12*
X120910000Y-110000000D03*
D18*
X110750000Y-110000000D03*
D12*
X110750000Y-113750000D03*
D18*
X120910000Y-113750000D03*
D12*
X89500000Y-108340000D03*
D18*
X89500000Y-118500000D03*
D12*
X90000000Y-149000000D03*
D18*
X100160000Y-149000000D03*
D13*
X130500000Y-111920000D03*
D14*
X130500000Y-114460000D03*
X130500000Y-117000000D03*
D17*
X133000000Y-93500000D03*
X133000000Y-98000000D03*
X126500000Y-93500000D03*
X126500000Y-98000000D03*
D11*
X94380000Y-77460000D03*
D18*
X102000000Y-85080000D03*
X94380000Y-80000000D03*
X102000000Y-82540000D03*
X94380000Y-82540000D03*
X102000000Y-80000000D03*
X94380000Y-85080000D03*
X102000000Y-77460000D03*
D11*
X94380000Y-94000000D03*
D18*
X102000000Y-101620000D03*
X94380000Y-96540000D03*
X102000000Y-99080000D03*
X94380000Y-99080000D03*
X102000000Y-96540000D03*
X94380000Y-101620000D03*
X102000000Y-94000000D03*
D11*
X94380000Y-109920000D03*
D18*
X102000000Y-117540000D03*
X94380000Y-112460000D03*
X102000000Y-115000000D03*
X94380000Y-115000000D03*
X102000000Y-112460000D03*
X94380000Y-117540000D03*
X102000000Y-109920000D03*
D11*
X84750000Y-127130000D03*
D18*
X92370000Y-142370000D03*
X84750000Y-129670000D03*
X92370000Y-139830000D03*
X84750000Y-132210000D03*
X92370000Y-137290000D03*
X84750000Y-134750000D03*
X92370000Y-134750000D03*
X84750000Y-137290000D03*
X92370000Y-132210000D03*
X84750000Y-139830000D03*
X92370000Y-129670000D03*
X84750000Y-142370000D03*
X92370000Y-127130000D03*
D11*
X104130000Y-127130000D03*
D18*
X111750000Y-142370000D03*
X104130000Y-129670000D03*
X111750000Y-139830000D03*
X104130000Y-132210000D03*
X111750000Y-137290000D03*
X104130000Y-134750000D03*
X111750000Y-134750000D03*
X104130000Y-137290000D03*
X111750000Y-132210000D03*
X104130000Y-139830000D03*
X111750000Y-129670000D03*
X104130000Y-142370000D03*
X111750000Y-127130000D03*
D11*
X123500000Y-127340000D03*
D18*
X131120000Y-142580000D03*
X123500000Y-129880000D03*
X131120000Y-140040000D03*
X123500000Y-132420000D03*
X131120000Y-137500000D03*
X123500000Y-134960000D03*
X131120000Y-134960000D03*
X123500000Y-137500000D03*
X131120000Y-132420000D03*
X123500000Y-140040000D03*
X131120000Y-129880000D03*
X123500000Y-142580000D03*
X131120000Y-127340000D03*
D12*
X123000000Y-102000000D03*
X118000000Y-102000000D03*
D19*
X134576201Y-100500000D03*
X134576201Y-124500000D03*
X134576201Y-106000000D03*
X105000000Y-87000000D03*
X106500000Y-73500000D03*
X128500000Y-73500000D03*
X104000000Y-121000000D03*
X101250000Y-122250000D03*
X85911512Y-122411512D03*
X108500000Y-146000000D03*
X88000000Y-146000000D03*
X123500000Y-123500000D03*
X115500000Y-123500000D03*
X109250000Y-132250000D03*
X104000000Y-72000000D03*
X87750000Y-73000000D03*
X86750000Y-123250000D03*
X105500000Y-123250000D03*
X114750000Y-125500000D03*
D20*
X134576201Y-79576201D02*
X134576201Y-100500000D01*
X134576201Y-100500000D02*
X134576201Y-106000000D01*
X134576201Y-106000000D02*
X134576201Y-124500000D01*
X128500000Y-73500000D02*
X134576201Y-79576201D01*
X105000000Y-82000000D02*
X105000000Y-87000000D01*
X106500000Y-80500000D02*
X105000000Y-82000000D01*
X106500000Y-73500000D02*
X106500000Y-80500000D01*
X128500000Y-65500000D02*
X128500000Y-73500000D01*
X126500000Y-63500000D02*
X128500000Y-65500000D01*
X102000000Y-117540000D02*
X102000000Y-119000000D01*
X102000000Y-119000000D02*
X104000000Y-121000000D01*
X104130000Y-127130000D02*
X104130000Y-126177600D01*
X104130000Y-126177600D02*
X103080899Y-125128499D01*
X103080899Y-125128499D02*
X103080899Y-121003545D01*
X103080899Y-121003545D02*
X98902410Y-116825056D01*
X98902410Y-116825056D02*
X98902410Y-87062410D01*
X98902410Y-87062410D02*
X95179999Y-83339999D01*
X95179999Y-83339999D02*
X94380000Y-82540000D01*
X104130000Y-137290000D02*
X98250000Y-131410000D01*
X98250000Y-131410000D02*
X98250000Y-102950000D01*
X98250000Y-102950000D02*
X95179999Y-99879999D01*
X95179999Y-99879999D02*
X94380000Y-99080000D01*
X84750000Y-127130000D02*
X84750000Y-123750000D01*
X84750000Y-123750000D02*
X84750000Y-123573024D01*
X85000000Y-116500000D02*
X85000000Y-117772792D01*
X85000000Y-117772792D02*
X84750000Y-118022792D01*
X84750000Y-118022792D02*
X84750000Y-123750000D01*
X101250000Y-122250000D02*
X101250000Y-126790000D01*
X101250000Y-126790000D02*
X104130000Y-129670000D01*
X84750000Y-123573024D02*
X85911512Y-122411512D01*
X108500000Y-146000000D02*
X108500000Y-140540000D01*
X108500000Y-140540000D02*
X111750000Y-137290000D01*
X84750000Y-134750000D02*
X88000000Y-138000000D01*
X88000000Y-138000000D02*
X88000000Y-146000000D01*
X123500000Y-123500000D02*
X123500000Y-127340000D01*
X109250000Y-132250000D02*
X109250000Y-126670575D01*
X112420575Y-123500000D02*
X115500000Y-123500000D01*
X109250000Y-126670575D02*
X112420575Y-123500000D01*
X104000000Y-72000000D02*
X104000000Y-63500000D01*
X84750000Y-132210000D02*
X87669101Y-129290899D01*
X87669101Y-129290899D02*
X87669101Y-73080899D01*
X87669101Y-73080899D02*
X87750000Y-73000000D01*
X86750000Y-123250000D02*
X86750000Y-127670000D01*
X86750000Y-127670000D02*
X84750000Y-129670000D01*
X104130000Y-134750000D02*
X105506201Y-133373799D01*
X105506201Y-133373799D02*
X105506201Y-123256201D01*
X105506201Y-123256201D02*
X105500000Y-123250000D01*
X104130000Y-139830000D02*
X110373799Y-133586201D01*
X110373799Y-133586201D02*
X110373799Y-126469423D01*
X110373799Y-126469423D02*
X111343222Y-125500000D01*
X111343222Y-125500000D02*
X114750000Y-125500000D01*
X120000000Y-81000000D02*
X120000000Y-79868630D01*
X120000000Y-79868630D02*
X120000000Y-77500000D01*
D21*
G36*
X135290000Y-99830878D02*
X135287401Y-99828274D01*
X135287401Y-79576201D01*
X135233264Y-79304037D01*
X135233264Y-79304036D01*
X135079095Y-79073307D01*
X129477925Y-73472137D01*
X129478069Y-73306337D01*
X129329507Y-72946788D01*
X129211200Y-72828274D01*
X129211200Y-65500000D01*
X129157063Y-65227836D01*
X129157063Y-65227835D01*
X129002894Y-64997106D01*
X128046026Y-64040238D01*
X128134716Y-63826648D01*
X128135284Y-63176205D01*
X127886894Y-62575057D01*
X127427363Y-62114722D01*
X126826648Y-61865284D01*
X126176205Y-61864716D01*
X125575057Y-62113106D01*
X125114722Y-62572637D01*
X124865284Y-63173352D01*
X124864716Y-63823795D01*
X125113106Y-64424943D01*
X125572637Y-64885278D01*
X126173352Y-65134716D01*
X126823795Y-65135284D01*
X127040114Y-65045902D01*
X127788800Y-65794588D01*
X127788800Y-72828206D01*
X127671460Y-72945341D01*
X127522270Y-73304630D01*
X127521931Y-73693663D01*
X127670493Y-74053212D01*
X127945341Y-74328540D01*
X128304630Y-74477730D01*
X128472088Y-74477876D01*
X133865001Y-79870789D01*
X133865001Y-92088827D01*
X133326648Y-91865284D01*
X132676205Y-91864716D01*
X132075057Y-92113106D01*
X131614722Y-92572637D01*
X131365284Y-93173352D01*
X131364716Y-93823795D01*
X131613106Y-94424943D01*
X132072637Y-94885278D01*
X132673352Y-95134716D01*
X133323795Y-95135284D01*
X133865001Y-94911662D01*
X133865001Y-96577172D01*
X133264539Y-96354092D01*
X132614540Y-96378144D01*
X132125736Y-96580613D01*
X132027073Y-96847468D01*
X133000000Y-97820395D01*
X133014143Y-97806253D01*
X133193748Y-97985858D01*
X133179605Y-98000000D01*
X133193748Y-98014143D01*
X133014143Y-98193748D01*
X133000000Y-98179605D01*
X132027073Y-99152532D01*
X132125736Y-99419387D01*
X132735461Y-99645908D01*
X133385460Y-99621856D01*
X133865001Y-99423224D01*
X133865001Y-99828206D01*
X133747661Y-99945341D01*
X133598471Y-100304630D01*
X133598132Y-100693663D01*
X133746694Y-101053212D01*
X133865001Y-101171726D01*
X133865001Y-105328206D01*
X133747661Y-105445341D01*
X133598471Y-105804630D01*
X133598132Y-106193663D01*
X133746694Y-106553212D01*
X133865001Y-106671726D01*
X133865001Y-123828206D01*
X133747661Y-123945341D01*
X133598471Y-124304630D01*
X133598132Y-124693663D01*
X133746694Y-125053212D01*
X134021542Y-125328540D01*
X134380831Y-125477730D01*
X134769864Y-125478069D01*
X135129413Y-125329507D01*
X135290000Y-125169200D01*
X135290000Y-159290000D01*
X80710000Y-159290000D01*
X80710000Y-154100000D01*
X92412560Y-154100000D01*
X92412560Y-155900000D01*
X92456838Y-156135317D01*
X92595910Y-156351441D01*
X92808110Y-156496431D01*
X93060000Y-156547440D01*
X94860000Y-156547440D01*
X95095317Y-156503162D01*
X95311441Y-156364090D01*
X95456431Y-156151890D01*
X95460567Y-156131466D01*
X95629357Y-156300551D01*
X96193330Y-156534733D01*
X96803991Y-156535265D01*
X96821157Y-156528172D01*
X110832538Y-156528172D01*
X111237709Y-157508761D01*
X111987293Y-158259655D01*
X112967173Y-158666536D01*
X114028172Y-158667462D01*
X115008761Y-158262291D01*
X115759655Y-157512707D01*
X116166536Y-156532827D01*
X116166718Y-156323795D01*
X116864716Y-156323795D01*
X117113106Y-156924943D01*
X117572637Y-157385278D01*
X118173352Y-157634716D01*
X118823795Y-157635284D01*
X119424943Y-157386894D01*
X119885278Y-156927363D01*
X120134716Y-156326648D01*
X120134792Y-156238935D01*
X120293291Y-156238935D01*
X120476582Y-156682535D01*
X120815680Y-157022225D01*
X121258959Y-157206290D01*
X121738935Y-157206709D01*
X122182535Y-157023418D01*
X122522225Y-156684320D01*
X122706290Y-156241041D01*
X122706709Y-155761065D01*
X122523418Y-155317465D01*
X122184320Y-154977775D01*
X121741041Y-154793710D01*
X121261065Y-154793291D01*
X120817465Y-154976582D01*
X120477775Y-155315680D01*
X120293710Y-155758959D01*
X120293291Y-156238935D01*
X120134792Y-156238935D01*
X120135284Y-155676205D01*
X119886894Y-155075057D01*
X119427363Y-154614722D01*
X118826648Y-154365284D01*
X118176205Y-154364716D01*
X117575057Y-154613106D01*
X117114722Y-155072637D01*
X116865284Y-155673352D01*
X116864716Y-156323795D01*
X116166718Y-156323795D01*
X116167462Y-155471828D01*
X115762291Y-154491239D01*
X115012707Y-153740345D01*
X114032827Y-153333464D01*
X112971828Y-153332538D01*
X111991239Y-153737709D01*
X111240345Y-154487293D01*
X110833464Y-155467173D01*
X110832538Y-156528172D01*
X96821157Y-156528172D01*
X97368371Y-156302068D01*
X97800551Y-155870643D01*
X98034733Y-155306670D01*
X98035265Y-154696009D01*
X97802068Y-154131629D01*
X97370643Y-153699449D01*
X96806670Y-153465267D01*
X96196009Y-153464735D01*
X95631629Y-153697932D01*
X95463387Y-153865880D01*
X95463162Y-153864683D01*
X95324090Y-153648559D01*
X95111890Y-153503569D01*
X94860000Y-153452560D01*
X93060000Y-153452560D01*
X92824683Y-153496838D01*
X92608559Y-153635910D01*
X92463569Y-153848110D01*
X92412560Y-154100000D01*
X80710000Y-154100000D01*
X80710000Y-150007745D01*
X89171861Y-150007745D01*
X89245995Y-150253864D01*
X89783223Y-150446965D01*
X90353454Y-150419778D01*
X90754005Y-150253864D01*
X90828139Y-150007745D01*
X90000000Y-149179605D01*
X89171861Y-150007745D01*
X80710000Y-150007745D01*
X80710000Y-148783223D01*
X88553035Y-148783223D01*
X88580222Y-149353454D01*
X88746136Y-149754005D01*
X88992255Y-149828139D01*
X89820395Y-149000000D01*
X90179605Y-149000000D01*
X91007745Y-149828139D01*
X91253864Y-149754005D01*
X91446965Y-149216777D01*
X91436630Y-149000000D01*
X98696887Y-149000000D01*
X98806120Y-149549151D01*
X99117189Y-150014698D01*
X99582736Y-150325767D01*
X100131887Y-150435000D01*
X100188113Y-150435000D01*
X100737264Y-150325767D01*
X101202811Y-150014698D01*
X101513880Y-149549151D01*
X101623113Y-149000000D01*
X101513880Y-148450849D01*
X101202811Y-147985302D01*
X100737264Y-147674233D01*
X100188113Y-147565000D01*
X100131887Y-147565000D01*
X99582736Y-147674233D01*
X99117189Y-147985302D01*
X98806120Y-148450849D01*
X98696887Y-149000000D01*
X91436630Y-149000000D01*
X91419778Y-148646546D01*
X91253864Y-148245995D01*
X91007745Y-148171861D01*
X90179605Y-149000000D01*
X89820395Y-149000000D01*
X88992255Y-148171861D01*
X88746136Y-148245995D01*
X88553035Y-148783223D01*
X80710000Y-148783223D01*
X80710000Y-147992255D01*
X89171861Y-147992255D01*
X90000000Y-148820395D01*
X90828139Y-147992255D01*
X90754005Y-147746136D01*
X90216777Y-147553035D01*
X89646546Y-147580222D01*
X89245995Y-147746136D01*
X89171861Y-147992255D01*
X80710000Y-147992255D01*
X80710000Y-142719039D01*
X83358096Y-142719039D01*
X83518959Y-143107423D01*
X83894866Y-143522389D01*
X84400959Y-143761914D01*
X84623000Y-143640629D01*
X84623000Y-142497000D01*
X84877000Y-142497000D01*
X84877000Y-143640629D01*
X85099041Y-143761914D01*
X85605134Y-143522389D01*
X85981041Y-143107423D01*
X86141904Y-142719039D01*
X86019915Y-142497000D01*
X84877000Y-142497000D01*
X84623000Y-142497000D01*
X83480085Y-142497000D01*
X83358096Y-142719039D01*
X80710000Y-142719039D01*
X80710000Y-115600000D01*
X80912560Y-115600000D01*
X80912560Y-117400000D01*
X80956838Y-117635317D01*
X81095910Y-117851441D01*
X81308110Y-117996431D01*
X81560000Y-118047440D01*
X83360000Y-118047440D01*
X83595317Y-118003162D01*
X83811441Y-117864090D01*
X83956431Y-117651890D01*
X83960567Y-117631466D01*
X84090708Y-117761834D01*
X84082705Y-117802068D01*
X84038800Y-118022792D01*
X84038800Y-125682560D01*
X83950000Y-125682560D01*
X83714683Y-125726838D01*
X83498559Y-125865910D01*
X83353569Y-126078110D01*
X83302560Y-126330000D01*
X83302560Y-127930000D01*
X83346838Y-128165317D01*
X83485910Y-128381441D01*
X83698110Y-128526431D01*
X83853089Y-128557815D01*
X83707189Y-128655302D01*
X83396120Y-129120849D01*
X83286887Y-129670000D01*
X83396120Y-130219151D01*
X83707189Y-130684698D01*
X84089275Y-130940000D01*
X83707189Y-131195302D01*
X83396120Y-131660849D01*
X83286887Y-132210000D01*
X83396120Y-132759151D01*
X83707189Y-133224698D01*
X84089275Y-133480000D01*
X83707189Y-133735302D01*
X83396120Y-134200849D01*
X83286887Y-134750000D01*
X83396120Y-135299151D01*
X83707189Y-135764698D01*
X84089275Y-136020000D01*
X83707189Y-136275302D01*
X83396120Y-136740849D01*
X83286887Y-137290000D01*
X83396120Y-137839151D01*
X83707189Y-138304698D01*
X84089275Y-138560000D01*
X83707189Y-138815302D01*
X83396120Y-139280849D01*
X83286887Y-139830000D01*
X83396120Y-140379151D01*
X83707189Y-140844698D01*
X84111703Y-141114986D01*
X83894866Y-141217611D01*
X83518959Y-141632577D01*
X83358096Y-142020961D01*
X83480085Y-142243000D01*
X84623000Y-142243000D01*
X84623000Y-142223000D01*
X84877000Y-142223000D01*
X84877000Y-142243000D01*
X86019915Y-142243000D01*
X86141904Y-142020961D01*
X85981041Y-141632577D01*
X85605134Y-141217611D01*
X85388297Y-141114986D01*
X85792811Y-140844698D01*
X86103880Y-140379151D01*
X86213113Y-139830000D01*
X86103880Y-139280849D01*
X85792811Y-138815302D01*
X85410725Y-138560000D01*
X85792811Y-138304698D01*
X86103880Y-137839151D01*
X86213113Y-137290000D01*
X86195459Y-137201247D01*
X87288800Y-138294588D01*
X87288800Y-145328206D01*
X87171460Y-145445341D01*
X87022270Y-145804630D01*
X87021931Y-146193663D01*
X87170493Y-146553212D01*
X87445341Y-146828540D01*
X87804630Y-146977730D01*
X88193663Y-146978069D01*
X88553212Y-146829507D01*
X88828540Y-146554659D01*
X88977730Y-146195370D01*
X88978069Y-145806337D01*
X88829507Y-145446788D01*
X88711200Y-145328274D01*
X88711200Y-138000000D01*
X88657063Y-137727836D01*
X88657063Y-137727835D01*
X88502894Y-137497106D01*
X86137238Y-135131450D01*
X86213113Y-134750000D01*
X86103880Y-134200849D01*
X85792811Y-133735302D01*
X85410725Y-133480000D01*
X85792811Y-133224698D01*
X86103880Y-132759151D01*
X86213113Y-132210000D01*
X86137238Y-131828550D01*
X88171995Y-129793794D01*
X88326164Y-129563064D01*
X88335146Y-129517909D01*
X88380301Y-129290899D01*
X88380301Y-127130000D01*
X90906887Y-127130000D01*
X91016120Y-127679151D01*
X91327189Y-128144698D01*
X91709275Y-128400000D01*
X91327189Y-128655302D01*
X91016120Y-129120849D01*
X90906887Y-129670000D01*
X91016120Y-130219151D01*
X91327189Y-130684698D01*
X91709275Y-130940000D01*
X91327189Y-131195302D01*
X91016120Y-131660849D01*
X90906887Y-132210000D01*
X91016120Y-132759151D01*
X91327189Y-133224698D01*
X91709275Y-133480000D01*
X91327189Y-133735302D01*
X91016120Y-134200849D01*
X90906887Y-134750000D01*
X91016120Y-135299151D01*
X91327189Y-135764698D01*
X91709275Y-136020000D01*
X91327189Y-136275302D01*
X91016120Y-136740849D01*
X90906887Y-137290000D01*
X91016120Y-137839151D01*
X91327189Y-138304698D01*
X91709275Y-138560000D01*
X91327189Y-138815302D01*
X91016120Y-139280849D01*
X90906887Y-139830000D01*
X91016120Y-140379151D01*
X91327189Y-140844698D01*
X91709275Y-141100000D01*
X91327189Y-141355302D01*
X91016120Y-141820849D01*
X90906887Y-142370000D01*
X91016120Y-142919151D01*
X91327189Y-143384698D01*
X91792736Y-143695767D01*
X92341887Y-143805000D01*
X92398113Y-143805000D01*
X92947264Y-143695767D01*
X93412811Y-143384698D01*
X93723880Y-142919151D01*
X93763684Y-142719039D01*
X102738096Y-142719039D01*
X102898959Y-143107423D01*
X103274866Y-143522389D01*
X103780959Y-143761914D01*
X104003000Y-143640629D01*
X104003000Y-142497000D01*
X104257000Y-142497000D01*
X104257000Y-143640629D01*
X104479041Y-143761914D01*
X104985134Y-143522389D01*
X105361041Y-143107423D01*
X105521904Y-142719039D01*
X105399915Y-142497000D01*
X104257000Y-142497000D01*
X104003000Y-142497000D01*
X102860085Y-142497000D01*
X102738096Y-142719039D01*
X93763684Y-142719039D01*
X93833113Y-142370000D01*
X93723880Y-141820849D01*
X93412811Y-141355302D01*
X93030725Y-141100000D01*
X93412811Y-140844698D01*
X93723880Y-140379151D01*
X93833113Y-139830000D01*
X93723880Y-139280849D01*
X93412811Y-138815302D01*
X93030725Y-138560000D01*
X93412811Y-138304698D01*
X93723880Y-137839151D01*
X93833113Y-137290000D01*
X93723880Y-136740849D01*
X93412811Y-136275302D01*
X93030725Y-136020000D01*
X93412811Y-135764698D01*
X93723880Y-135299151D01*
X93833113Y-134750000D01*
X93723880Y-134200849D01*
X93412811Y-133735302D01*
X93030725Y-133480000D01*
X93412811Y-133224698D01*
X93723880Y-132759151D01*
X93833113Y-132210000D01*
X93723880Y-131660849D01*
X93412811Y-131195302D01*
X93030725Y-130940000D01*
X93412811Y-130684698D01*
X93723880Y-130219151D01*
X93833113Y-129670000D01*
X93723880Y-129120849D01*
X93412811Y-128655302D01*
X93030725Y-128400000D01*
X93412811Y-128144698D01*
X93723880Y-127679151D01*
X93833113Y-127130000D01*
X93723880Y-126580849D01*
X93412811Y-126115302D01*
X92947264Y-125804233D01*
X92398113Y-125695000D01*
X92341887Y-125695000D01*
X91792736Y-125804233D01*
X91327189Y-126115302D01*
X91016120Y-126580849D01*
X90906887Y-127130000D01*
X88380301Y-127130000D01*
X88380301Y-119385666D01*
X88485302Y-119542811D01*
X88950849Y-119853880D01*
X89500000Y-119963113D01*
X90049151Y-119853880D01*
X90514698Y-119542811D01*
X90825767Y-119077264D01*
X90935000Y-118528113D01*
X90935000Y-118471887D01*
X90825767Y-117922736D01*
X90514698Y-117457189D01*
X90049151Y-117146120D01*
X89500000Y-117036887D01*
X88950849Y-117146120D01*
X88485302Y-117457189D01*
X88380301Y-117614334D01*
X88380301Y-112460000D01*
X92916887Y-112460000D01*
X93026120Y-113009151D01*
X93337189Y-113474698D01*
X93719275Y-113730000D01*
X93337189Y-113985302D01*
X93026120Y-114450849D01*
X92916887Y-115000000D01*
X93026120Y-115549151D01*
X93337189Y-116014698D01*
X93719275Y-116270000D01*
X93337189Y-116525302D01*
X93026120Y-116990849D01*
X92916887Y-117540000D01*
X93026120Y-118089151D01*
X93337189Y-118554698D01*
X93802736Y-118865767D01*
X94351887Y-118975000D01*
X94408113Y-118975000D01*
X94957264Y-118865767D01*
X95422811Y-118554698D01*
X95733880Y-118089151D01*
X95843113Y-117540000D01*
X95733880Y-116990849D01*
X95422811Y-116525302D01*
X95040725Y-116270000D01*
X95422811Y-116014698D01*
X95733880Y-115549151D01*
X95843113Y-115000000D01*
X95733880Y-114450849D01*
X95422811Y-113985302D01*
X95040725Y-113730000D01*
X95422811Y-113474698D01*
X95733880Y-113009151D01*
X95843113Y-112460000D01*
X95733880Y-111910849D01*
X95422811Y-111445302D01*
X95287665Y-111355000D01*
X95306309Y-111355000D01*
X95539698Y-111258327D01*
X95718327Y-111079699D01*
X95815000Y-110846310D01*
X95815000Y-110205750D01*
X95656250Y-110047000D01*
X94507000Y-110047000D01*
X94507000Y-110067000D01*
X94253000Y-110067000D01*
X94253000Y-110047000D01*
X93103750Y-110047000D01*
X92945000Y-110205750D01*
X92945000Y-110846310D01*
X93041673Y-111079699D01*
X93220302Y-111258327D01*
X93453691Y-111355000D01*
X93472335Y-111355000D01*
X93337189Y-111445302D01*
X93026120Y-111910849D01*
X92916887Y-112460000D01*
X88380301Y-112460000D01*
X88380301Y-109347745D01*
X88671861Y-109347745D01*
X88745995Y-109593864D01*
X89283223Y-109786965D01*
X89853454Y-109759778D01*
X90254005Y-109593864D01*
X90328139Y-109347745D01*
X89500000Y-108519605D01*
X88671861Y-109347745D01*
X88380301Y-109347745D01*
X88380301Y-109134417D01*
X88492255Y-109168139D01*
X89320395Y-108340000D01*
X89679605Y-108340000D01*
X90507745Y-109168139D01*
X90753864Y-109094005D01*
X90789921Y-108993690D01*
X92945000Y-108993690D01*
X92945000Y-109634250D01*
X93103750Y-109793000D01*
X94253000Y-109793000D01*
X94253000Y-108643750D01*
X94507000Y-108643750D01*
X94507000Y-109793000D01*
X95656250Y-109793000D01*
X95815000Y-109634250D01*
X95815000Y-108993690D01*
X95718327Y-108760301D01*
X95539698Y-108581673D01*
X95306309Y-108485000D01*
X94665750Y-108485000D01*
X94507000Y-108643750D01*
X94253000Y-108643750D01*
X94094250Y-108485000D01*
X93453691Y-108485000D01*
X93220302Y-108581673D01*
X93041673Y-108760301D01*
X92945000Y-108993690D01*
X90789921Y-108993690D01*
X90946965Y-108556777D01*
X90919778Y-107986546D01*
X90753864Y-107585995D01*
X90507745Y-107511861D01*
X89679605Y-108340000D01*
X89320395Y-108340000D01*
X88492255Y-107511861D01*
X88380301Y-107545583D01*
X88380301Y-107332255D01*
X88671861Y-107332255D01*
X89500000Y-108160395D01*
X90328139Y-107332255D01*
X90254005Y-107086136D01*
X89716777Y-106893035D01*
X89146546Y-106920222D01*
X88745995Y-107086136D01*
X88671861Y-107332255D01*
X88380301Y-107332255D01*
X88380301Y-103885666D01*
X88485302Y-104042811D01*
X88950849Y-104353880D01*
X89500000Y-104463113D01*
X90049151Y-104353880D01*
X90514698Y-104042811D01*
X90825767Y-103577264D01*
X90935000Y-103028113D01*
X90935000Y-102971887D01*
X90825767Y-102422736D01*
X90514698Y-101957189D01*
X90049151Y-101646120D01*
X89500000Y-101536887D01*
X88950849Y-101646120D01*
X88485302Y-101957189D01*
X88380301Y-102114334D01*
X88380301Y-93847745D01*
X88671861Y-93847745D01*
X88745995Y-94093864D01*
X89283223Y-94286965D01*
X89853454Y-94259778D01*
X90254005Y-94093864D01*
X90328139Y-93847745D01*
X89500000Y-93019605D01*
X88671861Y-93847745D01*
X88380301Y-93847745D01*
X88380301Y-93634417D01*
X88492255Y-93668139D01*
X89320395Y-92840000D01*
X89679605Y-92840000D01*
X90507745Y-93668139D01*
X90753864Y-93594005D01*
X90940885Y-93073690D01*
X92945000Y-93073690D01*
X92945000Y-93714250D01*
X93103750Y-93873000D01*
X94253000Y-93873000D01*
X94253000Y-92723750D01*
X94507000Y-92723750D01*
X94507000Y-93873000D01*
X95656250Y-93873000D01*
X95815000Y-93714250D01*
X95815000Y-93073690D01*
X95718327Y-92840301D01*
X95539698Y-92661673D01*
X95306309Y-92565000D01*
X94665750Y-92565000D01*
X94507000Y-92723750D01*
X94253000Y-92723750D01*
X94094250Y-92565000D01*
X93453691Y-92565000D01*
X93220302Y-92661673D01*
X93041673Y-92840301D01*
X92945000Y-93073690D01*
X90940885Y-93073690D01*
X90946965Y-93056777D01*
X90919778Y-92486546D01*
X90753864Y-92085995D01*
X90507745Y-92011861D01*
X89679605Y-92840000D01*
X89320395Y-92840000D01*
X88492255Y-92011861D01*
X88380301Y-92045583D01*
X88380301Y-91832255D01*
X88671861Y-91832255D01*
X89500000Y-92660395D01*
X90328139Y-91832255D01*
X90254005Y-91586136D01*
X89716777Y-91393035D01*
X89146546Y-91420222D01*
X88745995Y-91586136D01*
X88671861Y-91832255D01*
X88380301Y-91832255D01*
X88380301Y-87045666D01*
X88485302Y-87202811D01*
X88950849Y-87513880D01*
X89500000Y-87623113D01*
X90049151Y-87513880D01*
X90514698Y-87202811D01*
X90825767Y-86737264D01*
X90935000Y-86188113D01*
X90935000Y-86131887D01*
X90825767Y-85582736D01*
X90514698Y-85117189D01*
X90049151Y-84806120D01*
X89500000Y-84696887D01*
X88950849Y-84806120D01*
X88485302Y-85117189D01*
X88380301Y-85274334D01*
X88380301Y-80000000D01*
X92916887Y-80000000D01*
X93026120Y-80549151D01*
X93337189Y-81014698D01*
X93719275Y-81270000D01*
X93337189Y-81525302D01*
X93026120Y-81990849D01*
X92916887Y-82540000D01*
X93026120Y-83089151D01*
X93337189Y-83554698D01*
X93719275Y-83810000D01*
X93337189Y-84065302D01*
X93026120Y-84530849D01*
X92916887Y-85080000D01*
X93026120Y-85629151D01*
X93337189Y-86094698D01*
X93802736Y-86405767D01*
X94351887Y-86515000D01*
X94408113Y-86515000D01*
X94957264Y-86405767D01*
X95422811Y-86094698D01*
X95733880Y-85629151D01*
X95843113Y-85080000D01*
X95825459Y-84991247D01*
X98191210Y-87356998D01*
X98191210Y-101885422D01*
X95767238Y-99461450D01*
X95843113Y-99080000D01*
X95733880Y-98530849D01*
X95422811Y-98065302D01*
X95040725Y-97810000D01*
X95422811Y-97554698D01*
X95733880Y-97089151D01*
X95843113Y-96540000D01*
X95733880Y-95990849D01*
X95422811Y-95525302D01*
X95287665Y-95435000D01*
X95306309Y-95435000D01*
X95539698Y-95338327D01*
X95718327Y-95159699D01*
X95815000Y-94926310D01*
X95815000Y-94285750D01*
X95656250Y-94127000D01*
X94507000Y-94127000D01*
X94507000Y-94147000D01*
X94253000Y-94147000D01*
X94253000Y-94127000D01*
X93103750Y-94127000D01*
X92945000Y-94285750D01*
X92945000Y-94926310D01*
X93041673Y-95159699D01*
X93220302Y-95338327D01*
X93453691Y-95435000D01*
X93472335Y-95435000D01*
X93337189Y-95525302D01*
X93026120Y-95990849D01*
X92916887Y-96540000D01*
X93026120Y-97089151D01*
X93337189Y-97554698D01*
X93719275Y-97810000D01*
X93337189Y-98065302D01*
X93026120Y-98530849D01*
X92916887Y-99080000D01*
X93026120Y-99629151D01*
X93337189Y-100094698D01*
X93719275Y-100350000D01*
X93337189Y-100605302D01*
X93026120Y-101070849D01*
X92916887Y-101620000D01*
X93026120Y-102169151D01*
X93337189Y-102634698D01*
X93802736Y-102945767D01*
X94351887Y-103055000D01*
X94408113Y-103055000D01*
X94957264Y-102945767D01*
X95422811Y-102634698D01*
X95733880Y-102169151D01*
X95843113Y-101620000D01*
X95825459Y-101531247D01*
X97538800Y-103244588D01*
X97538800Y-131410000D01*
X97592937Y-131682165D01*
X97747106Y-131912894D01*
X102742762Y-136908551D01*
X102666887Y-137290000D01*
X102776120Y-137839151D01*
X103087189Y-138304698D01*
X103469275Y-138560000D01*
X103087189Y-138815302D01*
X102776120Y-139280849D01*
X102666887Y-139830000D01*
X102776120Y-140379151D01*
X103087189Y-140844698D01*
X103491703Y-141114986D01*
X103274866Y-141217611D01*
X102898959Y-141632577D01*
X102738096Y-142020961D01*
X102860085Y-142243000D01*
X104003000Y-142243000D01*
X104003000Y-142223000D01*
X104257000Y-142223000D01*
X104257000Y-142243000D01*
X105399915Y-142243000D01*
X105521904Y-142020961D01*
X105361041Y-141632577D01*
X104985134Y-141217611D01*
X104768297Y-141114986D01*
X105172811Y-140844698D01*
X105483880Y-140379151D01*
X105593113Y-139830000D01*
X105517238Y-139448550D01*
X110304541Y-134661248D01*
X110286887Y-134750000D01*
X110396120Y-135299151D01*
X110707189Y-135764698D01*
X111089275Y-136020000D01*
X110707189Y-136275302D01*
X110396120Y-136740849D01*
X110286887Y-137290000D01*
X110362762Y-137671450D01*
X107997106Y-140037106D01*
X107842937Y-140267835D01*
X107842937Y-140267836D01*
X107788800Y-140540000D01*
X107788800Y-145328206D01*
X107671460Y-145445341D01*
X107522270Y-145804630D01*
X107521931Y-146193663D01*
X107670493Y-146553212D01*
X107945341Y-146828540D01*
X108304630Y-146977730D01*
X108693663Y-146978069D01*
X109053212Y-146829507D01*
X109328540Y-146554659D01*
X109477730Y-146195370D01*
X109478069Y-145806337D01*
X109329507Y-145446788D01*
X109211200Y-145328274D01*
X109211200Y-140834588D01*
X110304541Y-139741247D01*
X110286887Y-139830000D01*
X110396120Y-140379151D01*
X110707189Y-140844698D01*
X111089275Y-141100000D01*
X110707189Y-141355302D01*
X110396120Y-141820849D01*
X110286887Y-142370000D01*
X110396120Y-142919151D01*
X110707189Y-143384698D01*
X111172736Y-143695767D01*
X111721887Y-143805000D01*
X111778113Y-143805000D01*
X112327264Y-143695767D01*
X112792811Y-143384698D01*
X113097273Y-142929039D01*
X122108096Y-142929039D01*
X122268959Y-143317423D01*
X122644866Y-143732389D01*
X123150959Y-143971914D01*
X123373000Y-143850629D01*
X123373000Y-142707000D01*
X123627000Y-142707000D01*
X123627000Y-143850629D01*
X123849041Y-143971914D01*
X124355134Y-143732389D01*
X124731041Y-143317423D01*
X124891904Y-142929039D01*
X124769915Y-142707000D01*
X123627000Y-142707000D01*
X123373000Y-142707000D01*
X122230085Y-142707000D01*
X122108096Y-142929039D01*
X113097273Y-142929039D01*
X113103880Y-142919151D01*
X113213113Y-142370000D01*
X113103880Y-141820849D01*
X112792811Y-141355302D01*
X112410725Y-141100000D01*
X112792811Y-140844698D01*
X113103880Y-140379151D01*
X113213113Y-139830000D01*
X113103880Y-139280849D01*
X112792811Y-138815302D01*
X112410725Y-138560000D01*
X112792811Y-138304698D01*
X113103880Y-137839151D01*
X113213113Y-137290000D01*
X113103880Y-136740849D01*
X112792811Y-136275302D01*
X112410725Y-136020000D01*
X112792811Y-135764698D01*
X113103880Y-135299151D01*
X113213113Y-134750000D01*
X113103880Y-134200849D01*
X112792811Y-133735302D01*
X112410725Y-133480000D01*
X112792811Y-133224698D01*
X113103880Y-132759151D01*
X113213113Y-132210000D01*
X113103880Y-131660849D01*
X112792811Y-131195302D01*
X112410725Y-130940000D01*
X112792811Y-130684698D01*
X113103880Y-130219151D01*
X113171341Y-129880000D01*
X122036887Y-129880000D01*
X122146120Y-130429151D01*
X122457189Y-130894698D01*
X122839275Y-131150000D01*
X122457189Y-131405302D01*
X122146120Y-131870849D01*
X122036887Y-132420000D01*
X122146120Y-132969151D01*
X122457189Y-133434698D01*
X122839275Y-133690000D01*
X122457189Y-133945302D01*
X122146120Y-134410849D01*
X122036887Y-134960000D01*
X122146120Y-135509151D01*
X122457189Y-135974698D01*
X122839275Y-136230000D01*
X122457189Y-136485302D01*
X122146120Y-136950849D01*
X122036887Y-137500000D01*
X122146120Y-138049151D01*
X122457189Y-138514698D01*
X122839275Y-138770000D01*
X122457189Y-139025302D01*
X122146120Y-139490849D01*
X122036887Y-140040000D01*
X122146120Y-140589151D01*
X122457189Y-141054698D01*
X122861703Y-141324986D01*
X122644866Y-141427611D01*
X122268959Y-141842577D01*
X122108096Y-142230961D01*
X122230085Y-142453000D01*
X123373000Y-142453000D01*
X123373000Y-142433000D01*
X123627000Y-142433000D01*
X123627000Y-142453000D01*
X124769915Y-142453000D01*
X124891904Y-142230961D01*
X124731041Y-141842577D01*
X124355134Y-141427611D01*
X124138297Y-141324986D01*
X124542811Y-141054698D01*
X124853880Y-140589151D01*
X124963113Y-140040000D01*
X124853880Y-139490849D01*
X124542811Y-139025302D01*
X124160725Y-138770000D01*
X124542811Y-138514698D01*
X124853880Y-138049151D01*
X124963113Y-137500000D01*
X124853880Y-136950849D01*
X124542811Y-136485302D01*
X124160725Y-136230000D01*
X124542811Y-135974698D01*
X124853880Y-135509151D01*
X124963113Y-134960000D01*
X124853880Y-134410849D01*
X124542811Y-133945302D01*
X124160725Y-133690000D01*
X124542811Y-133434698D01*
X124853880Y-132969151D01*
X124963113Y-132420000D01*
X124853880Y-131870849D01*
X124542811Y-131405302D01*
X124160725Y-131150000D01*
X124542811Y-130894698D01*
X124853880Y-130429151D01*
X124963113Y-129880000D01*
X124853880Y-129330849D01*
X124542811Y-128865302D01*
X124398535Y-128768899D01*
X124535317Y-128743162D01*
X124751441Y-128604090D01*
X124896431Y-128391890D01*
X124947440Y-128140000D01*
X124947440Y-127340000D01*
X129656887Y-127340000D01*
X129766120Y-127889151D01*
X130077189Y-128354698D01*
X130459275Y-128610000D01*
X130077189Y-128865302D01*
X129766120Y-129330849D01*
X129656887Y-129880000D01*
X129766120Y-130429151D01*
X130077189Y-130894698D01*
X130459275Y-131150000D01*
X130077189Y-131405302D01*
X129766120Y-131870849D01*
X129656887Y-132420000D01*
X129766120Y-132969151D01*
X130077189Y-133434698D01*
X130459275Y-133690000D01*
X130077189Y-133945302D01*
X129766120Y-134410849D01*
X129656887Y-134960000D01*
X129766120Y-135509151D01*
X130077189Y-135974698D01*
X130459275Y-136230000D01*
X130077189Y-136485302D01*
X129766120Y-136950849D01*
X129656887Y-137500000D01*
X129766120Y-138049151D01*
X130077189Y-138514698D01*
X130459275Y-138770000D01*
X130077189Y-139025302D01*
X129766120Y-139490849D01*
X129656887Y-140040000D01*
X129766120Y-140589151D01*
X130077189Y-141054698D01*
X130459275Y-141310000D01*
X130077189Y-141565302D01*
X129766120Y-142030849D01*
X129656887Y-142580000D01*
X129766120Y-143129151D01*
X130077189Y-143594698D01*
X130542736Y-143905767D01*
X131091887Y-144015000D01*
X131148113Y-144015000D01*
X131697264Y-143905767D01*
X132162811Y-143594698D01*
X132473880Y-143129151D01*
X132583113Y-142580000D01*
X132473880Y-142030849D01*
X132162811Y-141565302D01*
X131780725Y-141310000D01*
X132162811Y-141054698D01*
X132473880Y-140589151D01*
X132583113Y-140040000D01*
X132473880Y-139490849D01*
X132162811Y-139025302D01*
X131780725Y-138770000D01*
X132162811Y-138514698D01*
X132473880Y-138049151D01*
X132583113Y-137500000D01*
X132473880Y-136950849D01*
X132162811Y-136485302D01*
X131780725Y-136230000D01*
X132162811Y-135974698D01*
X132473880Y-135509151D01*
X132583113Y-134960000D01*
X132473880Y-134410849D01*
X132162811Y-133945302D01*
X131780725Y-133690000D01*
X132162811Y-133434698D01*
X132473880Y-132969151D01*
X132583113Y-132420000D01*
X132473880Y-131870849D01*
X132162811Y-131405302D01*
X131780725Y-131150000D01*
X132162811Y-130894698D01*
X132473880Y-130429151D01*
X132583113Y-129880000D01*
X132473880Y-129330849D01*
X132162811Y-128865302D01*
X131780725Y-128610000D01*
X132162811Y-128354698D01*
X132473880Y-127889151D01*
X132583113Y-127340000D01*
X132473880Y-126790849D01*
X132162811Y-126325302D01*
X131697264Y-126014233D01*
X131148113Y-125905000D01*
X131091887Y-125905000D01*
X130542736Y-126014233D01*
X130077189Y-126325302D01*
X129766120Y-126790849D01*
X129656887Y-127340000D01*
X124947440Y-127340000D01*
X124947440Y-126540000D01*
X124903162Y-126304683D01*
X124764090Y-126088559D01*
X124551890Y-125943569D01*
X124300000Y-125892560D01*
X124211200Y-125892560D01*
X124211200Y-124171794D01*
X124328540Y-124054659D01*
X124477730Y-123695370D01*
X124478069Y-123306337D01*
X124329507Y-122946788D01*
X124054659Y-122671460D01*
X123695370Y-122522270D01*
X123306337Y-122521931D01*
X122946788Y-122670493D01*
X122671460Y-122945341D01*
X122522270Y-123304630D01*
X122521931Y-123693663D01*
X122670493Y-124053212D01*
X122788800Y-124171726D01*
X122788800Y-125892560D01*
X122700000Y-125892560D01*
X122464683Y-125936838D01*
X122248559Y-126075910D01*
X122103569Y-126288110D01*
X122052560Y-126540000D01*
X122052560Y-128140000D01*
X122096838Y-128375317D01*
X122235910Y-128591441D01*
X122448110Y-128736431D01*
X122603089Y-128767815D01*
X122457189Y-128865302D01*
X122146120Y-129330849D01*
X122036887Y-129880000D01*
X113171341Y-129880000D01*
X113213113Y-129670000D01*
X113103880Y-129120849D01*
X112792811Y-128655302D01*
X112410725Y-128400000D01*
X112792811Y-128144698D01*
X113103880Y-127679151D01*
X113213113Y-127130000D01*
X113103880Y-126580849D01*
X112856888Y-126211200D01*
X114078206Y-126211200D01*
X114195341Y-126328540D01*
X114554630Y-126477730D01*
X114943663Y-126478069D01*
X115303212Y-126329507D01*
X115578540Y-126054659D01*
X115727730Y-125695370D01*
X115728069Y-125306337D01*
X115579507Y-124946788D01*
X115304659Y-124671460D01*
X114945370Y-124522270D01*
X114556337Y-124521931D01*
X114196788Y-124670493D01*
X114078274Y-124788800D01*
X112137563Y-124788800D01*
X112715163Y-124211200D01*
X114828206Y-124211200D01*
X114945341Y-124328540D01*
X115304630Y-124477730D01*
X115693663Y-124478069D01*
X116053212Y-124329507D01*
X116328540Y-124054659D01*
X116477730Y-123695370D01*
X116478069Y-123306337D01*
X116329507Y-122946788D01*
X116054659Y-122671460D01*
X115695370Y-122522270D01*
X115306337Y-122521931D01*
X114946788Y-122670493D01*
X114828274Y-122788800D01*
X112420575Y-122788800D01*
X112193565Y-122833955D01*
X112148410Y-122842937D01*
X111917681Y-122997106D01*
X108747106Y-126167681D01*
X108592937Y-126398410D01*
X108592937Y-126398411D01*
X108538800Y-126670575D01*
X108538800Y-131578206D01*
X108421460Y-131695341D01*
X108272270Y-132054630D01*
X108271931Y-132443663D01*
X108420493Y-132803212D01*
X108695341Y-133078540D01*
X109054630Y-133227730D01*
X109443663Y-133228069D01*
X109662599Y-133137607D01*
X109662599Y-133291612D01*
X105575459Y-137378753D01*
X105593113Y-137290000D01*
X105483880Y-136740849D01*
X105172811Y-136275302D01*
X104790725Y-136020000D01*
X105172811Y-135764698D01*
X105483880Y-135299151D01*
X105593113Y-134750000D01*
X105517238Y-134368550D01*
X106009095Y-133876693D01*
X106163264Y-133645964D01*
X106205287Y-133434698D01*
X106217401Y-133373799D01*
X106217401Y-123915604D01*
X106328540Y-123804659D01*
X106477730Y-123445370D01*
X106478069Y-123056337D01*
X106329507Y-122696788D01*
X106054659Y-122421460D01*
X105695370Y-122272270D01*
X105306337Y-122271931D01*
X104946788Y-122420493D01*
X104671460Y-122695341D01*
X104522270Y-123054630D01*
X104521931Y-123443663D01*
X104670493Y-123803212D01*
X104795001Y-123927937D01*
X104795001Y-125682560D01*
X104638142Y-125682560D01*
X104632894Y-125674706D01*
X103792099Y-124833911D01*
X103792099Y-121972527D01*
X103804630Y-121977730D01*
X104193663Y-121978069D01*
X104553212Y-121829507D01*
X104828540Y-121554659D01*
X104977730Y-121195370D01*
X104978069Y-120806337D01*
X104829507Y-120446788D01*
X104554659Y-120171460D01*
X104195370Y-120022270D01*
X104027912Y-120022124D01*
X103513533Y-119507745D01*
X108171861Y-119507745D01*
X108245995Y-119753864D01*
X108783223Y-119946965D01*
X109353454Y-119919778D01*
X109754005Y-119753864D01*
X109828139Y-119507745D01*
X109000000Y-118679605D01*
X108171861Y-119507745D01*
X103513533Y-119507745D01*
X102753678Y-118747890D01*
X103042811Y-118554698D01*
X103224205Y-118283223D01*
X107553035Y-118283223D01*
X107580222Y-118853454D01*
X107746136Y-119254005D01*
X107992255Y-119328139D01*
X108820395Y-118500000D01*
X109179605Y-118500000D01*
X110007745Y-119328139D01*
X110253864Y-119254005D01*
X110422735Y-118784187D01*
X112564752Y-118784187D01*
X112782757Y-119311800D01*
X113186077Y-119715824D01*
X113713309Y-119934750D01*
X114284187Y-119935248D01*
X114811800Y-119717243D01*
X115215824Y-119313923D01*
X115434750Y-118786691D01*
X115435248Y-118215813D01*
X115217243Y-117688200D01*
X114833704Y-117303991D01*
X128964735Y-117303991D01*
X129197932Y-117868371D01*
X129629357Y-118300551D01*
X130193330Y-118534733D01*
X130803991Y-118535265D01*
X131368371Y-118302068D01*
X131800551Y-117870643D01*
X132034733Y-117306670D01*
X132035265Y-116696009D01*
X131802068Y-116131629D01*
X131370643Y-115699449D01*
X131349806Y-115690797D01*
X131400554Y-115540159D01*
X130500000Y-114639605D01*
X129599446Y-115540159D01*
X129650035Y-115690327D01*
X129631629Y-115697932D01*
X129199449Y-116129357D01*
X128965267Y-116693330D01*
X128964735Y-117303991D01*
X114833704Y-117303991D01*
X114813923Y-117284176D01*
X114286691Y-117065250D01*
X113715813Y-117064752D01*
X113188200Y-117282757D01*
X112784176Y-117686077D01*
X112565250Y-118213309D01*
X112564752Y-118784187D01*
X110422735Y-118784187D01*
X110446965Y-118716777D01*
X110419778Y-118146546D01*
X110253864Y-117745995D01*
X110007745Y-117671861D01*
X109179605Y-118500000D01*
X108820395Y-118500000D01*
X107992255Y-117671861D01*
X107746136Y-117745995D01*
X107553035Y-118283223D01*
X103224205Y-118283223D01*
X103353880Y-118089151D01*
X103463113Y-117540000D01*
X103453616Y-117492255D01*
X108171861Y-117492255D01*
X109000000Y-118320395D01*
X109828139Y-117492255D01*
X109754005Y-117246136D01*
X109216777Y-117053035D01*
X108646546Y-117080222D01*
X108245995Y-117246136D01*
X108171861Y-117492255D01*
X103453616Y-117492255D01*
X103353880Y-116990849D01*
X103042811Y-116525302D01*
X102638297Y-116255014D01*
X102855134Y-116152389D01*
X103231041Y-115737423D01*
X103391904Y-115349039D01*
X103269915Y-115127000D01*
X102127000Y-115127000D01*
X102127000Y-115147000D01*
X101873000Y-115147000D01*
X101873000Y-115127000D01*
X100730085Y-115127000D01*
X100608096Y-115349039D01*
X100768959Y-115737423D01*
X101144866Y-116152389D01*
X101361703Y-116255014D01*
X100957189Y-116525302D01*
X100646120Y-116990849D01*
X100551198Y-117468056D01*
X99613610Y-116530468D01*
X99613610Y-109920000D01*
X100536887Y-109920000D01*
X100646120Y-110469151D01*
X100957189Y-110934698D01*
X101339275Y-111190000D01*
X100957189Y-111445302D01*
X100646120Y-111910849D01*
X100536887Y-112460000D01*
X100646120Y-113009151D01*
X100957189Y-113474698D01*
X101361703Y-113744986D01*
X101144866Y-113847611D01*
X100768959Y-114262577D01*
X100608096Y-114650961D01*
X100730085Y-114873000D01*
X101873000Y-114873000D01*
X101873000Y-114853000D01*
X102127000Y-114853000D01*
X102127000Y-114873000D01*
X103269915Y-114873000D01*
X103391904Y-114650961D01*
X103231041Y-114262577D01*
X103024149Y-114034187D01*
X109314752Y-114034187D01*
X109532757Y-114561800D01*
X109936077Y-114965824D01*
X110463309Y-115184750D01*
X111034187Y-115185248D01*
X111561800Y-114967243D01*
X111965824Y-114563923D01*
X112158860Y-114099039D01*
X119518096Y-114099039D01*
X119678959Y-114487423D01*
X120054866Y-114902389D01*
X120560959Y-115141914D01*
X120783000Y-115020629D01*
X120783000Y-113877000D01*
X121037000Y-113877000D01*
X121037000Y-115020629D01*
X121259041Y-115141914D01*
X121765134Y-114902389D01*
X122141041Y-114487423D01*
X122301904Y-114099039D01*
X122179915Y-113877000D01*
X121037000Y-113877000D01*
X120783000Y-113877000D01*
X119640085Y-113877000D01*
X119518096Y-114099039D01*
X112158860Y-114099039D01*
X112184750Y-114036691D01*
X112185248Y-113465813D01*
X112158452Y-113400961D01*
X119518096Y-113400961D01*
X119640085Y-113623000D01*
X120783000Y-113623000D01*
X120783000Y-112479371D01*
X121037000Y-112479371D01*
X121037000Y-113623000D01*
X122179915Y-113623000D01*
X122301904Y-113400961D01*
X122141041Y-113012577D01*
X121765134Y-112597611D01*
X121259041Y-112358086D01*
X121037000Y-112479371D01*
X120783000Y-112479371D01*
X120560959Y-112358086D01*
X120054866Y-112597611D01*
X119678959Y-113012577D01*
X119518096Y-113400961D01*
X112158452Y-113400961D01*
X111967243Y-112938200D01*
X111563923Y-112534176D01*
X111036691Y-112315250D01*
X110465813Y-112314752D01*
X109938200Y-112532757D01*
X109534176Y-112936077D01*
X109315250Y-113463309D01*
X109314752Y-114034187D01*
X103024149Y-114034187D01*
X102855134Y-113847611D01*
X102638297Y-113744986D01*
X103042811Y-113474698D01*
X103353880Y-113009151D01*
X103463113Y-112460000D01*
X103353880Y-111910849D01*
X103042811Y-111445302D01*
X102660725Y-111190000D01*
X103042811Y-110934698D01*
X103353880Y-110469151D01*
X103447199Y-110000000D01*
X109286887Y-110000000D01*
X109396120Y-110549151D01*
X109707189Y-111014698D01*
X110172736Y-111325767D01*
X110721887Y-111435000D01*
X110778113Y-111435000D01*
X111327264Y-111325767D01*
X111792811Y-111014698D01*
X111797456Y-111007745D01*
X120081861Y-111007745D01*
X120155995Y-111253864D01*
X120693223Y-111446965D01*
X121263454Y-111419778D01*
X121664005Y-111253864D01*
X121734447Y-111020000D01*
X128952560Y-111020000D01*
X128952560Y-112820000D01*
X128996838Y-113055317D01*
X129135910Y-113271441D01*
X129339574Y-113410598D01*
X129305282Y-113444890D01*
X129419839Y-113559447D01*
X129163357Y-113645852D01*
X128953542Y-114219336D01*
X128979161Y-114829460D01*
X129163357Y-115274148D01*
X129419841Y-115360554D01*
X130320395Y-114460000D01*
X130306253Y-114445858D01*
X130485858Y-114266253D01*
X130500000Y-114280395D01*
X130514143Y-114266253D01*
X130693748Y-114445858D01*
X130679605Y-114460000D01*
X131580159Y-115360554D01*
X131836643Y-115274148D01*
X132046458Y-114700664D01*
X132020839Y-114090540D01*
X131836643Y-113645852D01*
X131580161Y-113559447D01*
X131694718Y-113444890D01*
X131658240Y-113408412D01*
X131851441Y-113284090D01*
X131996431Y-113071890D01*
X132047440Y-112820000D01*
X132047440Y-111020000D01*
X132003162Y-110784683D01*
X131864090Y-110568559D01*
X131651890Y-110423569D01*
X131400000Y-110372560D01*
X129600000Y-110372560D01*
X129364683Y-110416838D01*
X129148559Y-110555910D01*
X129003569Y-110768110D01*
X128952560Y-111020000D01*
X121734447Y-111020000D01*
X121738139Y-111007745D01*
X120910000Y-110179605D01*
X120081861Y-111007745D01*
X111797456Y-111007745D01*
X112103880Y-110549151D01*
X112213113Y-110000000D01*
X112169994Y-109783223D01*
X119463035Y-109783223D01*
X119490222Y-110353454D01*
X119656136Y-110754005D01*
X119902255Y-110828139D01*
X120730395Y-110000000D01*
X121089605Y-110000000D01*
X121917745Y-110828139D01*
X122163864Y-110754005D01*
X122356965Y-110216777D01*
X122329778Y-109646546D01*
X122163864Y-109245995D01*
X121917745Y-109171861D01*
X121089605Y-110000000D01*
X120730395Y-110000000D01*
X119902255Y-109171861D01*
X119656136Y-109245995D01*
X119463035Y-109783223D01*
X112169994Y-109783223D01*
X112103880Y-109450849D01*
X111797457Y-108992255D01*
X120081861Y-108992255D01*
X120910000Y-109820395D01*
X121738139Y-108992255D01*
X121664005Y-108746136D01*
X121126777Y-108553035D01*
X120556546Y-108580222D01*
X120155995Y-108746136D01*
X120081861Y-108992255D01*
X111797457Y-108992255D01*
X111792811Y-108985302D01*
X111327264Y-108674233D01*
X110778113Y-108565000D01*
X110721887Y-108565000D01*
X110172736Y-108674233D01*
X109707189Y-108985302D01*
X109396120Y-109450849D01*
X109286887Y-110000000D01*
X103447199Y-110000000D01*
X103463113Y-109920000D01*
X103353880Y-109370849D01*
X103042811Y-108905302D01*
X102577264Y-108594233D01*
X102028113Y-108485000D01*
X101971887Y-108485000D01*
X101422736Y-108594233D01*
X100957189Y-108905302D01*
X100646120Y-109370849D01*
X100536887Y-109920000D01*
X99613610Y-109920000D01*
X99613610Y-94000000D01*
X100536887Y-94000000D01*
X100646120Y-94549151D01*
X100957189Y-95014698D01*
X101339275Y-95270000D01*
X100957189Y-95525302D01*
X100646120Y-95990849D01*
X100536887Y-96540000D01*
X100646120Y-97089151D01*
X100957189Y-97554698D01*
X101339275Y-97810000D01*
X100957189Y-98065302D01*
X100646120Y-98530849D01*
X100536887Y-99080000D01*
X100646120Y-99629151D01*
X100957189Y-100094698D01*
X101339275Y-100350000D01*
X100957189Y-100605302D01*
X100646120Y-101070849D01*
X100536887Y-101620000D01*
X100646120Y-102169151D01*
X100957189Y-102634698D01*
X101422736Y-102945767D01*
X101971887Y-103055000D01*
X102028113Y-103055000D01*
X102577264Y-102945767D01*
X103042811Y-102634698D01*
X103277015Y-102284187D01*
X106564752Y-102284187D01*
X106782757Y-102811800D01*
X107186077Y-103215824D01*
X107713309Y-103434750D01*
X108284187Y-103435248D01*
X108811800Y-103217243D01*
X109021663Y-103007745D01*
X112171861Y-103007745D01*
X112245995Y-103253864D01*
X112783223Y-103446965D01*
X113353454Y-103419778D01*
X113754005Y-103253864D01*
X113828139Y-103007745D01*
X113000000Y-102179605D01*
X112171861Y-103007745D01*
X109021663Y-103007745D01*
X109215824Y-102813923D01*
X109434750Y-102286691D01*
X109435189Y-101783223D01*
X111553035Y-101783223D01*
X111580222Y-102353454D01*
X111746136Y-102754005D01*
X111992255Y-102828139D01*
X112820395Y-102000000D01*
X113179605Y-102000000D01*
X114007745Y-102828139D01*
X114253864Y-102754005D01*
X114422735Y-102284187D01*
X116564752Y-102284187D01*
X116782757Y-102811800D01*
X117186077Y-103215824D01*
X117713309Y-103434750D01*
X118284187Y-103435248D01*
X118811800Y-103217243D01*
X119021663Y-103007745D01*
X122171861Y-103007745D01*
X122245995Y-103253864D01*
X122783223Y-103446965D01*
X123353454Y-103419778D01*
X123754005Y-103253864D01*
X123828139Y-103007745D01*
X123000000Y-102179605D01*
X122171861Y-103007745D01*
X119021663Y-103007745D01*
X119215824Y-102813923D01*
X119434750Y-102286691D01*
X119435189Y-101783223D01*
X121553035Y-101783223D01*
X121580222Y-102353454D01*
X121746136Y-102754005D01*
X121992255Y-102828139D01*
X122820395Y-102000000D01*
X123179605Y-102000000D01*
X124007745Y-102828139D01*
X124253864Y-102754005D01*
X124446965Y-102216777D01*
X124419778Y-101646546D01*
X124253864Y-101245995D01*
X124007745Y-101171861D01*
X123179605Y-102000000D01*
X122820395Y-102000000D01*
X121992255Y-101171861D01*
X121746136Y-101245995D01*
X121553035Y-101783223D01*
X119435189Y-101783223D01*
X119435248Y-101715813D01*
X119217243Y-101188200D01*
X119021640Y-100992255D01*
X122171861Y-100992255D01*
X123000000Y-101820395D01*
X123828139Y-100992255D01*
X123754005Y-100746136D01*
X123216777Y-100553035D01*
X122646546Y-100580222D01*
X122245995Y-100746136D01*
X122171861Y-100992255D01*
X119021640Y-100992255D01*
X118813923Y-100784176D01*
X118286691Y-100565250D01*
X117715813Y-100564752D01*
X117188200Y-100782757D01*
X116784176Y-101186077D01*
X116565250Y-101713309D01*
X116564752Y-102284187D01*
X114422735Y-102284187D01*
X114446965Y-102216777D01*
X114419778Y-101646546D01*
X114253864Y-101245995D01*
X114007745Y-101171861D01*
X113179605Y-102000000D01*
X112820395Y-102000000D01*
X111992255Y-101171861D01*
X111746136Y-101245995D01*
X111553035Y-101783223D01*
X109435189Y-101783223D01*
X109435248Y-101715813D01*
X109217243Y-101188200D01*
X109021640Y-100992255D01*
X112171861Y-100992255D01*
X113000000Y-101820395D01*
X113828139Y-100992255D01*
X113754005Y-100746136D01*
X113216777Y-100553035D01*
X112646546Y-100580222D01*
X112245995Y-100746136D01*
X112171861Y-100992255D01*
X109021640Y-100992255D01*
X108813923Y-100784176D01*
X108286691Y-100565250D01*
X107715813Y-100564752D01*
X107188200Y-100782757D01*
X106784176Y-101186077D01*
X106565250Y-101713309D01*
X106564752Y-102284187D01*
X103277015Y-102284187D01*
X103353880Y-102169151D01*
X103463113Y-101620000D01*
X103353880Y-101070849D01*
X103042811Y-100605302D01*
X102660725Y-100350000D01*
X103042811Y-100094698D01*
X103353880Y-99629151D01*
X103463113Y-99080000D01*
X103353880Y-98530849D01*
X103042811Y-98065302D01*
X102945080Y-98000000D01*
X109036887Y-98000000D01*
X109146120Y-98549151D01*
X109457189Y-99014698D01*
X109922736Y-99325767D01*
X110471887Y-99435000D01*
X110528113Y-99435000D01*
X111077264Y-99325767D01*
X111542811Y-99014698D01*
X111853880Y-98549151D01*
X111906584Y-98284187D01*
X119224752Y-98284187D01*
X119442757Y-98811800D01*
X119846077Y-99215824D01*
X120373309Y-99434750D01*
X120944187Y-99435248D01*
X121471800Y-99217243D01*
X121536623Y-99152532D01*
X125527073Y-99152532D01*
X125625736Y-99419387D01*
X126235461Y-99645908D01*
X126885460Y-99621856D01*
X127374264Y-99419387D01*
X127472927Y-99152532D01*
X126500000Y-98179605D01*
X125527073Y-99152532D01*
X121536623Y-99152532D01*
X121875824Y-98813923D01*
X122094750Y-98286691D01*
X122095230Y-97735461D01*
X124854092Y-97735461D01*
X124878144Y-98385460D01*
X125080613Y-98874264D01*
X125347468Y-98972927D01*
X126320395Y-98000000D01*
X126679605Y-98000000D01*
X127652532Y-98972927D01*
X127919387Y-98874264D01*
X128145908Y-98264539D01*
X128126331Y-97735461D01*
X131354092Y-97735461D01*
X131378144Y-98385460D01*
X131580613Y-98874264D01*
X131847468Y-98972927D01*
X132820395Y-98000000D01*
X131847468Y-97027073D01*
X131580613Y-97125736D01*
X131354092Y-97735461D01*
X128126331Y-97735461D01*
X128121856Y-97614540D01*
X127919387Y-97125736D01*
X127652532Y-97027073D01*
X126679605Y-98000000D01*
X126320395Y-98000000D01*
X125347468Y-97027073D01*
X125080613Y-97125736D01*
X124854092Y-97735461D01*
X122095230Y-97735461D01*
X122095248Y-97715813D01*
X121877243Y-97188200D01*
X121537105Y-96847468D01*
X125527073Y-96847468D01*
X126500000Y-97820395D01*
X127472927Y-96847468D01*
X127374264Y-96580613D01*
X126764539Y-96354092D01*
X126114540Y-96378144D01*
X125625736Y-96580613D01*
X125527073Y-96847468D01*
X121537105Y-96847468D01*
X121473923Y-96784176D01*
X120946691Y-96565250D01*
X120375813Y-96564752D01*
X119848200Y-96782757D01*
X119444176Y-97186077D01*
X119225250Y-97713309D01*
X119224752Y-98284187D01*
X111906584Y-98284187D01*
X111963113Y-98000000D01*
X111853880Y-97450849D01*
X111542811Y-96985302D01*
X111077264Y-96674233D01*
X110528113Y-96565000D01*
X110471887Y-96565000D01*
X109922736Y-96674233D01*
X109457189Y-96985302D01*
X109146120Y-97450849D01*
X109036887Y-98000000D01*
X102945080Y-98000000D01*
X102660725Y-97810000D01*
X103042811Y-97554698D01*
X103353880Y-97089151D01*
X103463113Y-96540000D01*
X103353880Y-95990849D01*
X103042811Y-95525302D01*
X102660725Y-95270000D01*
X103042811Y-95014698D01*
X103353880Y-94549151D01*
X103406584Y-94284187D01*
X109064752Y-94284187D01*
X109282757Y-94811800D01*
X109686077Y-95215824D01*
X110213309Y-95434750D01*
X110784187Y-95435248D01*
X111311800Y-95217243D01*
X111715824Y-94813923D01*
X111934750Y-94286691D01*
X111935000Y-94000000D01*
X119196887Y-94000000D01*
X119306120Y-94549151D01*
X119617189Y-95014698D01*
X120082736Y-95325767D01*
X120631887Y-95435000D01*
X120688113Y-95435000D01*
X121237264Y-95325767D01*
X121702811Y-95014698D01*
X122013880Y-94549151D01*
X122123113Y-94000000D01*
X122088064Y-93823795D01*
X124864716Y-93823795D01*
X125113106Y-94424943D01*
X125572637Y-94885278D01*
X126173352Y-95134716D01*
X126823795Y-95135284D01*
X127424943Y-94886894D01*
X127885278Y-94427363D01*
X128134716Y-93826648D01*
X128135284Y-93176205D01*
X127886894Y-92575057D01*
X127427363Y-92114722D01*
X126826648Y-91865284D01*
X126176205Y-91864716D01*
X125575057Y-92113106D01*
X125114722Y-92572637D01*
X124865284Y-93173352D01*
X124864716Y-93823795D01*
X122088064Y-93823795D01*
X122013880Y-93450849D01*
X121702811Y-92985302D01*
X121237264Y-92674233D01*
X120688113Y-92565000D01*
X120631887Y-92565000D01*
X120082736Y-92674233D01*
X119617189Y-92985302D01*
X119306120Y-93450849D01*
X119196887Y-94000000D01*
X111935000Y-94000000D01*
X111935248Y-93715813D01*
X111717243Y-93188200D01*
X111313923Y-92784176D01*
X110786691Y-92565250D01*
X110215813Y-92564752D01*
X109688200Y-92782757D01*
X109284176Y-93186077D01*
X109065250Y-93713309D01*
X109064752Y-94284187D01*
X103406584Y-94284187D01*
X103463113Y-94000000D01*
X103353880Y-93450849D01*
X103042811Y-92985302D01*
X102577264Y-92674233D01*
X102028113Y-92565000D01*
X101971887Y-92565000D01*
X101422736Y-92674233D01*
X100957189Y-92985302D01*
X100646120Y-93450849D01*
X100536887Y-94000000D01*
X99613610Y-94000000D01*
X99613610Y-87193663D01*
X104021931Y-87193663D01*
X104170493Y-87553212D01*
X104445341Y-87828540D01*
X104804630Y-87977730D01*
X105193663Y-87978069D01*
X105553212Y-87829507D01*
X105828540Y-87554659D01*
X105977730Y-87195370D01*
X105978069Y-86806337D01*
X105854694Y-86507745D01*
X107171861Y-86507745D01*
X107245995Y-86753864D01*
X107783223Y-86946965D01*
X108353454Y-86919778D01*
X108754005Y-86753864D01*
X108828139Y-86507745D01*
X108000000Y-85679605D01*
X107171861Y-86507745D01*
X105854694Y-86507745D01*
X105829507Y-86446788D01*
X105711200Y-86328274D01*
X105711200Y-85283223D01*
X106553035Y-85283223D01*
X106580222Y-85853454D01*
X106746136Y-86254005D01*
X106992255Y-86328139D01*
X107820395Y-85500000D01*
X108179605Y-85500000D01*
X109007745Y-86328139D01*
X109253864Y-86254005D01*
X109422735Y-85784187D01*
X111564752Y-85784187D01*
X111782757Y-86311800D01*
X112186077Y-86715824D01*
X112713309Y-86934750D01*
X113284187Y-86935248D01*
X113811800Y-86717243D01*
X114215824Y-86313923D01*
X114434750Y-85786691D01*
X114435248Y-85215813D01*
X114217243Y-84688200D01*
X113813923Y-84284176D01*
X113286691Y-84065250D01*
X112715813Y-84064752D01*
X112188200Y-84282757D01*
X111784176Y-84686077D01*
X111565250Y-85213309D01*
X111564752Y-85784187D01*
X109422735Y-85784187D01*
X109446965Y-85716777D01*
X109419778Y-85146546D01*
X109253864Y-84745995D01*
X109007745Y-84671861D01*
X108179605Y-85500000D01*
X107820395Y-85500000D01*
X106992255Y-84671861D01*
X106746136Y-84745995D01*
X106553035Y-85283223D01*
X105711200Y-85283223D01*
X105711200Y-84492255D01*
X107171861Y-84492255D01*
X108000000Y-85320395D01*
X108828139Y-84492255D01*
X108754005Y-84246136D01*
X108216777Y-84053035D01*
X107646546Y-84080222D01*
X107245995Y-84246136D01*
X107171861Y-84492255D01*
X105711200Y-84492255D01*
X105711200Y-82294588D01*
X107002894Y-81002895D01*
X107004828Y-81000000D01*
X108376887Y-81000000D01*
X108486120Y-81549151D01*
X108797189Y-82014698D01*
X109262736Y-82325767D01*
X109811887Y-82435000D01*
X109868113Y-82435000D01*
X110417264Y-82325767D01*
X110882811Y-82014698D01*
X111193880Y-81549151D01*
X111303113Y-81000000D01*
X111193880Y-80450849D01*
X110882811Y-79985302D01*
X110417264Y-79674233D01*
X109868113Y-79565000D01*
X109811887Y-79565000D01*
X109262736Y-79674233D01*
X108797189Y-79985302D01*
X108486120Y-80450849D01*
X108376887Y-81000000D01*
X107004828Y-81000000D01*
X107157062Y-80772165D01*
X107157063Y-80772164D01*
X107211200Y-80500000D01*
X107211200Y-77784187D01*
X108404752Y-77784187D01*
X108622757Y-78311800D01*
X109026077Y-78715824D01*
X109553309Y-78934750D01*
X110124187Y-78935248D01*
X110651800Y-78717243D01*
X111055824Y-78313923D01*
X111274750Y-77786691D01*
X111275000Y-77500000D01*
X118536887Y-77500000D01*
X118646120Y-78049151D01*
X118957189Y-78514698D01*
X119288800Y-78736274D01*
X119288800Y-79741190D01*
X119188200Y-79782757D01*
X118784176Y-80186077D01*
X118565250Y-80713309D01*
X118564752Y-81284187D01*
X118782757Y-81811800D01*
X119186077Y-82215824D01*
X119713309Y-82434750D01*
X120284187Y-82435248D01*
X120811800Y-82217243D01*
X121215824Y-81813923D01*
X121434750Y-81286691D01*
X121435248Y-80715813D01*
X121217243Y-80188200D01*
X120813923Y-79784176D01*
X120711200Y-79741522D01*
X120711200Y-79700000D01*
X122052560Y-79700000D01*
X122052560Y-81300000D01*
X122096838Y-81535317D01*
X122235910Y-81751441D01*
X122448110Y-81896431D01*
X122700000Y-81947440D01*
X124300000Y-81947440D01*
X124535317Y-81903162D01*
X124751441Y-81764090D01*
X124896431Y-81551890D01*
X124905370Y-81507745D01*
X125171861Y-81507745D01*
X125245995Y-81753864D01*
X125783223Y-81946965D01*
X126353454Y-81919778D01*
X126754005Y-81753864D01*
X126828139Y-81507745D01*
X126000000Y-80679605D01*
X125171861Y-81507745D01*
X124905370Y-81507745D01*
X124944646Y-81313799D01*
X124992255Y-81328139D01*
X125820395Y-80500000D01*
X126179605Y-80500000D01*
X127007745Y-81328139D01*
X127253864Y-81254005D01*
X127446965Y-80716777D01*
X127419778Y-80146546D01*
X127253864Y-79745995D01*
X127007745Y-79671861D01*
X126179605Y-80500000D01*
X125820395Y-80500000D01*
X124992255Y-79671861D01*
X124944833Y-79686145D01*
X124908351Y-79492255D01*
X125171861Y-79492255D01*
X126000000Y-80320395D01*
X126828139Y-79492255D01*
X126754005Y-79246136D01*
X126216777Y-79053035D01*
X125646546Y-79080222D01*
X125245995Y-79246136D01*
X125171861Y-79492255D01*
X124908351Y-79492255D01*
X124903162Y-79464683D01*
X124764090Y-79248559D01*
X124551890Y-79103569D01*
X124300000Y-79052560D01*
X122700000Y-79052560D01*
X122464683Y-79096838D01*
X122248559Y-79235910D01*
X122103569Y-79448110D01*
X122052560Y-79700000D01*
X120711200Y-79700000D01*
X120711200Y-78736274D01*
X121042811Y-78514698D01*
X121353880Y-78049151D01*
X121463113Y-77500000D01*
X121353880Y-76950849D01*
X121042811Y-76485302D01*
X120577264Y-76174233D01*
X120028113Y-76065000D01*
X119971887Y-76065000D01*
X119422736Y-76174233D01*
X118957189Y-76485302D01*
X118646120Y-76950849D01*
X118536887Y-77500000D01*
X111275000Y-77500000D01*
X111275248Y-77215813D01*
X111057243Y-76688200D01*
X110653923Y-76284176D01*
X110126691Y-76065250D01*
X109555813Y-76064752D01*
X109028200Y-76282757D01*
X108624176Y-76686077D01*
X108405250Y-77213309D01*
X108404752Y-77784187D01*
X107211200Y-77784187D01*
X107211200Y-74171794D01*
X107328540Y-74054659D01*
X107477730Y-73695370D01*
X107478069Y-73306337D01*
X107329507Y-72946788D01*
X107054659Y-72671460D01*
X106695370Y-72522270D01*
X106306337Y-72521931D01*
X105946788Y-72670493D01*
X105671460Y-72945341D01*
X105522270Y-73304630D01*
X105521931Y-73693663D01*
X105670493Y-74053212D01*
X105788800Y-74171726D01*
X105788800Y-80205411D01*
X104497106Y-81497106D01*
X104342937Y-81727835D01*
X104326235Y-81811800D01*
X104288800Y-82000000D01*
X104288800Y-86328206D01*
X104171460Y-86445341D01*
X104022270Y-86804630D01*
X104021931Y-87193663D01*
X99613610Y-87193663D01*
X99613610Y-87062410D01*
X99559473Y-86790246D01*
X99559473Y-86790245D01*
X99405304Y-86559516D01*
X95767238Y-82921450D01*
X95843113Y-82540000D01*
X95733880Y-81990849D01*
X95422811Y-81525302D01*
X95040725Y-81270000D01*
X95422811Y-81014698D01*
X95733880Y-80549151D01*
X95843113Y-80000000D01*
X95733880Y-79450849D01*
X95422811Y-78985302D01*
X95287665Y-78895000D01*
X95306309Y-78895000D01*
X95539698Y-78798327D01*
X95718327Y-78619699D01*
X95815000Y-78386310D01*
X95815000Y-77745750D01*
X95656250Y-77587000D01*
X94507000Y-77587000D01*
X94507000Y-77607000D01*
X94253000Y-77607000D01*
X94253000Y-77587000D01*
X93103750Y-77587000D01*
X92945000Y-77745750D01*
X92945000Y-78386310D01*
X93041673Y-78619699D01*
X93220302Y-78798327D01*
X93453691Y-78895000D01*
X93472335Y-78895000D01*
X93337189Y-78985302D01*
X93026120Y-79450849D01*
X92916887Y-80000000D01*
X88380301Y-80000000D01*
X88380301Y-77460000D01*
X100536887Y-77460000D01*
X100646120Y-78009151D01*
X100957189Y-78474698D01*
X101339275Y-78730000D01*
X100957189Y-78985302D01*
X100646120Y-79450849D01*
X100536887Y-80000000D01*
X100646120Y-80549151D01*
X100957189Y-81014698D01*
X101339275Y-81270000D01*
X100957189Y-81525302D01*
X100646120Y-81990849D01*
X100536887Y-82540000D01*
X100646120Y-83089151D01*
X100957189Y-83554698D01*
X101339275Y-83810000D01*
X100957189Y-84065302D01*
X100646120Y-84530849D01*
X100536887Y-85080000D01*
X100646120Y-85629151D01*
X100957189Y-86094698D01*
X101422736Y-86405767D01*
X101971887Y-86515000D01*
X102028113Y-86515000D01*
X102577264Y-86405767D01*
X103042811Y-86094698D01*
X103353880Y-85629151D01*
X103463113Y-85080000D01*
X103353880Y-84530849D01*
X103042811Y-84065302D01*
X102660725Y-83810000D01*
X103042811Y-83554698D01*
X103353880Y-83089151D01*
X103463113Y-82540000D01*
X103353880Y-81990849D01*
X103042811Y-81525302D01*
X102660725Y-81270000D01*
X103042811Y-81014698D01*
X103353880Y-80549151D01*
X103463113Y-80000000D01*
X103353880Y-79450849D01*
X103042811Y-78985302D01*
X102660725Y-78730000D01*
X103042811Y-78474698D01*
X103353880Y-78009151D01*
X103463113Y-77460000D01*
X103353880Y-76910849D01*
X103042811Y-76445302D01*
X102577264Y-76134233D01*
X102028113Y-76025000D01*
X101971887Y-76025000D01*
X101422736Y-76134233D01*
X100957189Y-76445302D01*
X100646120Y-76910849D01*
X100536887Y-77460000D01*
X88380301Y-77460000D01*
X88380301Y-77007745D01*
X88671861Y-77007745D01*
X88745995Y-77253864D01*
X89283223Y-77446965D01*
X89853454Y-77419778D01*
X90254005Y-77253864D01*
X90328139Y-77007745D01*
X89500000Y-76179605D01*
X88671861Y-77007745D01*
X88380301Y-77007745D01*
X88380301Y-76794417D01*
X88492255Y-76828139D01*
X89320395Y-76000000D01*
X89679605Y-76000000D01*
X90507745Y-76828139D01*
X90753864Y-76754005D01*
X90833053Y-76533690D01*
X92945000Y-76533690D01*
X92945000Y-77174250D01*
X93103750Y-77333000D01*
X94253000Y-77333000D01*
X94253000Y-76183750D01*
X94507000Y-76183750D01*
X94507000Y-77333000D01*
X95656250Y-77333000D01*
X95815000Y-77174250D01*
X95815000Y-76533690D01*
X95718327Y-76300301D01*
X95539698Y-76121673D01*
X95306309Y-76025000D01*
X94665750Y-76025000D01*
X94507000Y-76183750D01*
X94253000Y-76183750D01*
X94094250Y-76025000D01*
X93453691Y-76025000D01*
X93220302Y-76121673D01*
X93041673Y-76300301D01*
X92945000Y-76533690D01*
X90833053Y-76533690D01*
X90946965Y-76216777D01*
X90919778Y-75646546D01*
X90753864Y-75245995D01*
X90507745Y-75171861D01*
X89679605Y-76000000D01*
X89320395Y-76000000D01*
X88492255Y-75171861D01*
X88380301Y-75205583D01*
X88380301Y-74992255D01*
X88671861Y-74992255D01*
X89500000Y-75820395D01*
X90328139Y-74992255D01*
X90254005Y-74746136D01*
X89716777Y-74553035D01*
X89146546Y-74580222D01*
X88745995Y-74746136D01*
X88671861Y-74992255D01*
X88380301Y-74992255D01*
X88380301Y-73752552D01*
X88578540Y-73554659D01*
X88727730Y-73195370D01*
X88728069Y-72806337D01*
X88579507Y-72446788D01*
X88304659Y-72171460D01*
X87945370Y-72022270D01*
X87556337Y-72021931D01*
X87196788Y-72170493D01*
X86921460Y-72445341D01*
X86772270Y-72804630D01*
X86771931Y-73193663D01*
X86920493Y-73553212D01*
X86957901Y-73590685D01*
X86957901Y-122277473D01*
X86945370Y-122272270D01*
X86889534Y-122272221D01*
X86889581Y-122217849D01*
X86741019Y-121858300D01*
X86466171Y-121582972D01*
X86106882Y-121433782D01*
X85717849Y-121433443D01*
X85461200Y-121539488D01*
X85461200Y-118317381D01*
X85502894Y-118275687D01*
X85657062Y-118044957D01*
X85657063Y-118044956D01*
X85690781Y-117875447D01*
X85868371Y-117802068D01*
X86300551Y-117370643D01*
X86534733Y-116806670D01*
X86535265Y-116196009D01*
X86302068Y-115631629D01*
X85870643Y-115199449D01*
X85306670Y-114965267D01*
X84696009Y-114964735D01*
X84131629Y-115197932D01*
X83963387Y-115365880D01*
X83963162Y-115364683D01*
X83824090Y-115148559D01*
X83611890Y-115003569D01*
X83360000Y-114952560D01*
X81560000Y-114952560D01*
X81324683Y-114996838D01*
X81108559Y-115135910D01*
X80963569Y-115348110D01*
X80912560Y-115600000D01*
X80710000Y-115600000D01*
X80710000Y-100100000D01*
X80912560Y-100100000D01*
X80912560Y-101900000D01*
X80956838Y-102135317D01*
X81095910Y-102351441D01*
X81308110Y-102496431D01*
X81560000Y-102547440D01*
X83360000Y-102547440D01*
X83595317Y-102503162D01*
X83811441Y-102364090D01*
X83956431Y-102151890D01*
X83960567Y-102131466D01*
X84129357Y-102300551D01*
X84693330Y-102534733D01*
X85303991Y-102535265D01*
X85868371Y-102302068D01*
X86300551Y-101870643D01*
X86534733Y-101306670D01*
X86535265Y-100696009D01*
X86302068Y-100131629D01*
X85870643Y-99699449D01*
X85306670Y-99465267D01*
X84696009Y-99464735D01*
X84131629Y-99697932D01*
X83963387Y-99865880D01*
X83963162Y-99864683D01*
X83824090Y-99648559D01*
X83611890Y-99503569D01*
X83360000Y-99452560D01*
X81560000Y-99452560D01*
X81324683Y-99496838D01*
X81108559Y-99635910D01*
X80963569Y-99848110D01*
X80912560Y-100100000D01*
X80710000Y-100100000D01*
X80710000Y-83100000D01*
X80912560Y-83100000D01*
X80912560Y-84900000D01*
X80956838Y-85135317D01*
X81095910Y-85351441D01*
X81308110Y-85496431D01*
X81560000Y-85547440D01*
X83360000Y-85547440D01*
X83595317Y-85503162D01*
X83811441Y-85364090D01*
X83956431Y-85151890D01*
X83960567Y-85131466D01*
X84129357Y-85300551D01*
X84693330Y-85534733D01*
X85303991Y-85535265D01*
X85868371Y-85302068D01*
X86300551Y-84870643D01*
X86534733Y-84306670D01*
X86535265Y-83696009D01*
X86302068Y-83131629D01*
X85870643Y-82699449D01*
X85306670Y-82465267D01*
X84696009Y-82464735D01*
X84131629Y-82697932D01*
X83963387Y-82865880D01*
X83963162Y-82864683D01*
X83824090Y-82648559D01*
X83611890Y-82503569D01*
X83360000Y-82452560D01*
X81560000Y-82452560D01*
X81324683Y-82496838D01*
X81108559Y-82635910D01*
X80963569Y-82848110D01*
X80912560Y-83100000D01*
X80710000Y-83100000D01*
X80710000Y-64652532D01*
X88527073Y-64652532D01*
X88625736Y-64919387D01*
X89235461Y-65145908D01*
X89885460Y-65121856D01*
X90374264Y-64919387D01*
X90472927Y-64652532D01*
X89500000Y-63679605D01*
X88527073Y-64652532D01*
X80710000Y-64652532D01*
X80710000Y-63235461D01*
X87854092Y-63235461D01*
X87878144Y-63885460D01*
X88080613Y-64374264D01*
X88347468Y-64472927D01*
X89320395Y-63500000D01*
X89679605Y-63500000D01*
X90652532Y-64472927D01*
X90919387Y-64374264D01*
X91123893Y-63823795D01*
X102364716Y-63823795D01*
X102613106Y-64424943D01*
X103072637Y-64885278D01*
X103288800Y-64975036D01*
X103288800Y-71328206D01*
X103171460Y-71445341D01*
X103022270Y-71804630D01*
X103021931Y-72193663D01*
X103170493Y-72553212D01*
X103445341Y-72828540D01*
X103804630Y-72977730D01*
X104193663Y-72978069D01*
X104553212Y-72829507D01*
X104828540Y-72554659D01*
X104977730Y-72195370D01*
X104978069Y-71806337D01*
X104829507Y-71446788D01*
X104711200Y-71328274D01*
X104711200Y-64975211D01*
X104924943Y-64886894D01*
X105385278Y-64427363D01*
X105634716Y-63826648D01*
X105635284Y-63176205D01*
X105386894Y-62575057D01*
X104927363Y-62114722D01*
X104326648Y-61865284D01*
X103676205Y-61864716D01*
X103075057Y-62113106D01*
X102614722Y-62572637D01*
X102365284Y-63173352D01*
X102364716Y-63823795D01*
X91123893Y-63823795D01*
X91145908Y-63764539D01*
X91121856Y-63114540D01*
X90919387Y-62625736D01*
X90652532Y-62527073D01*
X89679605Y-63500000D01*
X89320395Y-63500000D01*
X88347468Y-62527073D01*
X88080613Y-62625736D01*
X87854092Y-63235461D01*
X80710000Y-63235461D01*
X80710000Y-62347468D01*
X88527073Y-62347468D01*
X89500000Y-63320395D01*
X90472927Y-62347468D01*
X90374264Y-62080613D01*
X89764539Y-61854092D01*
X89114540Y-61878144D01*
X88625736Y-62080613D01*
X88527073Y-62347468D01*
X80710000Y-62347468D01*
X80710000Y-60710000D01*
X135290000Y-60710000D01*
X135290000Y-99830878D01*
X135290000Y-99830878D01*
G37*
X135290000Y-99830878D02*
X135287401Y-99828274D01*
X135287401Y-79576201D01*
X135233264Y-79304037D01*
X135233264Y-79304036D01*
X135079095Y-79073307D01*
X129477925Y-73472137D01*
X129478069Y-73306337D01*
X129329507Y-72946788D01*
X129211200Y-72828274D01*
X129211200Y-65500000D01*
X129157063Y-65227836D01*
X129157063Y-65227835D01*
X129002894Y-64997106D01*
X128046026Y-64040238D01*
X128134716Y-63826648D01*
X128135284Y-63176205D01*
X127886894Y-62575057D01*
X127427363Y-62114722D01*
X126826648Y-61865284D01*
X126176205Y-61864716D01*
X125575057Y-62113106D01*
X125114722Y-62572637D01*
X124865284Y-63173352D01*
X124864716Y-63823795D01*
X125113106Y-64424943D01*
X125572637Y-64885278D01*
X126173352Y-65134716D01*
X126823795Y-65135284D01*
X127040114Y-65045902D01*
X127788800Y-65794588D01*
X127788800Y-72828206D01*
X127671460Y-72945341D01*
X127522270Y-73304630D01*
X127521931Y-73693663D01*
X127670493Y-74053212D01*
X127945341Y-74328540D01*
X128304630Y-74477730D01*
X128472088Y-74477876D01*
X133865001Y-79870789D01*
X133865001Y-92088827D01*
X133326648Y-91865284D01*
X132676205Y-91864716D01*
X132075057Y-92113106D01*
X131614722Y-92572637D01*
X131365284Y-93173352D01*
X131364716Y-93823795D01*
X131613106Y-94424943D01*
X132072637Y-94885278D01*
X132673352Y-95134716D01*
X133323795Y-95135284D01*
X133865001Y-94911662D01*
X133865001Y-96577172D01*
X133264539Y-96354092D01*
X132614540Y-96378144D01*
X132125736Y-96580613D01*
X132027073Y-96847468D01*
X133000000Y-97820395D01*
X133014143Y-97806253D01*
X133193748Y-97985858D01*
X133179605Y-98000000D01*
X133193748Y-98014143D01*
X133014143Y-98193748D01*
X133000000Y-98179605D01*
X132027073Y-99152532D01*
X132125736Y-99419387D01*
X132735461Y-99645908D01*
X133385460Y-99621856D01*
X133865001Y-99423224D01*
X133865001Y-99828206D01*
X133747661Y-99945341D01*
X133598471Y-100304630D01*
X133598132Y-100693663D01*
X133746694Y-101053212D01*
X133865001Y-101171726D01*
X133865001Y-105328206D01*
X133747661Y-105445341D01*
X133598471Y-105804630D01*
X133598132Y-106193663D01*
X133746694Y-106553212D01*
X133865001Y-106671726D01*
X133865001Y-123828206D01*
X133747661Y-123945341D01*
X133598471Y-124304630D01*
X133598132Y-124693663D01*
X133746694Y-125053212D01*
X134021542Y-125328540D01*
X134380831Y-125477730D01*
X134769864Y-125478069D01*
X135129413Y-125329507D01*
X135290000Y-125169200D01*
X135290000Y-159290000D01*
X80710000Y-159290000D01*
X80710000Y-154100000D01*
X92412560Y-154100000D01*
X92412560Y-155900000D01*
X92456838Y-156135317D01*
X92595910Y-156351441D01*
X92808110Y-156496431D01*
X93060000Y-156547440D01*
X94860000Y-156547440D01*
X95095317Y-156503162D01*
X95311441Y-156364090D01*
X95456431Y-156151890D01*
X95460567Y-156131466D01*
X95629357Y-156300551D01*
X96193330Y-156534733D01*
X96803991Y-156535265D01*
X96821157Y-156528172D01*
X110832538Y-156528172D01*
X111237709Y-157508761D01*
X111987293Y-158259655D01*
X112967173Y-158666536D01*
X114028172Y-158667462D01*
X115008761Y-158262291D01*
X115759655Y-157512707D01*
X116166536Y-156532827D01*
X116166718Y-156323795D01*
X116864716Y-156323795D01*
X117113106Y-156924943D01*
X117572637Y-157385278D01*
X118173352Y-157634716D01*
X118823795Y-157635284D01*
X119424943Y-157386894D01*
X119885278Y-156927363D01*
X120134716Y-156326648D01*
X120134792Y-156238935D01*
X120293291Y-156238935D01*
X120476582Y-156682535D01*
X120815680Y-157022225D01*
X121258959Y-157206290D01*
X121738935Y-157206709D01*
X122182535Y-157023418D01*
X122522225Y-156684320D01*
X122706290Y-156241041D01*
X122706709Y-155761065D01*
X122523418Y-155317465D01*
X122184320Y-154977775D01*
X121741041Y-154793710D01*
X121261065Y-154793291D01*
X120817465Y-154976582D01*
X120477775Y-155315680D01*
X120293710Y-155758959D01*
X120293291Y-156238935D01*
X120134792Y-156238935D01*
X120135284Y-155676205D01*
X119886894Y-155075057D01*
X119427363Y-154614722D01*
X118826648Y-154365284D01*
X118176205Y-154364716D01*
X117575057Y-154613106D01*
X117114722Y-155072637D01*
X116865284Y-155673352D01*
X116864716Y-156323795D01*
X116166718Y-156323795D01*
X116167462Y-155471828D01*
X115762291Y-154491239D01*
X115012707Y-153740345D01*
X114032827Y-153333464D01*
X112971828Y-153332538D01*
X111991239Y-153737709D01*
X111240345Y-154487293D01*
X110833464Y-155467173D01*
X110832538Y-156528172D01*
X96821157Y-156528172D01*
X97368371Y-156302068D01*
X97800551Y-155870643D01*
X98034733Y-155306670D01*
X98035265Y-154696009D01*
X97802068Y-154131629D01*
X97370643Y-153699449D01*
X96806670Y-153465267D01*
X96196009Y-153464735D01*
X95631629Y-153697932D01*
X95463387Y-153865880D01*
X95463162Y-153864683D01*
X95324090Y-153648559D01*
X95111890Y-153503569D01*
X94860000Y-153452560D01*
X93060000Y-153452560D01*
X92824683Y-153496838D01*
X92608559Y-153635910D01*
X92463569Y-153848110D01*
X92412560Y-154100000D01*
X80710000Y-154100000D01*
X80710000Y-150007745D01*
X89171861Y-150007745D01*
X89245995Y-150253864D01*
X89783223Y-150446965D01*
X90353454Y-150419778D01*
X90754005Y-150253864D01*
X90828139Y-150007745D01*
X90000000Y-149179605D01*
X89171861Y-150007745D01*
X80710000Y-150007745D01*
X80710000Y-148783223D01*
X88553035Y-148783223D01*
X88580222Y-149353454D01*
X88746136Y-149754005D01*
X88992255Y-149828139D01*
X89820395Y-149000000D01*
X90179605Y-149000000D01*
X91007745Y-149828139D01*
X91253864Y-149754005D01*
X91446965Y-149216777D01*
X91436630Y-149000000D01*
X98696887Y-149000000D01*
X98806120Y-149549151D01*
X99117189Y-150014698D01*
X99582736Y-150325767D01*
X100131887Y-150435000D01*
X100188113Y-150435000D01*
X100737264Y-150325767D01*
X101202811Y-150014698D01*
X101513880Y-149549151D01*
X101623113Y-149000000D01*
X101513880Y-148450849D01*
X101202811Y-147985302D01*
X100737264Y-147674233D01*
X100188113Y-147565000D01*
X100131887Y-147565000D01*
X99582736Y-147674233D01*
X99117189Y-147985302D01*
X98806120Y-148450849D01*
X98696887Y-149000000D01*
X91436630Y-149000000D01*
X91419778Y-148646546D01*
X91253864Y-148245995D01*
X91007745Y-148171861D01*
X90179605Y-149000000D01*
X89820395Y-149000000D01*
X88992255Y-148171861D01*
X88746136Y-148245995D01*
X88553035Y-148783223D01*
X80710000Y-148783223D01*
X80710000Y-147992255D01*
X89171861Y-147992255D01*
X90000000Y-148820395D01*
X90828139Y-147992255D01*
X90754005Y-147746136D01*
X90216777Y-147553035D01*
X89646546Y-147580222D01*
X89245995Y-147746136D01*
X89171861Y-147992255D01*
X80710000Y-147992255D01*
X80710000Y-142719039D01*
X83358096Y-142719039D01*
X83518959Y-143107423D01*
X83894866Y-143522389D01*
X84400959Y-143761914D01*
X84623000Y-143640629D01*
X84623000Y-142497000D01*
X84877000Y-142497000D01*
X84877000Y-143640629D01*
X85099041Y-143761914D01*
X85605134Y-143522389D01*
X85981041Y-143107423D01*
X86141904Y-142719039D01*
X86019915Y-142497000D01*
X84877000Y-142497000D01*
X84623000Y-142497000D01*
X83480085Y-142497000D01*
X83358096Y-142719039D01*
X80710000Y-142719039D01*
X80710000Y-115600000D01*
X80912560Y-115600000D01*
X80912560Y-117400000D01*
X80956838Y-117635317D01*
X81095910Y-117851441D01*
X81308110Y-117996431D01*
X81560000Y-118047440D01*
X83360000Y-118047440D01*
X83595317Y-118003162D01*
X83811441Y-117864090D01*
X83956431Y-117651890D01*
X83960567Y-117631466D01*
X84090708Y-117761834D01*
X84082705Y-117802068D01*
X84038800Y-118022792D01*
X84038800Y-125682560D01*
X83950000Y-125682560D01*
X83714683Y-125726838D01*
X83498559Y-125865910D01*
X83353569Y-126078110D01*
X83302560Y-126330000D01*
X83302560Y-127930000D01*
X83346838Y-128165317D01*
X83485910Y-128381441D01*
X83698110Y-128526431D01*
X83853089Y-128557815D01*
X83707189Y-128655302D01*
X83396120Y-129120849D01*
X83286887Y-129670000D01*
X83396120Y-130219151D01*
X83707189Y-130684698D01*
X84089275Y-130940000D01*
X83707189Y-131195302D01*
X83396120Y-131660849D01*
X83286887Y-132210000D01*
X83396120Y-132759151D01*
X83707189Y-133224698D01*
X84089275Y-133480000D01*
X83707189Y-133735302D01*
X83396120Y-134200849D01*
X83286887Y-134750000D01*
X83396120Y-135299151D01*
X83707189Y-135764698D01*
X84089275Y-136020000D01*
X83707189Y-136275302D01*
X83396120Y-136740849D01*
X83286887Y-137290000D01*
X83396120Y-137839151D01*
X83707189Y-138304698D01*
X84089275Y-138560000D01*
X83707189Y-138815302D01*
X83396120Y-139280849D01*
X83286887Y-139830000D01*
X83396120Y-140379151D01*
X83707189Y-140844698D01*
X84111703Y-141114986D01*
X83894866Y-141217611D01*
X83518959Y-141632577D01*
X83358096Y-142020961D01*
X83480085Y-142243000D01*
X84623000Y-142243000D01*
X84623000Y-142223000D01*
X84877000Y-142223000D01*
X84877000Y-142243000D01*
X86019915Y-142243000D01*
X86141904Y-142020961D01*
X85981041Y-141632577D01*
X85605134Y-141217611D01*
X85388297Y-141114986D01*
X85792811Y-140844698D01*
X86103880Y-140379151D01*
X86213113Y-139830000D01*
X86103880Y-139280849D01*
X85792811Y-138815302D01*
X85410725Y-138560000D01*
X85792811Y-138304698D01*
X86103880Y-137839151D01*
X86213113Y-137290000D01*
X86195459Y-137201247D01*
X87288800Y-138294588D01*
X87288800Y-145328206D01*
X87171460Y-145445341D01*
X87022270Y-145804630D01*
X87021931Y-146193663D01*
X87170493Y-146553212D01*
X87445341Y-146828540D01*
X87804630Y-146977730D01*
X88193663Y-146978069D01*
X88553212Y-146829507D01*
X88828540Y-146554659D01*
X88977730Y-146195370D01*
X88978069Y-145806337D01*
X88829507Y-145446788D01*
X88711200Y-145328274D01*
X88711200Y-138000000D01*
X88657063Y-137727836D01*
X88657063Y-137727835D01*
X88502894Y-137497106D01*
X86137238Y-135131450D01*
X86213113Y-134750000D01*
X86103880Y-134200849D01*
X85792811Y-133735302D01*
X85410725Y-133480000D01*
X85792811Y-133224698D01*
X86103880Y-132759151D01*
X86213113Y-132210000D01*
X86137238Y-131828550D01*
X88171995Y-129793794D01*
X88326164Y-129563064D01*
X88335146Y-129517909D01*
X88380301Y-129290899D01*
X88380301Y-127130000D01*
X90906887Y-127130000D01*
X91016120Y-127679151D01*
X91327189Y-128144698D01*
X91709275Y-128400000D01*
X91327189Y-128655302D01*
X91016120Y-129120849D01*
X90906887Y-129670000D01*
X91016120Y-130219151D01*
X91327189Y-130684698D01*
X91709275Y-130940000D01*
X91327189Y-131195302D01*
X91016120Y-131660849D01*
X90906887Y-132210000D01*
X91016120Y-132759151D01*
X91327189Y-133224698D01*
X91709275Y-133480000D01*
X91327189Y-133735302D01*
X91016120Y-134200849D01*
X90906887Y-134750000D01*
X91016120Y-135299151D01*
X91327189Y-135764698D01*
X91709275Y-136020000D01*
X91327189Y-136275302D01*
X91016120Y-136740849D01*
X90906887Y-137290000D01*
X91016120Y-137839151D01*
X91327189Y-138304698D01*
X91709275Y-138560000D01*
X91327189Y-138815302D01*
X91016120Y-139280849D01*
X90906887Y-139830000D01*
X91016120Y-140379151D01*
X91327189Y-140844698D01*
X91709275Y-141100000D01*
X91327189Y-141355302D01*
X91016120Y-141820849D01*
X90906887Y-142370000D01*
X91016120Y-142919151D01*
X91327189Y-143384698D01*
X91792736Y-143695767D01*
X92341887Y-143805000D01*
X92398113Y-143805000D01*
X92947264Y-143695767D01*
X93412811Y-143384698D01*
X93723880Y-142919151D01*
X93763684Y-142719039D01*
X102738096Y-142719039D01*
X102898959Y-143107423D01*
X103274866Y-143522389D01*
X103780959Y-143761914D01*
X104003000Y-143640629D01*
X104003000Y-142497000D01*
X104257000Y-142497000D01*
X104257000Y-143640629D01*
X104479041Y-143761914D01*
X104985134Y-143522389D01*
X105361041Y-143107423D01*
X105521904Y-142719039D01*
X105399915Y-142497000D01*
X104257000Y-142497000D01*
X104003000Y-142497000D01*
X102860085Y-142497000D01*
X102738096Y-142719039D01*
X93763684Y-142719039D01*
X93833113Y-142370000D01*
X93723880Y-141820849D01*
X93412811Y-141355302D01*
X93030725Y-141100000D01*
X93412811Y-140844698D01*
X93723880Y-140379151D01*
X93833113Y-139830000D01*
X93723880Y-139280849D01*
X93412811Y-138815302D01*
X93030725Y-138560000D01*
X93412811Y-138304698D01*
X93723880Y-137839151D01*
X93833113Y-137290000D01*
X93723880Y-136740849D01*
X93412811Y-136275302D01*
X93030725Y-136020000D01*
X93412811Y-135764698D01*
X93723880Y-135299151D01*
X93833113Y-134750000D01*
X93723880Y-134200849D01*
X93412811Y-133735302D01*
X93030725Y-133480000D01*
X93412811Y-133224698D01*
X93723880Y-132759151D01*
X93833113Y-132210000D01*
X93723880Y-131660849D01*
X93412811Y-131195302D01*
X93030725Y-130940000D01*
X93412811Y-130684698D01*
X93723880Y-130219151D01*
X93833113Y-129670000D01*
X93723880Y-129120849D01*
X93412811Y-128655302D01*
X93030725Y-128400000D01*
X93412811Y-128144698D01*
X93723880Y-127679151D01*
X93833113Y-127130000D01*
X93723880Y-126580849D01*
X93412811Y-126115302D01*
X92947264Y-125804233D01*
X92398113Y-125695000D01*
X92341887Y-125695000D01*
X91792736Y-125804233D01*
X91327189Y-126115302D01*
X91016120Y-126580849D01*
X90906887Y-127130000D01*
X88380301Y-127130000D01*
X88380301Y-119385666D01*
X88485302Y-119542811D01*
X88950849Y-119853880D01*
X89500000Y-119963113D01*
X90049151Y-119853880D01*
X90514698Y-119542811D01*
X90825767Y-119077264D01*
X90935000Y-118528113D01*
X90935000Y-118471887D01*
X90825767Y-117922736D01*
X90514698Y-117457189D01*
X90049151Y-117146120D01*
X89500000Y-117036887D01*
X88950849Y-117146120D01*
X88485302Y-117457189D01*
X88380301Y-117614334D01*
X88380301Y-112460000D01*
X92916887Y-112460000D01*
X93026120Y-113009151D01*
X93337189Y-113474698D01*
X93719275Y-113730000D01*
X93337189Y-113985302D01*
X93026120Y-114450849D01*
X92916887Y-115000000D01*
X93026120Y-115549151D01*
X93337189Y-116014698D01*
X93719275Y-116270000D01*
X93337189Y-116525302D01*
X93026120Y-116990849D01*
X92916887Y-117540000D01*
X93026120Y-118089151D01*
X93337189Y-118554698D01*
X93802736Y-118865767D01*
X94351887Y-118975000D01*
X94408113Y-118975000D01*
X94957264Y-118865767D01*
X95422811Y-118554698D01*
X95733880Y-118089151D01*
X95843113Y-117540000D01*
X95733880Y-116990849D01*
X95422811Y-116525302D01*
X95040725Y-116270000D01*
X95422811Y-116014698D01*
X95733880Y-115549151D01*
X95843113Y-115000000D01*
X95733880Y-114450849D01*
X95422811Y-113985302D01*
X95040725Y-113730000D01*
X95422811Y-113474698D01*
X95733880Y-113009151D01*
X95843113Y-112460000D01*
X95733880Y-111910849D01*
X95422811Y-111445302D01*
X95287665Y-111355000D01*
X95306309Y-111355000D01*
X95539698Y-111258327D01*
X95718327Y-111079699D01*
X95815000Y-110846310D01*
X95815000Y-110205750D01*
X95656250Y-110047000D01*
X94507000Y-110047000D01*
X94507000Y-110067000D01*
X94253000Y-110067000D01*
X94253000Y-110047000D01*
X93103750Y-110047000D01*
X92945000Y-110205750D01*
X92945000Y-110846310D01*
X93041673Y-111079699D01*
X93220302Y-111258327D01*
X93453691Y-111355000D01*
X93472335Y-111355000D01*
X93337189Y-111445302D01*
X93026120Y-111910849D01*
X92916887Y-112460000D01*
X88380301Y-112460000D01*
X88380301Y-109347745D01*
X88671861Y-109347745D01*
X88745995Y-109593864D01*
X89283223Y-109786965D01*
X89853454Y-109759778D01*
X90254005Y-109593864D01*
X90328139Y-109347745D01*
X89500000Y-108519605D01*
X88671861Y-109347745D01*
X88380301Y-109347745D01*
X88380301Y-109134417D01*
X88492255Y-109168139D01*
X89320395Y-108340000D01*
X89679605Y-108340000D01*
X90507745Y-109168139D01*
X90753864Y-109094005D01*
X90789921Y-108993690D01*
X92945000Y-108993690D01*
X92945000Y-109634250D01*
X93103750Y-109793000D01*
X94253000Y-109793000D01*
X94253000Y-108643750D01*
X94507000Y-108643750D01*
X94507000Y-109793000D01*
X95656250Y-109793000D01*
X95815000Y-109634250D01*
X95815000Y-108993690D01*
X95718327Y-108760301D01*
X95539698Y-108581673D01*
X95306309Y-108485000D01*
X94665750Y-108485000D01*
X94507000Y-108643750D01*
X94253000Y-108643750D01*
X94094250Y-108485000D01*
X93453691Y-108485000D01*
X93220302Y-108581673D01*
X93041673Y-108760301D01*
X92945000Y-108993690D01*
X90789921Y-108993690D01*
X90946965Y-108556777D01*
X90919778Y-107986546D01*
X90753864Y-107585995D01*
X90507745Y-107511861D01*
X89679605Y-108340000D01*
X89320395Y-108340000D01*
X88492255Y-107511861D01*
X88380301Y-107545583D01*
X88380301Y-107332255D01*
X88671861Y-107332255D01*
X89500000Y-108160395D01*
X90328139Y-107332255D01*
X90254005Y-107086136D01*
X89716777Y-106893035D01*
X89146546Y-106920222D01*
X88745995Y-107086136D01*
X88671861Y-107332255D01*
X88380301Y-107332255D01*
X88380301Y-103885666D01*
X88485302Y-104042811D01*
X88950849Y-104353880D01*
X89500000Y-104463113D01*
X90049151Y-104353880D01*
X90514698Y-104042811D01*
X90825767Y-103577264D01*
X90935000Y-103028113D01*
X90935000Y-102971887D01*
X90825767Y-102422736D01*
X90514698Y-101957189D01*
X90049151Y-101646120D01*
X89500000Y-101536887D01*
X88950849Y-101646120D01*
X88485302Y-101957189D01*
X88380301Y-102114334D01*
X88380301Y-93847745D01*
X88671861Y-93847745D01*
X88745995Y-94093864D01*
X89283223Y-94286965D01*
X89853454Y-94259778D01*
X90254005Y-94093864D01*
X90328139Y-93847745D01*
X89500000Y-93019605D01*
X88671861Y-93847745D01*
X88380301Y-93847745D01*
X88380301Y-93634417D01*
X88492255Y-93668139D01*
X89320395Y-92840000D01*
X89679605Y-92840000D01*
X90507745Y-93668139D01*
X90753864Y-93594005D01*
X90940885Y-93073690D01*
X92945000Y-93073690D01*
X92945000Y-93714250D01*
X93103750Y-93873000D01*
X94253000Y-93873000D01*
X94253000Y-92723750D01*
X94507000Y-92723750D01*
X94507000Y-93873000D01*
X95656250Y-93873000D01*
X95815000Y-93714250D01*
X95815000Y-93073690D01*
X95718327Y-92840301D01*
X95539698Y-92661673D01*
X95306309Y-92565000D01*
X94665750Y-92565000D01*
X94507000Y-92723750D01*
X94253000Y-92723750D01*
X94094250Y-92565000D01*
X93453691Y-92565000D01*
X93220302Y-92661673D01*
X93041673Y-92840301D01*
X92945000Y-93073690D01*
X90940885Y-93073690D01*
X90946965Y-93056777D01*
X90919778Y-92486546D01*
X90753864Y-92085995D01*
X90507745Y-92011861D01*
X89679605Y-92840000D01*
X89320395Y-92840000D01*
X88492255Y-92011861D01*
X88380301Y-92045583D01*
X88380301Y-91832255D01*
X88671861Y-91832255D01*
X89500000Y-92660395D01*
X90328139Y-91832255D01*
X90254005Y-91586136D01*
X89716777Y-91393035D01*
X89146546Y-91420222D01*
X88745995Y-91586136D01*
X88671861Y-91832255D01*
X88380301Y-91832255D01*
X88380301Y-87045666D01*
X88485302Y-87202811D01*
X88950849Y-87513880D01*
X89500000Y-87623113D01*
X90049151Y-87513880D01*
X90514698Y-87202811D01*
X90825767Y-86737264D01*
X90935000Y-86188113D01*
X90935000Y-86131887D01*
X90825767Y-85582736D01*
X90514698Y-85117189D01*
X90049151Y-84806120D01*
X89500000Y-84696887D01*
X88950849Y-84806120D01*
X88485302Y-85117189D01*
X88380301Y-85274334D01*
X88380301Y-80000000D01*
X92916887Y-80000000D01*
X93026120Y-80549151D01*
X93337189Y-81014698D01*
X93719275Y-81270000D01*
X93337189Y-81525302D01*
X93026120Y-81990849D01*
X92916887Y-82540000D01*
X93026120Y-83089151D01*
X93337189Y-83554698D01*
X93719275Y-83810000D01*
X93337189Y-84065302D01*
X93026120Y-84530849D01*
X92916887Y-85080000D01*
X93026120Y-85629151D01*
X93337189Y-86094698D01*
X93802736Y-86405767D01*
X94351887Y-86515000D01*
X94408113Y-86515000D01*
X94957264Y-86405767D01*
X95422811Y-86094698D01*
X95733880Y-85629151D01*
X95843113Y-85080000D01*
X95825459Y-84991247D01*
X98191210Y-87356998D01*
X98191210Y-101885422D01*
X95767238Y-99461450D01*
X95843113Y-99080000D01*
X95733880Y-98530849D01*
X95422811Y-98065302D01*
X95040725Y-97810000D01*
X95422811Y-97554698D01*
X95733880Y-97089151D01*
X95843113Y-96540000D01*
X95733880Y-95990849D01*
X95422811Y-95525302D01*
X95287665Y-95435000D01*
X95306309Y-95435000D01*
X95539698Y-95338327D01*
X95718327Y-95159699D01*
X95815000Y-94926310D01*
X95815000Y-94285750D01*
X95656250Y-94127000D01*
X94507000Y-94127000D01*
X94507000Y-94147000D01*
X94253000Y-94147000D01*
X94253000Y-94127000D01*
X93103750Y-94127000D01*
X92945000Y-94285750D01*
X92945000Y-94926310D01*
X93041673Y-95159699D01*
X93220302Y-95338327D01*
X93453691Y-95435000D01*
X93472335Y-95435000D01*
X93337189Y-95525302D01*
X93026120Y-95990849D01*
X92916887Y-96540000D01*
X93026120Y-97089151D01*
X93337189Y-97554698D01*
X93719275Y-97810000D01*
X93337189Y-98065302D01*
X93026120Y-98530849D01*
X92916887Y-99080000D01*
X93026120Y-99629151D01*
X93337189Y-100094698D01*
X93719275Y-100350000D01*
X93337189Y-100605302D01*
X93026120Y-101070849D01*
X92916887Y-101620000D01*
X93026120Y-102169151D01*
X93337189Y-102634698D01*
X93802736Y-102945767D01*
X94351887Y-103055000D01*
X94408113Y-103055000D01*
X94957264Y-102945767D01*
X95422811Y-102634698D01*
X95733880Y-102169151D01*
X95843113Y-101620000D01*
X95825459Y-101531247D01*
X97538800Y-103244588D01*
X97538800Y-131410000D01*
X97592937Y-131682165D01*
X97747106Y-131912894D01*
X102742762Y-136908551D01*
X102666887Y-137290000D01*
X102776120Y-137839151D01*
X103087189Y-138304698D01*
X103469275Y-138560000D01*
X103087189Y-138815302D01*
X102776120Y-139280849D01*
X102666887Y-139830000D01*
X102776120Y-140379151D01*
X103087189Y-140844698D01*
X103491703Y-141114986D01*
X103274866Y-141217611D01*
X102898959Y-141632577D01*
X102738096Y-142020961D01*
X102860085Y-142243000D01*
X104003000Y-142243000D01*
X104003000Y-142223000D01*
X104257000Y-142223000D01*
X104257000Y-142243000D01*
X105399915Y-142243000D01*
X105521904Y-142020961D01*
X105361041Y-141632577D01*
X104985134Y-141217611D01*
X104768297Y-141114986D01*
X105172811Y-140844698D01*
X105483880Y-140379151D01*
X105593113Y-139830000D01*
X105517238Y-139448550D01*
X110304541Y-134661248D01*
X110286887Y-134750000D01*
X110396120Y-135299151D01*
X110707189Y-135764698D01*
X111089275Y-136020000D01*
X110707189Y-136275302D01*
X110396120Y-136740849D01*
X110286887Y-137290000D01*
X110362762Y-137671450D01*
X107997106Y-140037106D01*
X107842937Y-140267835D01*
X107842937Y-140267836D01*
X107788800Y-140540000D01*
X107788800Y-145328206D01*
X107671460Y-145445341D01*
X107522270Y-145804630D01*
X107521931Y-146193663D01*
X107670493Y-146553212D01*
X107945341Y-146828540D01*
X108304630Y-146977730D01*
X108693663Y-146978069D01*
X109053212Y-146829507D01*
X109328540Y-146554659D01*
X109477730Y-146195370D01*
X109478069Y-145806337D01*
X109329507Y-145446788D01*
X109211200Y-145328274D01*
X109211200Y-140834588D01*
X110304541Y-139741247D01*
X110286887Y-139830000D01*
X110396120Y-140379151D01*
X110707189Y-140844698D01*
X111089275Y-141100000D01*
X110707189Y-141355302D01*
X110396120Y-141820849D01*
X110286887Y-142370000D01*
X110396120Y-142919151D01*
X110707189Y-143384698D01*
X111172736Y-143695767D01*
X111721887Y-143805000D01*
X111778113Y-143805000D01*
X112327264Y-143695767D01*
X112792811Y-143384698D01*
X113097273Y-142929039D01*
X122108096Y-142929039D01*
X122268959Y-143317423D01*
X122644866Y-143732389D01*
X123150959Y-143971914D01*
X123373000Y-143850629D01*
X123373000Y-142707000D01*
X123627000Y-142707000D01*
X123627000Y-143850629D01*
X123849041Y-143971914D01*
X124355134Y-143732389D01*
X124731041Y-143317423D01*
X124891904Y-142929039D01*
X124769915Y-142707000D01*
X123627000Y-142707000D01*
X123373000Y-142707000D01*
X122230085Y-142707000D01*
X122108096Y-142929039D01*
X113097273Y-142929039D01*
X113103880Y-142919151D01*
X113213113Y-142370000D01*
X113103880Y-141820849D01*
X112792811Y-141355302D01*
X112410725Y-141100000D01*
X112792811Y-140844698D01*
X113103880Y-140379151D01*
X113213113Y-139830000D01*
X113103880Y-139280849D01*
X112792811Y-138815302D01*
X112410725Y-138560000D01*
X112792811Y-138304698D01*
X113103880Y-137839151D01*
X113213113Y-137290000D01*
X113103880Y-136740849D01*
X112792811Y-136275302D01*
X112410725Y-136020000D01*
X112792811Y-135764698D01*
X113103880Y-135299151D01*
X113213113Y-134750000D01*
X113103880Y-134200849D01*
X112792811Y-133735302D01*
X112410725Y-133480000D01*
X112792811Y-133224698D01*
X113103880Y-132759151D01*
X113213113Y-132210000D01*
X113103880Y-131660849D01*
X112792811Y-131195302D01*
X112410725Y-130940000D01*
X112792811Y-130684698D01*
X113103880Y-130219151D01*
X113171341Y-129880000D01*
X122036887Y-129880000D01*
X122146120Y-130429151D01*
X122457189Y-130894698D01*
X122839275Y-131150000D01*
X122457189Y-131405302D01*
X122146120Y-131870849D01*
X122036887Y-132420000D01*
X122146120Y-132969151D01*
X122457189Y-133434698D01*
X122839275Y-133690000D01*
X122457189Y-133945302D01*
X122146120Y-134410849D01*
X122036887Y-134960000D01*
X122146120Y-135509151D01*
X122457189Y-135974698D01*
X122839275Y-136230000D01*
X122457189Y-136485302D01*
X122146120Y-136950849D01*
X122036887Y-137500000D01*
X122146120Y-138049151D01*
X122457189Y-138514698D01*
X122839275Y-138770000D01*
X122457189Y-139025302D01*
X122146120Y-139490849D01*
X122036887Y-140040000D01*
X122146120Y-140589151D01*
X122457189Y-141054698D01*
X122861703Y-141324986D01*
X122644866Y-141427611D01*
X122268959Y-141842577D01*
X122108096Y-142230961D01*
X122230085Y-142453000D01*
X123373000Y-142453000D01*
X123373000Y-142433000D01*
X123627000Y-142433000D01*
X123627000Y-142453000D01*
X124769915Y-142453000D01*
X124891904Y-142230961D01*
X124731041Y-141842577D01*
X124355134Y-141427611D01*
X124138297Y-141324986D01*
X124542811Y-141054698D01*
X124853880Y-140589151D01*
X124963113Y-140040000D01*
X124853880Y-139490849D01*
X124542811Y-139025302D01*
X124160725Y-138770000D01*
X124542811Y-138514698D01*
X124853880Y-138049151D01*
X124963113Y-137500000D01*
X124853880Y-136950849D01*
X124542811Y-136485302D01*
X124160725Y-136230000D01*
X124542811Y-135974698D01*
X124853880Y-135509151D01*
X124963113Y-134960000D01*
X124853880Y-134410849D01*
X124542811Y-133945302D01*
X124160725Y-133690000D01*
X124542811Y-133434698D01*
X124853880Y-132969151D01*
X124963113Y-132420000D01*
X124853880Y-131870849D01*
X124542811Y-131405302D01*
X124160725Y-131150000D01*
X124542811Y-130894698D01*
X124853880Y-130429151D01*
X124963113Y-129880000D01*
X124853880Y-129330849D01*
X124542811Y-128865302D01*
X124398535Y-128768899D01*
X124535317Y-128743162D01*
X124751441Y-128604090D01*
X124896431Y-128391890D01*
X124947440Y-128140000D01*
X124947440Y-127340000D01*
X129656887Y-127340000D01*
X129766120Y-127889151D01*
X130077189Y-128354698D01*
X130459275Y-128610000D01*
X130077189Y-128865302D01*
X129766120Y-129330849D01*
X129656887Y-129880000D01*
X129766120Y-130429151D01*
X130077189Y-130894698D01*
X130459275Y-131150000D01*
X130077189Y-131405302D01*
X129766120Y-131870849D01*
X129656887Y-132420000D01*
X129766120Y-132969151D01*
X130077189Y-133434698D01*
X130459275Y-133690000D01*
X130077189Y-133945302D01*
X129766120Y-134410849D01*
X129656887Y-134960000D01*
X129766120Y-135509151D01*
X130077189Y-135974698D01*
X130459275Y-136230000D01*
X130077189Y-136485302D01*
X129766120Y-136950849D01*
X129656887Y-137500000D01*
X129766120Y-138049151D01*
X130077189Y-138514698D01*
X130459275Y-138770000D01*
X130077189Y-139025302D01*
X129766120Y-139490849D01*
X129656887Y-140040000D01*
X129766120Y-140589151D01*
X130077189Y-141054698D01*
X130459275Y-141310000D01*
X130077189Y-141565302D01*
X129766120Y-142030849D01*
X129656887Y-142580000D01*
X129766120Y-143129151D01*
X130077189Y-143594698D01*
X130542736Y-143905767D01*
X131091887Y-144015000D01*
X131148113Y-144015000D01*
X131697264Y-143905767D01*
X132162811Y-143594698D01*
X132473880Y-143129151D01*
X132583113Y-142580000D01*
X132473880Y-142030849D01*
X132162811Y-141565302D01*
X131780725Y-141310000D01*
X132162811Y-141054698D01*
X132473880Y-140589151D01*
X132583113Y-140040000D01*
X132473880Y-139490849D01*
X132162811Y-139025302D01*
X131780725Y-138770000D01*
X132162811Y-138514698D01*
X132473880Y-138049151D01*
X132583113Y-137500000D01*
X132473880Y-136950849D01*
X132162811Y-136485302D01*
X131780725Y-136230000D01*
X132162811Y-135974698D01*
X132473880Y-135509151D01*
X132583113Y-134960000D01*
X132473880Y-134410849D01*
X132162811Y-133945302D01*
X131780725Y-133690000D01*
X132162811Y-133434698D01*
X132473880Y-132969151D01*
X132583113Y-132420000D01*
X132473880Y-131870849D01*
X132162811Y-131405302D01*
X131780725Y-131150000D01*
X132162811Y-130894698D01*
X132473880Y-130429151D01*
X132583113Y-129880000D01*
X132473880Y-129330849D01*
X132162811Y-128865302D01*
X131780725Y-128610000D01*
X132162811Y-128354698D01*
X132473880Y-127889151D01*
X132583113Y-127340000D01*
X132473880Y-126790849D01*
X132162811Y-126325302D01*
X131697264Y-126014233D01*
X131148113Y-125905000D01*
X131091887Y-125905000D01*
X130542736Y-126014233D01*
X130077189Y-126325302D01*
X129766120Y-126790849D01*
X129656887Y-127340000D01*
X124947440Y-127340000D01*
X124947440Y-126540000D01*
X124903162Y-126304683D01*
X124764090Y-126088559D01*
X124551890Y-125943569D01*
X124300000Y-125892560D01*
X124211200Y-125892560D01*
X124211200Y-124171794D01*
X124328540Y-124054659D01*
X124477730Y-123695370D01*
X124478069Y-123306337D01*
X124329507Y-122946788D01*
X124054659Y-122671460D01*
X123695370Y-122522270D01*
X123306337Y-122521931D01*
X122946788Y-122670493D01*
X122671460Y-122945341D01*
X122522270Y-123304630D01*
X122521931Y-123693663D01*
X122670493Y-124053212D01*
X122788800Y-124171726D01*
X122788800Y-125892560D01*
X122700000Y-125892560D01*
X122464683Y-125936838D01*
X122248559Y-126075910D01*
X122103569Y-126288110D01*
X122052560Y-126540000D01*
X122052560Y-128140000D01*
X122096838Y-128375317D01*
X122235910Y-128591441D01*
X122448110Y-128736431D01*
X122603089Y-128767815D01*
X122457189Y-128865302D01*
X122146120Y-129330849D01*
X122036887Y-129880000D01*
X113171341Y-129880000D01*
X113213113Y-129670000D01*
X113103880Y-129120849D01*
X112792811Y-128655302D01*
X112410725Y-128400000D01*
X112792811Y-128144698D01*
X113103880Y-127679151D01*
X113213113Y-127130000D01*
X113103880Y-126580849D01*
X112856888Y-126211200D01*
X114078206Y-126211200D01*
X114195341Y-126328540D01*
X114554630Y-126477730D01*
X114943663Y-126478069D01*
X115303212Y-126329507D01*
X115578540Y-126054659D01*
X115727730Y-125695370D01*
X115728069Y-125306337D01*
X115579507Y-124946788D01*
X115304659Y-124671460D01*
X114945370Y-124522270D01*
X114556337Y-124521931D01*
X114196788Y-124670493D01*
X114078274Y-124788800D01*
X112137563Y-124788800D01*
X112715163Y-124211200D01*
X114828206Y-124211200D01*
X114945341Y-124328540D01*
X115304630Y-124477730D01*
X115693663Y-124478069D01*
X116053212Y-124329507D01*
X116328540Y-124054659D01*
X116477730Y-123695370D01*
X116478069Y-123306337D01*
X116329507Y-122946788D01*
X116054659Y-122671460D01*
X115695370Y-122522270D01*
X115306337Y-122521931D01*
X114946788Y-122670493D01*
X114828274Y-122788800D01*
X112420575Y-122788800D01*
X112193565Y-122833955D01*
X112148410Y-122842937D01*
X111917681Y-122997106D01*
X108747106Y-126167681D01*
X108592937Y-126398410D01*
X108592937Y-126398411D01*
X108538800Y-126670575D01*
X108538800Y-131578206D01*
X108421460Y-131695341D01*
X108272270Y-132054630D01*
X108271931Y-132443663D01*
X108420493Y-132803212D01*
X108695341Y-133078540D01*
X109054630Y-133227730D01*
X109443663Y-133228069D01*
X109662599Y-133137607D01*
X109662599Y-133291612D01*
X105575459Y-137378753D01*
X105593113Y-137290000D01*
X105483880Y-136740849D01*
X105172811Y-136275302D01*
X104790725Y-136020000D01*
X105172811Y-135764698D01*
X105483880Y-135299151D01*
X105593113Y-134750000D01*
X105517238Y-134368550D01*
X106009095Y-133876693D01*
X106163264Y-133645964D01*
X106205287Y-133434698D01*
X106217401Y-133373799D01*
X106217401Y-123915604D01*
X106328540Y-123804659D01*
X106477730Y-123445370D01*
X106478069Y-123056337D01*
X106329507Y-122696788D01*
X106054659Y-122421460D01*
X105695370Y-122272270D01*
X105306337Y-122271931D01*
X104946788Y-122420493D01*
X104671460Y-122695341D01*
X104522270Y-123054630D01*
X104521931Y-123443663D01*
X104670493Y-123803212D01*
X104795001Y-123927937D01*
X104795001Y-125682560D01*
X104638142Y-125682560D01*
X104632894Y-125674706D01*
X103792099Y-124833911D01*
X103792099Y-121972527D01*
X103804630Y-121977730D01*
X104193663Y-121978069D01*
X104553212Y-121829507D01*
X104828540Y-121554659D01*
X104977730Y-121195370D01*
X104978069Y-120806337D01*
X104829507Y-120446788D01*
X104554659Y-120171460D01*
X104195370Y-120022270D01*
X104027912Y-120022124D01*
X103513533Y-119507745D01*
X108171861Y-119507745D01*
X108245995Y-119753864D01*
X108783223Y-119946965D01*
X109353454Y-119919778D01*
X109754005Y-119753864D01*
X109828139Y-119507745D01*
X109000000Y-118679605D01*
X108171861Y-119507745D01*
X103513533Y-119507745D01*
X102753678Y-118747890D01*
X103042811Y-118554698D01*
X103224205Y-118283223D01*
X107553035Y-118283223D01*
X107580222Y-118853454D01*
X107746136Y-119254005D01*
X107992255Y-119328139D01*
X108820395Y-118500000D01*
X109179605Y-118500000D01*
X110007745Y-119328139D01*
X110253864Y-119254005D01*
X110422735Y-118784187D01*
X112564752Y-118784187D01*
X112782757Y-119311800D01*
X113186077Y-119715824D01*
X113713309Y-119934750D01*
X114284187Y-119935248D01*
X114811800Y-119717243D01*
X115215824Y-119313923D01*
X115434750Y-118786691D01*
X115435248Y-118215813D01*
X115217243Y-117688200D01*
X114833704Y-117303991D01*
X128964735Y-117303991D01*
X129197932Y-117868371D01*
X129629357Y-118300551D01*
X130193330Y-118534733D01*
X130803991Y-118535265D01*
X131368371Y-118302068D01*
X131800551Y-117870643D01*
X132034733Y-117306670D01*
X132035265Y-116696009D01*
X131802068Y-116131629D01*
X131370643Y-115699449D01*
X131349806Y-115690797D01*
X131400554Y-115540159D01*
X130500000Y-114639605D01*
X129599446Y-115540159D01*
X129650035Y-115690327D01*
X129631629Y-115697932D01*
X129199449Y-116129357D01*
X128965267Y-116693330D01*
X128964735Y-117303991D01*
X114833704Y-117303991D01*
X114813923Y-117284176D01*
X114286691Y-117065250D01*
X113715813Y-117064752D01*
X113188200Y-117282757D01*
X112784176Y-117686077D01*
X112565250Y-118213309D01*
X112564752Y-118784187D01*
X110422735Y-118784187D01*
X110446965Y-118716777D01*
X110419778Y-118146546D01*
X110253864Y-117745995D01*
X110007745Y-117671861D01*
X109179605Y-118500000D01*
X108820395Y-118500000D01*
X107992255Y-117671861D01*
X107746136Y-117745995D01*
X107553035Y-118283223D01*
X103224205Y-118283223D01*
X103353880Y-118089151D01*
X103463113Y-117540000D01*
X103453616Y-117492255D01*
X108171861Y-117492255D01*
X109000000Y-118320395D01*
X109828139Y-117492255D01*
X109754005Y-117246136D01*
X109216777Y-117053035D01*
X108646546Y-117080222D01*
X108245995Y-117246136D01*
X108171861Y-117492255D01*
X103453616Y-117492255D01*
X103353880Y-116990849D01*
X103042811Y-116525302D01*
X102638297Y-116255014D01*
X102855134Y-116152389D01*
X103231041Y-115737423D01*
X103391904Y-115349039D01*
X103269915Y-115127000D01*
X102127000Y-115127000D01*
X102127000Y-115147000D01*
X101873000Y-115147000D01*
X101873000Y-115127000D01*
X100730085Y-115127000D01*
X100608096Y-115349039D01*
X100768959Y-115737423D01*
X101144866Y-116152389D01*
X101361703Y-116255014D01*
X100957189Y-116525302D01*
X100646120Y-116990849D01*
X100551198Y-117468056D01*
X99613610Y-116530468D01*
X99613610Y-109920000D01*
X100536887Y-109920000D01*
X100646120Y-110469151D01*
X100957189Y-110934698D01*
X101339275Y-111190000D01*
X100957189Y-111445302D01*
X100646120Y-111910849D01*
X100536887Y-112460000D01*
X100646120Y-113009151D01*
X100957189Y-113474698D01*
X101361703Y-113744986D01*
X101144866Y-113847611D01*
X100768959Y-114262577D01*
X100608096Y-114650961D01*
X100730085Y-114873000D01*
X101873000Y-114873000D01*
X101873000Y-114853000D01*
X102127000Y-114853000D01*
X102127000Y-114873000D01*
X103269915Y-114873000D01*
X103391904Y-114650961D01*
X103231041Y-114262577D01*
X103024149Y-114034187D01*
X109314752Y-114034187D01*
X109532757Y-114561800D01*
X109936077Y-114965824D01*
X110463309Y-115184750D01*
X111034187Y-115185248D01*
X111561800Y-114967243D01*
X111965824Y-114563923D01*
X112158860Y-114099039D01*
X119518096Y-114099039D01*
X119678959Y-114487423D01*
X120054866Y-114902389D01*
X120560959Y-115141914D01*
X120783000Y-115020629D01*
X120783000Y-113877000D01*
X121037000Y-113877000D01*
X121037000Y-115020629D01*
X121259041Y-115141914D01*
X121765134Y-114902389D01*
X122141041Y-114487423D01*
X122301904Y-114099039D01*
X122179915Y-113877000D01*
X121037000Y-113877000D01*
X120783000Y-113877000D01*
X119640085Y-113877000D01*
X119518096Y-114099039D01*
X112158860Y-114099039D01*
X112184750Y-114036691D01*
X112185248Y-113465813D01*
X112158452Y-113400961D01*
X119518096Y-113400961D01*
X119640085Y-113623000D01*
X120783000Y-113623000D01*
X120783000Y-112479371D01*
X121037000Y-112479371D01*
X121037000Y-113623000D01*
X122179915Y-113623000D01*
X122301904Y-113400961D01*
X122141041Y-113012577D01*
X121765134Y-112597611D01*
X121259041Y-112358086D01*
X121037000Y-112479371D01*
X120783000Y-112479371D01*
X120560959Y-112358086D01*
X120054866Y-112597611D01*
X119678959Y-113012577D01*
X119518096Y-113400961D01*
X112158452Y-113400961D01*
X111967243Y-112938200D01*
X111563923Y-112534176D01*
X111036691Y-112315250D01*
X110465813Y-112314752D01*
X109938200Y-112532757D01*
X109534176Y-112936077D01*
X109315250Y-113463309D01*
X109314752Y-114034187D01*
X103024149Y-114034187D01*
X102855134Y-113847611D01*
X102638297Y-113744986D01*
X103042811Y-113474698D01*
X103353880Y-113009151D01*
X103463113Y-112460000D01*
X103353880Y-111910849D01*
X103042811Y-111445302D01*
X102660725Y-111190000D01*
X103042811Y-110934698D01*
X103353880Y-110469151D01*
X103447199Y-110000000D01*
X109286887Y-110000000D01*
X109396120Y-110549151D01*
X109707189Y-111014698D01*
X110172736Y-111325767D01*
X110721887Y-111435000D01*
X110778113Y-111435000D01*
X111327264Y-111325767D01*
X111792811Y-111014698D01*
X111797456Y-111007745D01*
X120081861Y-111007745D01*
X120155995Y-111253864D01*
X120693223Y-111446965D01*
X121263454Y-111419778D01*
X121664005Y-111253864D01*
X121734447Y-111020000D01*
X128952560Y-111020000D01*
X128952560Y-112820000D01*
X128996838Y-113055317D01*
X129135910Y-113271441D01*
X129339574Y-113410598D01*
X129305282Y-113444890D01*
X129419839Y-113559447D01*
X129163357Y-113645852D01*
X128953542Y-114219336D01*
X128979161Y-114829460D01*
X129163357Y-115274148D01*
X129419841Y-115360554D01*
X130320395Y-114460000D01*
X130306253Y-114445858D01*
X130485858Y-114266253D01*
X130500000Y-114280395D01*
X130514143Y-114266253D01*
X130693748Y-114445858D01*
X130679605Y-114460000D01*
X131580159Y-115360554D01*
X131836643Y-115274148D01*
X132046458Y-114700664D01*
X132020839Y-114090540D01*
X131836643Y-113645852D01*
X131580161Y-113559447D01*
X131694718Y-113444890D01*
X131658240Y-113408412D01*
X131851441Y-113284090D01*
X131996431Y-113071890D01*
X132047440Y-112820000D01*
X132047440Y-111020000D01*
X132003162Y-110784683D01*
X131864090Y-110568559D01*
X131651890Y-110423569D01*
X131400000Y-110372560D01*
X129600000Y-110372560D01*
X129364683Y-110416838D01*
X129148559Y-110555910D01*
X129003569Y-110768110D01*
X128952560Y-111020000D01*
X121734447Y-111020000D01*
X121738139Y-111007745D01*
X120910000Y-110179605D01*
X120081861Y-111007745D01*
X111797456Y-111007745D01*
X112103880Y-110549151D01*
X112213113Y-110000000D01*
X112169994Y-109783223D01*
X119463035Y-109783223D01*
X119490222Y-110353454D01*
X119656136Y-110754005D01*
X119902255Y-110828139D01*
X120730395Y-110000000D01*
X121089605Y-110000000D01*
X121917745Y-110828139D01*
X122163864Y-110754005D01*
X122356965Y-110216777D01*
X122329778Y-109646546D01*
X122163864Y-109245995D01*
X121917745Y-109171861D01*
X121089605Y-110000000D01*
X120730395Y-110000000D01*
X119902255Y-109171861D01*
X119656136Y-109245995D01*
X119463035Y-109783223D01*
X112169994Y-109783223D01*
X112103880Y-109450849D01*
X111797457Y-108992255D01*
X120081861Y-108992255D01*
X120910000Y-109820395D01*
X121738139Y-108992255D01*
X121664005Y-108746136D01*
X121126777Y-108553035D01*
X120556546Y-108580222D01*
X120155995Y-108746136D01*
X120081861Y-108992255D01*
X111797457Y-108992255D01*
X111792811Y-108985302D01*
X111327264Y-108674233D01*
X110778113Y-108565000D01*
X110721887Y-108565000D01*
X110172736Y-108674233D01*
X109707189Y-108985302D01*
X109396120Y-109450849D01*
X109286887Y-110000000D01*
X103447199Y-110000000D01*
X103463113Y-109920000D01*
X103353880Y-109370849D01*
X103042811Y-108905302D01*
X102577264Y-108594233D01*
X102028113Y-108485000D01*
X101971887Y-108485000D01*
X101422736Y-108594233D01*
X100957189Y-108905302D01*
X100646120Y-109370849D01*
X100536887Y-109920000D01*
X99613610Y-109920000D01*
X99613610Y-94000000D01*
X100536887Y-94000000D01*
X100646120Y-94549151D01*
X100957189Y-95014698D01*
X101339275Y-95270000D01*
X100957189Y-95525302D01*
X100646120Y-95990849D01*
X100536887Y-96540000D01*
X100646120Y-97089151D01*
X100957189Y-97554698D01*
X101339275Y-97810000D01*
X100957189Y-98065302D01*
X100646120Y-98530849D01*
X100536887Y-99080000D01*
X100646120Y-99629151D01*
X100957189Y-100094698D01*
X101339275Y-100350000D01*
X100957189Y-100605302D01*
X100646120Y-101070849D01*
X100536887Y-101620000D01*
X100646120Y-102169151D01*
X100957189Y-102634698D01*
X101422736Y-102945767D01*
X101971887Y-103055000D01*
X102028113Y-103055000D01*
X102577264Y-102945767D01*
X103042811Y-102634698D01*
X103277015Y-102284187D01*
X106564752Y-102284187D01*
X106782757Y-102811800D01*
X107186077Y-103215824D01*
X107713309Y-103434750D01*
X108284187Y-103435248D01*
X108811800Y-103217243D01*
X109021663Y-103007745D01*
X112171861Y-103007745D01*
X112245995Y-103253864D01*
X112783223Y-103446965D01*
X113353454Y-103419778D01*
X113754005Y-103253864D01*
X113828139Y-103007745D01*
X113000000Y-102179605D01*
X112171861Y-103007745D01*
X109021663Y-103007745D01*
X109215824Y-102813923D01*
X109434750Y-102286691D01*
X109435189Y-101783223D01*
X111553035Y-101783223D01*
X111580222Y-102353454D01*
X111746136Y-102754005D01*
X111992255Y-102828139D01*
X112820395Y-102000000D01*
X113179605Y-102000000D01*
X114007745Y-102828139D01*
X114253864Y-102754005D01*
X114422735Y-102284187D01*
X116564752Y-102284187D01*
X116782757Y-102811800D01*
X117186077Y-103215824D01*
X117713309Y-103434750D01*
X118284187Y-103435248D01*
X118811800Y-103217243D01*
X119021663Y-103007745D01*
X122171861Y-103007745D01*
X122245995Y-103253864D01*
X122783223Y-103446965D01*
X123353454Y-103419778D01*
X123754005Y-103253864D01*
X123828139Y-103007745D01*
X123000000Y-102179605D01*
X122171861Y-103007745D01*
X119021663Y-103007745D01*
X119215824Y-102813923D01*
X119434750Y-102286691D01*
X119435189Y-101783223D01*
X121553035Y-101783223D01*
X121580222Y-102353454D01*
X121746136Y-102754005D01*
X121992255Y-102828139D01*
X122820395Y-102000000D01*
X123179605Y-102000000D01*
X124007745Y-102828139D01*
X124253864Y-102754005D01*
X124446965Y-102216777D01*
X124419778Y-101646546D01*
X124253864Y-101245995D01*
X124007745Y-101171861D01*
X123179605Y-102000000D01*
X122820395Y-102000000D01*
X121992255Y-101171861D01*
X121746136Y-101245995D01*
X121553035Y-101783223D01*
X119435189Y-101783223D01*
X119435248Y-101715813D01*
X119217243Y-101188200D01*
X119021640Y-100992255D01*
X122171861Y-100992255D01*
X123000000Y-101820395D01*
X123828139Y-100992255D01*
X123754005Y-100746136D01*
X123216777Y-100553035D01*
X122646546Y-100580222D01*
X122245995Y-100746136D01*
X122171861Y-100992255D01*
X119021640Y-100992255D01*
X118813923Y-100784176D01*
X118286691Y-100565250D01*
X117715813Y-100564752D01*
X117188200Y-100782757D01*
X116784176Y-101186077D01*
X116565250Y-101713309D01*
X116564752Y-102284187D01*
X114422735Y-102284187D01*
X114446965Y-102216777D01*
X114419778Y-101646546D01*
X114253864Y-101245995D01*
X114007745Y-101171861D01*
X113179605Y-102000000D01*
X112820395Y-102000000D01*
X111992255Y-101171861D01*
X111746136Y-101245995D01*
X111553035Y-101783223D01*
X109435189Y-101783223D01*
X109435248Y-101715813D01*
X109217243Y-101188200D01*
X109021640Y-100992255D01*
X112171861Y-100992255D01*
X113000000Y-101820395D01*
X113828139Y-100992255D01*
X113754005Y-100746136D01*
X113216777Y-100553035D01*
X112646546Y-100580222D01*
X112245995Y-100746136D01*
X112171861Y-100992255D01*
X109021640Y-100992255D01*
X108813923Y-100784176D01*
X108286691Y-100565250D01*
X107715813Y-100564752D01*
X107188200Y-100782757D01*
X106784176Y-101186077D01*
X106565250Y-101713309D01*
X106564752Y-102284187D01*
X103277015Y-102284187D01*
X103353880Y-102169151D01*
X103463113Y-101620000D01*
X103353880Y-101070849D01*
X103042811Y-100605302D01*
X102660725Y-100350000D01*
X103042811Y-100094698D01*
X103353880Y-99629151D01*
X103463113Y-99080000D01*
X103353880Y-98530849D01*
X103042811Y-98065302D01*
X102945080Y-98000000D01*
X109036887Y-98000000D01*
X109146120Y-98549151D01*
X109457189Y-99014698D01*
X109922736Y-99325767D01*
X110471887Y-99435000D01*
X110528113Y-99435000D01*
X111077264Y-99325767D01*
X111542811Y-99014698D01*
X111853880Y-98549151D01*
X111906584Y-98284187D01*
X119224752Y-98284187D01*
X119442757Y-98811800D01*
X119846077Y-99215824D01*
X120373309Y-99434750D01*
X120944187Y-99435248D01*
X121471800Y-99217243D01*
X121536623Y-99152532D01*
X125527073Y-99152532D01*
X125625736Y-99419387D01*
X126235461Y-99645908D01*
X126885460Y-99621856D01*
X127374264Y-99419387D01*
X127472927Y-99152532D01*
X126500000Y-98179605D01*
X125527073Y-99152532D01*
X121536623Y-99152532D01*
X121875824Y-98813923D01*
X122094750Y-98286691D01*
X122095230Y-97735461D01*
X124854092Y-97735461D01*
X124878144Y-98385460D01*
X125080613Y-98874264D01*
X125347468Y-98972927D01*
X126320395Y-98000000D01*
X126679605Y-98000000D01*
X127652532Y-98972927D01*
X127919387Y-98874264D01*
X128145908Y-98264539D01*
X128126331Y-97735461D01*
X131354092Y-97735461D01*
X131378144Y-98385460D01*
X131580613Y-98874264D01*
X131847468Y-98972927D01*
X132820395Y-98000000D01*
X131847468Y-97027073D01*
X131580613Y-97125736D01*
X131354092Y-97735461D01*
X128126331Y-97735461D01*
X128121856Y-97614540D01*
X127919387Y-97125736D01*
X127652532Y-97027073D01*
X126679605Y-98000000D01*
X126320395Y-98000000D01*
X125347468Y-97027073D01*
X125080613Y-97125736D01*
X124854092Y-97735461D01*
X122095230Y-97735461D01*
X122095248Y-97715813D01*
X121877243Y-97188200D01*
X121537105Y-96847468D01*
X125527073Y-96847468D01*
X126500000Y-97820395D01*
X127472927Y-96847468D01*
X127374264Y-96580613D01*
X126764539Y-96354092D01*
X126114540Y-96378144D01*
X125625736Y-96580613D01*
X125527073Y-96847468D01*
X121537105Y-96847468D01*
X121473923Y-96784176D01*
X120946691Y-96565250D01*
X120375813Y-96564752D01*
X119848200Y-96782757D01*
X119444176Y-97186077D01*
X119225250Y-97713309D01*
X119224752Y-98284187D01*
X111906584Y-98284187D01*
X111963113Y-98000000D01*
X111853880Y-97450849D01*
X111542811Y-96985302D01*
X111077264Y-96674233D01*
X110528113Y-96565000D01*
X110471887Y-96565000D01*
X109922736Y-96674233D01*
X109457189Y-96985302D01*
X109146120Y-97450849D01*
X109036887Y-98000000D01*
X102945080Y-98000000D01*
X102660725Y-97810000D01*
X103042811Y-97554698D01*
X103353880Y-97089151D01*
X103463113Y-96540000D01*
X103353880Y-95990849D01*
X103042811Y-95525302D01*
X102660725Y-95270000D01*
X103042811Y-95014698D01*
X103353880Y-94549151D01*
X103406584Y-94284187D01*
X109064752Y-94284187D01*
X109282757Y-94811800D01*
X109686077Y-95215824D01*
X110213309Y-95434750D01*
X110784187Y-95435248D01*
X111311800Y-95217243D01*
X111715824Y-94813923D01*
X111934750Y-94286691D01*
X111935000Y-94000000D01*
X119196887Y-94000000D01*
X119306120Y-94549151D01*
X119617189Y-95014698D01*
X120082736Y-95325767D01*
X120631887Y-95435000D01*
X120688113Y-95435000D01*
X121237264Y-95325767D01*
X121702811Y-95014698D01*
X122013880Y-94549151D01*
X122123113Y-94000000D01*
X122088064Y-93823795D01*
X124864716Y-93823795D01*
X125113106Y-94424943D01*
X125572637Y-94885278D01*
X126173352Y-95134716D01*
X126823795Y-95135284D01*
X127424943Y-94886894D01*
X127885278Y-94427363D01*
X128134716Y-93826648D01*
X128135284Y-93176205D01*
X127886894Y-92575057D01*
X127427363Y-92114722D01*
X126826648Y-91865284D01*
X126176205Y-91864716D01*
X125575057Y-92113106D01*
X125114722Y-92572637D01*
X124865284Y-93173352D01*
X124864716Y-93823795D01*
X122088064Y-93823795D01*
X122013880Y-93450849D01*
X121702811Y-92985302D01*
X121237264Y-92674233D01*
X120688113Y-92565000D01*
X120631887Y-92565000D01*
X120082736Y-92674233D01*
X119617189Y-92985302D01*
X119306120Y-93450849D01*
X119196887Y-94000000D01*
X111935000Y-94000000D01*
X111935248Y-93715813D01*
X111717243Y-93188200D01*
X111313923Y-92784176D01*
X110786691Y-92565250D01*
X110215813Y-92564752D01*
X109688200Y-92782757D01*
X109284176Y-93186077D01*
X109065250Y-93713309D01*
X109064752Y-94284187D01*
X103406584Y-94284187D01*
X103463113Y-94000000D01*
X103353880Y-93450849D01*
X103042811Y-92985302D01*
X102577264Y-92674233D01*
X102028113Y-92565000D01*
X101971887Y-92565000D01*
X101422736Y-92674233D01*
X100957189Y-92985302D01*
X100646120Y-93450849D01*
X100536887Y-94000000D01*
X99613610Y-94000000D01*
X99613610Y-87193663D01*
X104021931Y-87193663D01*
X104170493Y-87553212D01*
X104445341Y-87828540D01*
X104804630Y-87977730D01*
X105193663Y-87978069D01*
X105553212Y-87829507D01*
X105828540Y-87554659D01*
X105977730Y-87195370D01*
X105978069Y-86806337D01*
X105854694Y-86507745D01*
X107171861Y-86507745D01*
X107245995Y-86753864D01*
X107783223Y-86946965D01*
X108353454Y-86919778D01*
X108754005Y-86753864D01*
X108828139Y-86507745D01*
X108000000Y-85679605D01*
X107171861Y-86507745D01*
X105854694Y-86507745D01*
X105829507Y-86446788D01*
X105711200Y-86328274D01*
X105711200Y-85283223D01*
X106553035Y-85283223D01*
X106580222Y-85853454D01*
X106746136Y-86254005D01*
X106992255Y-86328139D01*
X107820395Y-85500000D01*
X108179605Y-85500000D01*
X109007745Y-86328139D01*
X109253864Y-86254005D01*
X109422735Y-85784187D01*
X111564752Y-85784187D01*
X111782757Y-86311800D01*
X112186077Y-86715824D01*
X112713309Y-86934750D01*
X113284187Y-86935248D01*
X113811800Y-86717243D01*
X114215824Y-86313923D01*
X114434750Y-85786691D01*
X114435248Y-85215813D01*
X114217243Y-84688200D01*
X113813923Y-84284176D01*
X113286691Y-84065250D01*
X112715813Y-84064752D01*
X112188200Y-84282757D01*
X111784176Y-84686077D01*
X111565250Y-85213309D01*
X111564752Y-85784187D01*
X109422735Y-85784187D01*
X109446965Y-85716777D01*
X109419778Y-85146546D01*
X109253864Y-84745995D01*
X109007745Y-84671861D01*
X108179605Y-85500000D01*
X107820395Y-85500000D01*
X106992255Y-84671861D01*
X106746136Y-84745995D01*
X106553035Y-85283223D01*
X105711200Y-85283223D01*
X105711200Y-84492255D01*
X107171861Y-84492255D01*
X108000000Y-85320395D01*
X108828139Y-84492255D01*
X108754005Y-84246136D01*
X108216777Y-84053035D01*
X107646546Y-84080222D01*
X107245995Y-84246136D01*
X107171861Y-84492255D01*
X105711200Y-84492255D01*
X105711200Y-82294588D01*
X107002894Y-81002895D01*
X107004828Y-81000000D01*
X108376887Y-81000000D01*
X108486120Y-81549151D01*
X108797189Y-82014698D01*
X109262736Y-82325767D01*
X109811887Y-82435000D01*
X109868113Y-82435000D01*
X110417264Y-82325767D01*
X110882811Y-82014698D01*
X111193880Y-81549151D01*
X111303113Y-81000000D01*
X111193880Y-80450849D01*
X110882811Y-79985302D01*
X110417264Y-79674233D01*
X109868113Y-79565000D01*
X109811887Y-79565000D01*
X109262736Y-79674233D01*
X108797189Y-79985302D01*
X108486120Y-80450849D01*
X108376887Y-81000000D01*
X107004828Y-81000000D01*
X107157062Y-80772165D01*
X107157063Y-80772164D01*
X107211200Y-80500000D01*
X107211200Y-77784187D01*
X108404752Y-77784187D01*
X108622757Y-78311800D01*
X109026077Y-78715824D01*
X109553309Y-78934750D01*
X110124187Y-78935248D01*
X110651800Y-78717243D01*
X111055824Y-78313923D01*
X111274750Y-77786691D01*
X111275000Y-77500000D01*
X118536887Y-77500000D01*
X118646120Y-78049151D01*
X118957189Y-78514698D01*
X119288800Y-78736274D01*
X119288800Y-79741190D01*
X119188200Y-79782757D01*
X118784176Y-80186077D01*
X118565250Y-80713309D01*
X118564752Y-81284187D01*
X118782757Y-81811800D01*
X119186077Y-82215824D01*
X119713309Y-82434750D01*
X120284187Y-82435248D01*
X120811800Y-82217243D01*
X121215824Y-81813923D01*
X121434750Y-81286691D01*
X121435248Y-80715813D01*
X121217243Y-80188200D01*
X120813923Y-79784176D01*
X120711200Y-79741522D01*
X120711200Y-79700000D01*
X122052560Y-79700000D01*
X122052560Y-81300000D01*
X122096838Y-81535317D01*
X122235910Y-81751441D01*
X122448110Y-81896431D01*
X122700000Y-81947440D01*
X124300000Y-81947440D01*
X124535317Y-81903162D01*
X124751441Y-81764090D01*
X124896431Y-81551890D01*
X124905370Y-81507745D01*
X125171861Y-81507745D01*
X125245995Y-81753864D01*
X125783223Y-81946965D01*
X126353454Y-81919778D01*
X126754005Y-81753864D01*
X126828139Y-81507745D01*
X126000000Y-80679605D01*
X125171861Y-81507745D01*
X124905370Y-81507745D01*
X124944646Y-81313799D01*
X124992255Y-81328139D01*
X125820395Y-80500000D01*
X126179605Y-80500000D01*
X127007745Y-81328139D01*
X127253864Y-81254005D01*
X127446965Y-80716777D01*
X127419778Y-80146546D01*
X127253864Y-79745995D01*
X127007745Y-79671861D01*
X126179605Y-80500000D01*
X125820395Y-80500000D01*
X124992255Y-79671861D01*
X124944833Y-79686145D01*
X124908351Y-79492255D01*
X125171861Y-79492255D01*
X126000000Y-80320395D01*
X126828139Y-79492255D01*
X126754005Y-79246136D01*
X126216777Y-79053035D01*
X125646546Y-79080222D01*
X125245995Y-79246136D01*
X125171861Y-79492255D01*
X124908351Y-79492255D01*
X124903162Y-79464683D01*
X124764090Y-79248559D01*
X124551890Y-79103569D01*
X124300000Y-79052560D01*
X122700000Y-79052560D01*
X122464683Y-79096838D01*
X122248559Y-79235910D01*
X122103569Y-79448110D01*
X122052560Y-79700000D01*
X120711200Y-79700000D01*
X120711200Y-78736274D01*
X121042811Y-78514698D01*
X121353880Y-78049151D01*
X121463113Y-77500000D01*
X121353880Y-76950849D01*
X121042811Y-76485302D01*
X120577264Y-76174233D01*
X120028113Y-76065000D01*
X119971887Y-76065000D01*
X119422736Y-76174233D01*
X118957189Y-76485302D01*
X118646120Y-76950849D01*
X118536887Y-77500000D01*
X111275000Y-77500000D01*
X111275248Y-77215813D01*
X111057243Y-76688200D01*
X110653923Y-76284176D01*
X110126691Y-76065250D01*
X109555813Y-76064752D01*
X109028200Y-76282757D01*
X108624176Y-76686077D01*
X108405250Y-77213309D01*
X108404752Y-77784187D01*
X107211200Y-77784187D01*
X107211200Y-74171794D01*
X107328540Y-74054659D01*
X107477730Y-73695370D01*
X107478069Y-73306337D01*
X107329507Y-72946788D01*
X107054659Y-72671460D01*
X106695370Y-72522270D01*
X106306337Y-72521931D01*
X105946788Y-72670493D01*
X105671460Y-72945341D01*
X105522270Y-73304630D01*
X105521931Y-73693663D01*
X105670493Y-74053212D01*
X105788800Y-74171726D01*
X105788800Y-80205411D01*
X104497106Y-81497106D01*
X104342937Y-81727835D01*
X104326235Y-81811800D01*
X104288800Y-82000000D01*
X104288800Y-86328206D01*
X104171460Y-86445341D01*
X104022270Y-86804630D01*
X104021931Y-87193663D01*
X99613610Y-87193663D01*
X99613610Y-87062410D01*
X99559473Y-86790246D01*
X99559473Y-86790245D01*
X99405304Y-86559516D01*
X95767238Y-82921450D01*
X95843113Y-82540000D01*
X95733880Y-81990849D01*
X95422811Y-81525302D01*
X95040725Y-81270000D01*
X95422811Y-81014698D01*
X95733880Y-80549151D01*
X95843113Y-80000000D01*
X95733880Y-79450849D01*
X95422811Y-78985302D01*
X95287665Y-78895000D01*
X95306309Y-78895000D01*
X95539698Y-78798327D01*
X95718327Y-78619699D01*
X95815000Y-78386310D01*
X95815000Y-77745750D01*
X95656250Y-77587000D01*
X94507000Y-77587000D01*
X94507000Y-77607000D01*
X94253000Y-77607000D01*
X94253000Y-77587000D01*
X93103750Y-77587000D01*
X92945000Y-77745750D01*
X92945000Y-78386310D01*
X93041673Y-78619699D01*
X93220302Y-78798327D01*
X93453691Y-78895000D01*
X93472335Y-78895000D01*
X93337189Y-78985302D01*
X93026120Y-79450849D01*
X92916887Y-80000000D01*
X88380301Y-80000000D01*
X88380301Y-77460000D01*
X100536887Y-77460000D01*
X100646120Y-78009151D01*
X100957189Y-78474698D01*
X101339275Y-78730000D01*
X100957189Y-78985302D01*
X100646120Y-79450849D01*
X100536887Y-80000000D01*
X100646120Y-80549151D01*
X100957189Y-81014698D01*
X101339275Y-81270000D01*
X100957189Y-81525302D01*
X100646120Y-81990849D01*
X100536887Y-82540000D01*
X100646120Y-83089151D01*
X100957189Y-83554698D01*
X101339275Y-83810000D01*
X100957189Y-84065302D01*
X100646120Y-84530849D01*
X100536887Y-85080000D01*
X100646120Y-85629151D01*
X100957189Y-86094698D01*
X101422736Y-86405767D01*
X101971887Y-86515000D01*
X102028113Y-86515000D01*
X102577264Y-86405767D01*
X103042811Y-86094698D01*
X103353880Y-85629151D01*
X103463113Y-85080000D01*
X103353880Y-84530849D01*
X103042811Y-84065302D01*
X102660725Y-83810000D01*
X103042811Y-83554698D01*
X103353880Y-83089151D01*
X103463113Y-82540000D01*
X103353880Y-81990849D01*
X103042811Y-81525302D01*
X102660725Y-81270000D01*
X103042811Y-81014698D01*
X103353880Y-80549151D01*
X103463113Y-80000000D01*
X103353880Y-79450849D01*
X103042811Y-78985302D01*
X102660725Y-78730000D01*
X103042811Y-78474698D01*
X103353880Y-78009151D01*
X103463113Y-77460000D01*
X103353880Y-76910849D01*
X103042811Y-76445302D01*
X102577264Y-76134233D01*
X102028113Y-76025000D01*
X101971887Y-76025000D01*
X101422736Y-76134233D01*
X100957189Y-76445302D01*
X100646120Y-76910849D01*
X100536887Y-77460000D01*
X88380301Y-77460000D01*
X88380301Y-77007745D01*
X88671861Y-77007745D01*
X88745995Y-77253864D01*
X89283223Y-77446965D01*
X89853454Y-77419778D01*
X90254005Y-77253864D01*
X90328139Y-77007745D01*
X89500000Y-76179605D01*
X88671861Y-77007745D01*
X88380301Y-77007745D01*
X88380301Y-76794417D01*
X88492255Y-76828139D01*
X89320395Y-76000000D01*
X89679605Y-76000000D01*
X90507745Y-76828139D01*
X90753864Y-76754005D01*
X90833053Y-76533690D01*
X92945000Y-76533690D01*
X92945000Y-77174250D01*
X93103750Y-77333000D01*
X94253000Y-77333000D01*
X94253000Y-76183750D01*
X94507000Y-76183750D01*
X94507000Y-77333000D01*
X95656250Y-77333000D01*
X95815000Y-77174250D01*
X95815000Y-76533690D01*
X95718327Y-76300301D01*
X95539698Y-76121673D01*
X95306309Y-76025000D01*
X94665750Y-76025000D01*
X94507000Y-76183750D01*
X94253000Y-76183750D01*
X94094250Y-76025000D01*
X93453691Y-76025000D01*
X93220302Y-76121673D01*
X93041673Y-76300301D01*
X92945000Y-76533690D01*
X90833053Y-76533690D01*
X90946965Y-76216777D01*
X90919778Y-75646546D01*
X90753864Y-75245995D01*
X90507745Y-75171861D01*
X89679605Y-76000000D01*
X89320395Y-76000000D01*
X88492255Y-75171861D01*
X88380301Y-75205583D01*
X88380301Y-74992255D01*
X88671861Y-74992255D01*
X89500000Y-75820395D01*
X90328139Y-74992255D01*
X90254005Y-74746136D01*
X89716777Y-74553035D01*
X89146546Y-74580222D01*
X88745995Y-74746136D01*
X88671861Y-74992255D01*
X88380301Y-74992255D01*
X88380301Y-73752552D01*
X88578540Y-73554659D01*
X88727730Y-73195370D01*
X88728069Y-72806337D01*
X88579507Y-72446788D01*
X88304659Y-72171460D01*
X87945370Y-72022270D01*
X87556337Y-72021931D01*
X87196788Y-72170493D01*
X86921460Y-72445341D01*
X86772270Y-72804630D01*
X86771931Y-73193663D01*
X86920493Y-73553212D01*
X86957901Y-73590685D01*
X86957901Y-122277473D01*
X86945370Y-122272270D01*
X86889534Y-122272221D01*
X86889581Y-122217849D01*
X86741019Y-121858300D01*
X86466171Y-121582972D01*
X86106882Y-121433782D01*
X85717849Y-121433443D01*
X85461200Y-121539488D01*
X85461200Y-118317381D01*
X85502894Y-118275687D01*
X85657062Y-118044957D01*
X85657063Y-118044956D01*
X85690781Y-117875447D01*
X85868371Y-117802068D01*
X86300551Y-117370643D01*
X86534733Y-116806670D01*
X86535265Y-116196009D01*
X86302068Y-115631629D01*
X85870643Y-115199449D01*
X85306670Y-114965267D01*
X84696009Y-114964735D01*
X84131629Y-115197932D01*
X83963387Y-115365880D01*
X83963162Y-115364683D01*
X83824090Y-115148559D01*
X83611890Y-115003569D01*
X83360000Y-114952560D01*
X81560000Y-114952560D01*
X81324683Y-114996838D01*
X81108559Y-115135910D01*
X80963569Y-115348110D01*
X80912560Y-115600000D01*
X80710000Y-115600000D01*
X80710000Y-100100000D01*
X80912560Y-100100000D01*
X80912560Y-101900000D01*
X80956838Y-102135317D01*
X81095910Y-102351441D01*
X81308110Y-102496431D01*
X81560000Y-102547440D01*
X83360000Y-102547440D01*
X83595317Y-102503162D01*
X83811441Y-102364090D01*
X83956431Y-102151890D01*
X83960567Y-102131466D01*
X84129357Y-102300551D01*
X84693330Y-102534733D01*
X85303991Y-102535265D01*
X85868371Y-102302068D01*
X86300551Y-101870643D01*
X86534733Y-101306670D01*
X86535265Y-100696009D01*
X86302068Y-100131629D01*
X85870643Y-99699449D01*
X85306670Y-99465267D01*
X84696009Y-99464735D01*
X84131629Y-99697932D01*
X83963387Y-99865880D01*
X83963162Y-99864683D01*
X83824090Y-99648559D01*
X83611890Y-99503569D01*
X83360000Y-99452560D01*
X81560000Y-99452560D01*
X81324683Y-99496838D01*
X81108559Y-99635910D01*
X80963569Y-99848110D01*
X80912560Y-100100000D01*
X80710000Y-100100000D01*
X80710000Y-83100000D01*
X80912560Y-83100000D01*
X80912560Y-84900000D01*
X80956838Y-85135317D01*
X81095910Y-85351441D01*
X81308110Y-85496431D01*
X81560000Y-85547440D01*
X83360000Y-85547440D01*
X83595317Y-85503162D01*
X83811441Y-85364090D01*
X83956431Y-85151890D01*
X83960567Y-85131466D01*
X84129357Y-85300551D01*
X84693330Y-85534733D01*
X85303991Y-85535265D01*
X85868371Y-85302068D01*
X86300551Y-84870643D01*
X86534733Y-84306670D01*
X86535265Y-83696009D01*
X86302068Y-83131629D01*
X85870643Y-82699449D01*
X85306670Y-82465267D01*
X84696009Y-82464735D01*
X84131629Y-82697932D01*
X83963387Y-82865880D01*
X83963162Y-82864683D01*
X83824090Y-82648559D01*
X83611890Y-82503569D01*
X83360000Y-82452560D01*
X81560000Y-82452560D01*
X81324683Y-82496838D01*
X81108559Y-82635910D01*
X80963569Y-82848110D01*
X80912560Y-83100000D01*
X80710000Y-83100000D01*
X80710000Y-64652532D01*
X88527073Y-64652532D01*
X88625736Y-64919387D01*
X89235461Y-65145908D01*
X89885460Y-65121856D01*
X90374264Y-64919387D01*
X90472927Y-64652532D01*
X89500000Y-63679605D01*
X88527073Y-64652532D01*
X80710000Y-64652532D01*
X80710000Y-63235461D01*
X87854092Y-63235461D01*
X87878144Y-63885460D01*
X88080613Y-64374264D01*
X88347468Y-64472927D01*
X89320395Y-63500000D01*
X89679605Y-63500000D01*
X90652532Y-64472927D01*
X90919387Y-64374264D01*
X91123893Y-63823795D01*
X102364716Y-63823795D01*
X102613106Y-64424943D01*
X103072637Y-64885278D01*
X103288800Y-64975036D01*
X103288800Y-71328206D01*
X103171460Y-71445341D01*
X103022270Y-71804630D01*
X103021931Y-72193663D01*
X103170493Y-72553212D01*
X103445341Y-72828540D01*
X103804630Y-72977730D01*
X104193663Y-72978069D01*
X104553212Y-72829507D01*
X104828540Y-72554659D01*
X104977730Y-72195370D01*
X104978069Y-71806337D01*
X104829507Y-71446788D01*
X104711200Y-71328274D01*
X104711200Y-64975211D01*
X104924943Y-64886894D01*
X105385278Y-64427363D01*
X105634716Y-63826648D01*
X105635284Y-63176205D01*
X105386894Y-62575057D01*
X104927363Y-62114722D01*
X104326648Y-61865284D01*
X103676205Y-61864716D01*
X103075057Y-62113106D01*
X102614722Y-62572637D01*
X102365284Y-63173352D01*
X102364716Y-63823795D01*
X91123893Y-63823795D01*
X91145908Y-63764539D01*
X91121856Y-63114540D01*
X90919387Y-62625736D01*
X90652532Y-62527073D01*
X89679605Y-63500000D01*
X89320395Y-63500000D01*
X88347468Y-62527073D01*
X88080613Y-62625736D01*
X87854092Y-63235461D01*
X80710000Y-63235461D01*
X80710000Y-62347468D01*
X88527073Y-62347468D01*
X89500000Y-63320395D01*
X90472927Y-62347468D01*
X90374264Y-62080613D01*
X89764539Y-61854092D01*
X89114540Y-61878144D01*
X88625736Y-62080613D01*
X88527073Y-62347468D01*
X80710000Y-62347468D01*
X80710000Y-60710000D01*
X135290000Y-60710000D01*
X135290000Y-99830878D01*
M02*
