M48
INCH,TZ
T1C0.013
T2C0.025
T3C0.031
T4C0.035
T5C0.039
T6C0.043
T7C0.120
%
G90
G05
T1
X33823Y-48194
X34154Y-48524
X34547Y-28740
X34646Y-57480
X39862Y-48130
X40945Y-28346
X40945Y-47638
X41339Y-34252
X41535Y-48524
X41929Y-28937
X42717Y-57480
X43012Y-52067
X45177Y-49409
X45472Y-48622
X48622Y-48622
X50591Y-28937
X52983Y-39567
X52983Y-41732
X52983Y-49016
T2
X47835Y-61417
T3
X33366Y-50051
X33366Y-51051
X33366Y-52051
X33366Y-53051
X33366Y-54051
X33366Y-55051
X33366Y-56051
X35236Y-29921
X35236Y-33921
X35236Y-36551
X35236Y-40551
X35236Y-42654
X35236Y-46654
X35433Y-58661
X36366Y-50051
X36366Y-51051
X36366Y-52051
X36366Y-53051
X36366Y-54051
X36366Y-55051
X36366Y-56051
X37157Y-30496
X37157Y-31496
X37157Y-32496
X37157Y-33496
X37157Y-37008
X37157Y-38008
X37157Y-39008
X37157Y-40008
X37157Y-43276
X37157Y-44276
X37157Y-45276
X37157Y-46276
X39433Y-58661
X40157Y-30496
X40157Y-31496
X40157Y-32496
X40157Y-33496
X40157Y-37008
X40157Y-38008
X40157Y-39008
X40157Y-40008
X40157Y-43276
X40157Y-44276
X40157Y-45276
X40157Y-46276
X40996Y-50051
X40996Y-51051
X40996Y-52051
X40996Y-53051
X40996Y-54051
X40996Y-55051
X40996Y-56051
X42520Y-33661
X42520Y-40157
X42913Y-46654
X43244Y-30512
X43244Y-31890
X43504Y-37008
X43504Y-38583
X43602Y-43307
X43602Y-44783
X43996Y-50051
X43996Y-51051
X43996Y-52051
X43996Y-53051
X43996Y-54051
X43996Y-55051
X43996Y-56051
X44488Y-33661
X44488Y-40157
X44882Y-46654
X46457Y-40157
X47244Y-30512
X47244Y-31890
X47504Y-37008
X47504Y-38583
X47602Y-43307
X47602Y-44783
X48425Y-40157
X48622Y-31693
X48622Y-50134
X48622Y-51134
X48622Y-52134
X48622Y-53134
X48622Y-54134
X48622Y-55134
X48622Y-56134
X49606Y-31693
X51622Y-50134
X51622Y-51134
X51622Y-52134
X51622Y-53134
X51622Y-54134
X51622Y-55134
X51622Y-56134
T4
X32465Y-33071
X32465Y-39764
X32465Y-45866
X33465Y-33071
X33465Y-39764
X33465Y-45866
X36992Y-61024
X37992Y-61024
T5
X35236Y-25000
X40945Y-25000
X46654Y-61417
X49803Y-25000
X51378Y-44063
X51378Y-45063
X51378Y-46063
T6
X49803Y-36811
X49803Y-38583
X52362Y-36811
X52362Y-38583
T7
X44685Y-61417
T0
M30
