M48
;DRILL file {KiCad 4.0.5-e0-6337~49~ubuntu16.04.1} date Sun Mar 26 15:45:32 2017
;FORMAT={-:-/ absolute / inch / decimal}
FMAT,2
INCH,TZ
T1C0.013
T2C0.025
T3C0.031
T4C0.035
T5C0.039
T6C0.043
T7C0.120
%
G90
G05
M72
T1
X3.3823Y-4.8194
X3.4154Y-4.8524
X3.4547Y-2.874
X3.4646Y-5.748
X3.9862Y-4.813
X4.0945Y-2.8346
X4.0945Y-4.7638
X4.1339Y-3.4252
X4.1535Y-4.8524
X4.1929Y-2.8937
X4.2717Y-5.748
X4.3012Y-5.2067
X4.5472Y-4.8622
X4.6063Y-5.0591
X4.8622Y-4.8622
X4.8819Y-4.252
X4.8819Y-4.4882
X5.0591Y-2.8937
X5.2983Y-3.9567
X5.2983Y-4.1732
X5.2983Y-4.9016
T2
X4.7835Y-6.1417
T3
X3.3366Y-5.0051
X3.3366Y-5.1051
X3.3366Y-5.2051
X3.3366Y-5.3051
X3.3366Y-5.4051
X3.3366Y-5.5051
X3.3366Y-5.6051
X3.5236Y-2.9921
X3.5236Y-3.3921
X3.5236Y-3.6551
X3.5236Y-4.0551
X3.5236Y-4.2654
X3.5236Y-4.6654
X3.5433Y-5.8661
X3.6366Y-5.0051
X3.6366Y-5.1051
X3.6366Y-5.2051
X3.6366Y-5.3051
X3.6366Y-5.4051
X3.6366Y-5.5051
X3.6366Y-5.6051
X3.7157Y-3.0496
X3.7157Y-3.1496
X3.7157Y-3.2496
X3.7157Y-3.3496
X3.7157Y-3.7008
X3.7157Y-3.8008
X3.7157Y-3.9008
X3.7157Y-4.0008
X3.7157Y-4.3276
X3.7157Y-4.4276
X3.7157Y-4.5276
X3.7157Y-4.6276
X3.9433Y-5.8661
X4.0157Y-3.0496
X4.0157Y-3.1496
X4.0157Y-3.2496
X4.0157Y-3.3496
X4.0157Y-3.7008
X4.0157Y-3.8008
X4.0157Y-3.9008
X4.0157Y-4.0008
X4.0157Y-4.3276
X4.0157Y-4.4276
X4.0157Y-4.5276
X4.0157Y-4.6276
X4.0996Y-5.0051
X4.0996Y-5.1051
X4.0996Y-5.2051
X4.0996Y-5.3051
X4.0996Y-5.4051
X4.0996Y-5.5051
X4.0996Y-5.6051
X4.252Y-3.3661
X4.252Y-4.0157
X4.2913Y-4.6654
X4.3244Y-3.0512
X4.3244Y-3.189
X4.3504Y-3.7008
X4.3504Y-3.8583
X4.3602Y-4.3307
X4.3602Y-4.4783
X4.3996Y-5.0051
X4.3996Y-5.1051
X4.3996Y-5.2051
X4.3996Y-5.3051
X4.3996Y-5.4051
X4.3996Y-5.5051
X4.3996Y-5.6051
X4.4488Y-3.3661
X4.4488Y-4.0157
X4.4882Y-4.6654
X4.6457Y-4.0157
X4.7244Y-3.0512
X4.7244Y-3.189
X4.7504Y-3.7008
X4.7504Y-3.8583
X4.7602Y-4.3307
X4.7602Y-4.4783
X4.8425Y-4.0157
X4.8622Y-3.1693
X4.8622Y-5.0134
X4.8622Y-5.1134
X4.8622Y-5.2134
X4.8622Y-5.3134
X4.8622Y-5.4134
X4.8622Y-5.5134
X4.8622Y-5.6134
X4.9606Y-3.1693
X5.1622Y-5.0134
X5.1622Y-5.1134
X5.1622Y-5.2134
X5.1622Y-5.3134
X5.1622Y-5.4134
X5.1622Y-5.5134
X5.1622Y-5.6134
T4
X3.2465Y-3.3071
X3.2465Y-3.9764
X3.2465Y-4.5866
X3.3465Y-3.3071
X3.3465Y-3.9764
X3.3465Y-4.5866
X3.6992Y-6.1024
X3.7992Y-6.1024
T5
X3.5236Y-2.5
X4.0945Y-2.5
X4.6654Y-6.1417
X4.9803Y-2.5
X5.1378Y-4.4063
X5.1378Y-4.5063
X5.1378Y-4.6063
T6
X4.9803Y-3.6811
X4.9803Y-3.8583
X5.2362Y-3.6811
X5.2362Y-3.8583
T7
X4.4685Y-6.1417
T0
M30
